<svg xmlns="http://www.w3.org/2000/svg" xmlns:xlink="http://www.w3.org/1999/xlink" xmlns:lucid="lucid" width="1843" height="1242"><g transform="translate(-218.49999999999994 -379.5)" lucid:page-tab-id="0_0"><path d="M240 606a6 6 0 0 1 6-6h788a6 6 0 0 1 6 6v428a6 6 0 0 1-6 6H246a6 6 0 0 1-6-6z" stroke="#3a414a" stroke-width="3" fill-opacity="0"/><use xlink:href="#a" transform="matrix(1,0,0,1,247.99999999999994,608) translate(268.49444444444447 21.2)"/><use xlink:href="#b" transform="matrix(1,0,0,1,247.99999999999994,608) translate(330.53333333333336 21.2)"/><use xlink:href="#c" transform="matrix(1,0,0,1,247.99999999999994,608) translate(451.5777777777778 21.2)"/><path d="M680 646a6 6 0 0 1 6-6h308a6 6 0 0 1 6 6v228a6 6 0 0 1-6 6H686a6 6 0 0 1-6-6z" stroke="#dd3522" stroke-width="3" fill="#fff" fill-opacity="0"/><use xlink:href="#d" transform="matrix(1,0,0,1,680,660) translate(57.08333333333336 20.8)"/><use xlink:href="#e" transform="matrix(1,0,0,1,680,660) translate(170.54444444444442 20.8)"/><use xlink:href="#f" transform="matrix(1,0,0,1,680,660) translate(199.43333333333334 20.8)"/><path d="M240 1086a6 6 0 0 1 6-6h868a6 6 0 0 1 6 6v508a6 6 0 0 1-6 6H246a6 6 0 0 1-6-6z" stroke="#3a414a" stroke-width="3" fill-opacity="0"/><use xlink:href="#g" transform="matrix(1,0,0,1,248,1088) translate(300.7 21.2)"/><use xlink:href="#h" transform="matrix(1,0,0,1,248,1088) translate(362.7388888888889 21.2)"/><use xlink:href="#i" transform="matrix(1,0,0,1,248,1088) translate(498.3722222222222 21.2)"/><path d="M481.5 1142.67a6 6 0 0 1 6-6h468a6 6 0 0 1 6 6v227.52a6 6 0 0 1-6 6h-468a6 6 0 0 1-6-6z" stroke="#0e76d4" stroke-width="3" fill="#fff" fill-opacity="0"/><path d="M481.5 1136.67h56v56h-56v-56z" stroke="#000" stroke-opacity="0" fill-opacity="0"/><path d="M520.05 1149.46c-8.8-.96-10.3-4.8-10.3-4.8s-2 4.96-14.65 4.96v20.48c0 2.47 1.35 4.83 3.28 6.82 4.33 4.55 11.36 7.67 11.36 7.67s14.64-6.4 14.64-14.5v-20.48c-1.6 0-3.04-.08-4.33-.16z" stroke="#000" stroke-opacity="0" fill="#0072c6"/><path d="M513.42 1157.85l6.64-8.38c-8.8-.97-10.3-4.8-10.3-4.8s-2.03 4.96-14.66 4.96v20.47c0 2.5 1.35 4.8 3.27 6.8l4.97-6.25 10.08-12.8z" stroke="#000" stroke-opacity="0" fill="#3999c6" fill-opacity=".4"/><path d="M498.14 1164.2v4.87c0 2 1.12 3.84 2.64 5.43 3.45 3.7 9.04 6.1 9.04 6.1v-16.4h-11.68z" stroke="#000" stroke-opacity="0" fill="#fff" fill-opacity=".3"/><path d="M509.74 1180.6s11.68-5.14 11.68-11.54v-4.87h-11.68v16.4zm0-31.85s-1.6 4-11.68 4v11.44h11.68v-15.45z" stroke="#000" stroke-opacity="0" fill="#fff" fill-opacity=".7"/><path d="M517.9 1152.6c-6.96-.8-8.16-3.77-8.16-3.77v15.36h11.68v-11.46c-1.28 0-2.48-.07-3.52-.15z" stroke="#000" stroke-opacity="0" fill="#fff" fill-opacity=".3"/><use xlink:href="#j" transform="matrix(1,0,0,1,557.4999500000005,1156.6664537259403) translate(0 17.77777777777778)"/><use xlink:href="#k" transform="matrix(1,0,0,1,557.4999500000005,1156.6664537259403) translate(87.46913580246913 17.77777777777778)"/><use xlink:href="#l" transform="matrix(1,0,0,1,557.4999500000005,1156.6664537259403) translate(173.76543209876542 17.77777777777778)"/><use xlink:href="#m" transform="matrix(1,0,0,1,557.4999500000005,1156.6664537259403) translate(241.6049382716049 17.77777777777778)"/><use xlink:href="#n" transform="matrix(1,0,0,1,557.4999500000005,1156.6664537259403) translate(282.28395061728395 17.77777777777778)"/><path d="M280 1406a6 6 0 0 1 6-6h788a6 6 0 0 1 6 6v148a6 6 0 0 1-6 6H286a6 6 0 0 1-6-6z" stroke="#dd3522" stroke-width="3" fill="#fff" fill-opacity="0"/><use xlink:href="#o" transform="matrix(1,0,0,1,280,1420) translate(341.4 14.4)"/><use xlink:href="#p" transform="matrix(1,0,0,1,280,1420) translate(370.7 14.4)"/><path d="M1240 766a6 6 0 0 1 6-6h308a6 6 0 0 1 6 6v188a6 6 0 0 1-6 6h-308a6 6 0 0 1-6-6z" stroke="#3a414a" stroke-width="3" fill-opacity="0"/><use xlink:href="#g" transform="matrix(1,0,0,1,1248,768) translate(75.51666666666668 21.2)"/><use xlink:href="#q" transform="matrix(1,0,0,1,1248,768) translate(137.55555555555554 21.2)"/><path d="M1160 1006a6 6 0 0 1 6-6h868a6 6 0 0 1 6 6v388a6 6 0 0 1-6 6h-868a6 6 0 0 1-6-6z" stroke="#3a414a" stroke-width="3" fill-opacity="0"/><use xlink:href="#r" transform="matrix(1,0,0,1,1168,1008) translate(323.0527777777778 21.2)"/><use xlink:href="#i" transform="matrix(1,0,0,1,1168,1008) translate(476.01944444444445 21.2)"/><path d="M1200 1222.2a6 6 0 0 1 6-6h788a6 6 0 0 1 6 6v148a6 6 0 0 1-6 6h-788a6 6 0 0 1-6-6z" stroke="#dd3522" stroke-width="3" fill="#fff" fill-opacity="0"/><use xlink:href="#s" transform="matrix(1,0,0,1,1200,1236.190780391514) translate(330.98148148148147 21.333333333333336)"/><use xlink:href="#t" transform="matrix(1,0,0,1,1200,1236.190780391514) translate(364.98148148148147 21.333333333333336)"/><path d="M400 400h80v80h-80v-80z" stroke="#000" stroke-opacity="0" fill="url(#u)"/><path d="M454.08 455.4c3.4 0 6.07 2.7 6.07 6.05 0 3.3-2.68 6-6.07 6-3.33 0-6.07-2.7-6.07-6 0-1.76.8-3.35 2-4.45l-3.5-5.83-.05.06h-11.67c-.43 0-.86-.28-1.07-.66l-5.8-10c-.27-.4-.27-.83 0-1.2l5.7-9.85-3.23-5.33c-.6.2-1.24.32-1.93.32-3.34 0-6.08-2.7-6.08-6 0-3.35 2.74-6.04 6.08-6.04 3.33 0 6.07 2.7 6.07 6.05 0 1.7-.74 3.3-1.98 4.4l3.5 5.76h10.43c.43 0 .86.27 1.07.65l5.8 10c.22.4.22.83 0 1.2l-5.05 8.7 3.88 6.48c.64-.22 1.3-.33 1.93-.33zm-8.4-6.7l5.12-8.74-5.1-8.74h-10.17l-5.1 8.74 5.1 8.74zm-19.88 7.03l2.9 4.23h10.7v2.48h-11.34c-.43 0-.8-.22-1.07-.55l-3.5-5.07c-.44.1-.87.17-1.35.17-3.34 0-6.08-2.7-6.08-6.05 0-1.54.6-2.9 1.56-3.95l-3.7-6.44c-.22-.38-.22-.82 0-1.2l5.96-10.23 2.14 1.2-5.6 9.63 3.23 5.5c.76-.33 1.62-.5 2.48-.5 3.33 0 6.07 2.7 6.07 6 0 1.97-.97 3.67-2.42 4.77zm37.96-22.6l3.6 6.23c.2.38.2.82 0 1.2l-5.16 8.9-2.2-1.26 4.83-8.24-3.33-5.66c-.5.1-1.02.22-1.56.22-3.33 0-6.07-2.7-6.07-6.05 0-1.6.64-3.07 1.7-4.17l-3-4.35h-10.7v-2.47h11.35c.43 0 .8.22 1.07.55l3.38 4.9c.7-.28 1.45-.45 2.26-.45 3.33 0 6.07 2.7 6.07 6 0 1.92-.9 3.57-2.24 4.66zm-41.6 21.34c1.92 0 3.53-1.54 3.53-3.52 0-1.92-1.62-3.5-3.55-3.5-1.94 0-3.55 1.58-3.55 3.5 0 1.98 1.6 3.52 3.55 3.52zm6.28-32.43c2 0 3.55-1.6 3.55-3.5 0-2-1.57-3.6-3.56-3.6-1.94 0-3.55 1.6-3.55 3.6 0 1.9 1.6 3.5 3.54 3.5zm31.5 9.95c1.94 0 3.55-1.55 3.55-3.53 0-1.92-1.63-3.5-3.56-3.5-1.94 0-3.55 1.58-3.55 3.5 0 1.98 1.6 3.52 3.54 3.52zm-5.86 32.97c2 0 3.55-1.6 3.55-3.52 0-1.98-1.56-3.57-3.55-3.57-1.94 0-3.55 1.6-3.55 3.57 0 1.92 1.62 3.52 3.55 3.52z" stroke="#000" stroke-opacity="0" fill="#fff"/><use xlink:href="#v" transform="matrix(1,0,0,1,370,489) translate(37.025 14.4)"/><use xlink:href="#w" transform="matrix(1,0,0,1,370,489) translate(21.049999999999997 36)"/><path d="M463.94 784.03H451c-.65 0-1.26-.38-1.52-.98l-18.14-38.9h-7.32c-.9 0-1.7-.75-1.7-1.67v-11.23c0-.92.8-1.68 1.7-1.68h16.15c.7 0 1.26.38 1.52.98l18.1 38.9h4.14c.92 0 1.7.75 1.7 1.73v11.17c0 .92-.78 1.68-1.7 1.68zm-11.9-3.43h10.17v-7.73h-3.5c-.64 0-1.25-.38-1.5-.98l-18.07-38.96h-13.38v7.8h6.67c.7 0 1.3.37 1.56.97z" stroke="#fff" stroke-opacity="0" fill="#d86613"/><path d="M428.8 784.03H415c-.9 0-1.68-.77-1.68-1.7 0-.28.05-.48.17-.72l14.45-30.26c.3-.6.87-.97 1.53-.97.67 0 1.24.33 1.54.94l6.9 14.32c.23.47.23.97 0 1.45l-7.55 16c-.3.6-.87.96-1.54.96zm-11.1-3.4h10.02l6.8-14.27-5.1-10.37z" stroke="#fff" stroke-opacity="0" fill="#d86613"/><path d="M440 800c-22.08 0-40-17.92-40-40s17.92-40 40-40 40 17.92 40 40-17.92 40-40 40zm0-76.56c-20.24 0-36.56 16.32-36.56 36.56 0 20.24 16.32 36.56 36.56 36.56 20.24 0 36.56-16.32 36.56-36.56 0-20.24-16.32-36.56-36.56-36.56z" stroke="#fff" stroke-opacity="0" fill="#d86613"/><use xlink:href="#x" transform="matrix(1,0,0,1,370,809) translate(33.916666666666664 16)"/><use xlink:href="#y" transform="matrix(1,0,0,1,370,809) translate(0.6944444444444429 40)"/><use xlink:href="#z" transform="matrix(1,0,0,1,370,809) translate(82.80555555555556 40)"/><use xlink:href="#A" transform="matrix(1,0,0,1,370,809) translate(26.194444444444436 64)"/><path d="M530.33 761.48H481.5v-2.96h48.83zm127.55 0h-58.46v-2.96h58.46z" stroke="#3a414a" stroke-width=".05" fill="#3a414a"/><path d="M481.54 761.48h-1.63l.1-1.48-.05-1.48h1.6z" fill="#3a414a"/><path stroke="#3a414a" stroke-width=".05" fill="#3a414a"/><path d="M673.65 760l-14.27 4.63v-9.26z" fill="#3a414a"/><path d="M678.42 760l-20.5 6.66v-13.32zm-17.56 2.6l8-2.6-8-2.6z" stroke="#3a414a" stroke-width=".05" fill="#3a414a"/><use xlink:href="#B" transform="matrix(1,0,0,1,530.3310150270272,749.3333333333335) translate(0 14.222222222222223)"/><path d="M720 726a6 6 0 0 1 6-6h228a6 6 0 0 1 6 6v98a6 6 0 0 1-6 6H726a6 6 0 0 1-6-6z" fill="none"/><use xlink:href="#C" transform="matrix(1,0,0,1,720,720) translate(8.45 28.999999999999996)"/><use xlink:href="#D" transform="matrix(1,0,0,1,720,720) translate(26 28.999999999999996)"/><use xlink:href="#C" transform="matrix(1,0,0,1,720,720) translate(8.45 60.2)"/><use xlink:href="#E" transform="matrix(1,0,0,1,720,720) translate(26 60.2)"/><use xlink:href="#C" transform="matrix(1,0,0,1,720,720) translate(8.45 91.39999999999999)"/><use xlink:href="#F" transform="matrix(1,0,0,1,720,720) translate(26 91.39999999999999)"/><path d="M625.45 1264.04H612.5c-.65 0-1.26-.38-1.52-.98l-18.14-38.9h-7.32c-.9 0-1.7-.76-1.7-1.68v-11.22c0-.93.8-1.7 1.7-1.7h16.15c.7 0 1.26.4 1.52 1l18.1 38.88h4.15c.9 0 1.68.76 1.68 1.74v11.17c0 .92-.77 1.7-1.68 1.7zm-11.9-3.44h10.16v-7.73h-3.5c-.64 0-1.25-.38-1.5-.98l-18.07-38.96h-13.38v7.8h6.67c.7 0 1.3.38 1.56.97z" stroke="#fff" stroke-opacity="0" fill="#d86613"/><path d="M590.3 1264.04H576.5c-.9 0-1.68-.78-1.68-1.72 0-.27.05-.47.17-.7l14.45-30.28c.3-.6.87-.97 1.54-.97.66 0 1.23.34 1.53.94l6.9 14.32c.23.47.23.98 0 1.45l-7.55 16c-.3.6-.87.97-1.54.97zm-11.1-3.4h10.02l6.8-14.28-5.1-10.37z" stroke="#fff" stroke-opacity="0" fill="#d86613"/><path d="M601.5 1280c-22.08 0-40-17.92-40-40s17.92-40 40-40 40 17.92 40 40-17.92 40-40 40zm0-76.56c-20.24 0-36.56 16.32-36.56 36.56 0 20.24 16.32 36.56 36.56 36.56 20.24 0 36.56-16.32 36.56-36.56 0-20.24-16.32-36.56-36.56-36.56z" stroke="#fff" stroke-opacity="0" fill="#d86613"/><path d="M381.48 1215.94l.28 3.6.82 3.42 1.35 3.27 1.85 3 2.3 2.7 2.68 2.3 3.02 1.84 3.26 1.35 3.44.82 3.58.3h136.82v2.94H403.94l-3.93-.3-3.87-.95-3.7-1.53-3.4-2.1-3.05-2.58-2.6-3.04-2.08-3.4-1.53-3.7-.94-3.9-.3-3.92v-85.8h2.95zM497.7 938.37h-93.64l-3.58.3-3.44.8-3.26 1.36-3.02 1.85-2.68 2.3-2.3 2.68-1.85 3-1.35 3.28-.82 3.44-.28 3.58v147.97h-2.96v-148.1l.3-3.92.95-3.88 1.53-3.7 2.1-3.4 2.58-3.04 3.04-2.6 3.4-2.08 3.7-1.53 3.9-.94 3.92-.3h93.76z" stroke="#3a414a" stroke-width=".05" fill="#3a414a"/><path d="M499.2 938.37h-1.54v-2.95h1.54z" fill="#3a414a"/><path stroke="#3a414a" stroke-width=".05" fill="#3a414a"/><path d="M556.65 1240l-14.27 4.64v-9.27z" fill="#3a414a"/><path d="M561.42 1240l-20.5 6.67v-13.33zm-17.56 2.6l8-2.6-8-2.6z" stroke="#3a414a" stroke-width=".05" fill="#3a414a"/><use xlink:href="#G" transform="matrix(1,0,0,1,345.01234567901236,1108.9348478824356) translate(0 14.222222222222223)"/><path d="M548.33 849.57l1.07 12.88.18 4.3-2.95.13-.17-4.24-1.06-12.76-1.3-10.3h2.97zM483 758.6l2.82.16 2.68.28 2.55.38 2.42.46 2.33.55 2.24.62 2.16.7 2.1.78 2.02.86 1.97.92 1.92 1 1.9 1.1 1.85 1.18 1.83 1.27 1.8 1.37 1.8 1.48 1.77 1.6 1.76 1.72.5.53h-4.17l-.1-.1-1.7-1.52-1.7-1.4-1.7-1.3-1.72-1.2-1.75-1.1-1.8-1.04-1.82-.94-1.86-.88-1.92-.8-1.97-.74-2.04-.66-2.13-.6-2.2-.5-2.32-.45-2.42-.36-2.55-.26-2.7-.17-1.4-.02.05-2.94z" stroke="#3a414a" stroke-width=".05" fill="#3a414a"/><path d="M481.57 758.56l-.06 2.95-1.6-.03.1-1.47-.05-1.48z" fill="#3a414a"/><path stroke="#3a414a" stroke-width=".05" fill="#3a414a"/><path d="M548.54 882.58l-5.03-14.14 9.28-.25z" fill="#3a414a"/><path d="M548.67 887.35l-7.22-20.33 13.32-.36zm-3.1-17.5l2.84 7.95 2.4-8.08z" stroke="#3a414a" stroke-width=".05" fill="#3a414a"/><use xlink:href="#H" transform="matrix(1,0,0,1,498.69512630144516,775.5708567563113) translate(11.807469135802474 14.222222222222223)"/><use xlink:href="#I" transform="matrix(1,0,0,1,498.69512630144516,775.5708567563113) translate(0.005000000000002558 35.55555555555556)"/><use xlink:href="#J" transform="matrix(1,0,0,1,498.69512630144516,775.5708567563113) translate(42.375370370370376 35.55555555555556)"/><use xlink:href="#K" transform="matrix(1,0,0,1,498.69512630144516,775.5708567563113) translate(15.313641975308645 56.88888888888889)"/><path d="M841.5 1200h80v80h-80v-80z" stroke="#000" stroke-opacity="0" fill="url(#L)"/><path d="M894.93 1258.06c-.2.43-.6.7-1.1.7h-24.98c-.67 0-1.22-.54-1.22-1.25v-14.25c0-1.32.5-2.1.94-2.48.4-.38 1.16-.82 2.3-.77h1.66c.22-1.1.72-2.47 1.93-2.47h4.58c1 .2 1.37 1.43 1.54 2.47h11.34c1.1-.05 1.82.4 2.2.77.45.4.94 1.16.94 2.48v.5h5c.45 0 .84.2 1.06.6.22.38.27.83.05 1.2zm-2.36-14.8c0-.4-.1-.62-.17-.67-.05-.07-.22-.12-.44-.12H879.4c-.65 0-1.25-.55-1.25-1.2 0-.23-.06-.84-.1-1.28h-2.88c-.16.44-.27 1.05-.27 1.27 0 .66-.55 1.2-1.27 1.2h-2.86c-.27 0-.44.06-.5.12-.05.04-.16.26-.16.65v13h22.47zm-25-10.2c0 .45 0 .83.06 1.27.12.6-.33 1.2-.93 1.32-1.87.5-5.06 1.98-5.06 6.55v.5c.16 2.6 1.92 4.9 4.5 5.78l-.82 2.37c-3.57-1.22-6-4.4-6.16-8.04-.06-.2-.06-.43-.06-.6 0-4.18 2.2-7.32 6-8.64-.05-.16-.05-.33-.05-.5 0-4.67 3.2-9.57 7.37-11.33 4.96-2.04 10.13-1.05 13.93 2.75 1.04 1.05 1.92 2.3 2.64 3.74.98-.66 2.08-1 3.24-1 2.6 0 5.5 1.88 6.1 6.07 4.7 1.25 7.22 4.44 7.22 8.96 0 1.1-.1 2.14-.44 3.08l-2.37-.7c.22-.68.33-1.5.33-2.38 0-3.63-2.1-5.9-6.16-6.72-.55-.1-.94-.6-1-1.15-.16-3.48-2.1-4.7-3.68-4.7-1.05 0-2.04.56-2.7 1.44-.27.4-.7.55-1.15.5-.5-.1-.84-.4-1-.83-.67-1.8-1.6-3.35-2.8-4.56-1.5-1.43-5.52-4.57-11.2-2.2-3.3 1.38-5.82 5.34-5.82 9.03zm40.02-20.58c.7 0 1.26.55 1.26 1.27v8.75h-2.48v-5.9l-6.77 6.78-1.75-1.76 6.6-6.66h-5.55v-2.48zm-51.3 4.13v5.9h-2.48v-8.75c0-.72.55-1.27 1.27-1.27h8.68v2.48h-5.56l6.6 6.66-1.75 1.76zm50.08 46.8v-5.9h2.48v8.76c0 .7-.55 1.26-1.27 1.26h-8.7v-2.47h5.56l-6.6-6.66 1.75-1.78zm-41.55-5.02l-6.6 6.66h5.55v2.48h-8.7c-.7 0-1.26-.55-1.26-1.26v-8.75h2.48v5.9l6.77-6.78zm30.2-12.1v5.94l3-5.94z" stroke="#000" stroke-opacity="0" fill="#fff"/><use xlink:href="#M" transform="matrix(1,0,0,1,811.4999500000004,1289.00186640258) translate(52.525 14.4)"/><path d="M687.28 1241.48H643v-2.95h44.28zm133.6 0h-25.16v-2.95h25.16z" stroke="#3a414a" stroke-width=".05" fill="#3a414a"/><path d="M643.04 1241.48h-1.63l.1-1.48-.05-1.47h1.6z" fill="#3a414a"/><path stroke="#3a414a" stroke-width=".05" fill="#3a414a"/><path d="M836.65 1240l-14.27 4.64v-9.27z" fill="#3a414a"/><path d="M841.42 1240l-20.5 6.67v-13.33zm-17.56 2.6l8-2.6-8-2.6z" stroke="#3a414a" stroke-width=".05" fill="#3a414a"/><use xlink:href="#N" transform="matrix(1,0,0,1,687.2792277627782,1218.6685330692467) translate(0.005000000000002558 14.222222222222223)"/><use xlink:href="#O" transform="matrix(1,0,0,1,687.2792277627782,1218.6685330692467) translate(47.363024691358035 14.222222222222223)"/><use xlink:href="#P" transform="matrix(1,0,0,1,687.2792277627782,1218.6685330692467) translate(32.05438271604939 35.55555555555556)"/><path d="M300 1459.12a6 6 0 0 1 6-6h148a6 6 0 0 1 6 6v68a6 6 0 0 1-6 6H306a6 6 0 0 1-6-6z" stroke="#3a414a" stroke-width="3" fill="#fff"/><use xlink:href="#Q" transform="matrix(1,0,0,1,305,1458.1220716311757) translate(18.016666666666673 25.175)"/><use xlink:href="#R" transform="matrix(1,0,0,1,305,1458.1220716311757) translate(17.29444444444445 56.375)"/><path d="M487.7 1459.12a6 6 0 0 1 6-6h148a6 6 0 0 1 6 6v68a6 6 0 0 1-6 6h-148a6 6 0 0 1-6-6z" stroke="#3a414a" stroke-width="3" fill="#fff"/><use xlink:href="#S" transform="matrix(1,0,0,1,492.68749375000004,1458.1220716311757) translate(42.53611111111111 25.175)"/><use xlink:href="#T" transform="matrix(1,0,0,1,492.68749375000004,1458.1220716311757) translate(11.552777777777791 56.375)"/><path d="M860 1459.12a6 6 0 0 1 6-6h188a6 6 0 0 1 6 6v68a6 6 0 0 1-6 6H866a6 6 0 0 1-6-6z" stroke="#3a414a" stroke-width="3" fill="#fff"/><use xlink:href="#U" transform="matrix(1,0,0,1,865,1458.1220716311757) translate(71.20277777777778 25.175)"/><use xlink:href="#V" transform="matrix(1,0,0,1,865,1458.1220716311757) translate(8.513888888888886 56.375)"/><path d="M661.63 1354.46l2.8 2.82 2.32 2.55 2 2.38 1.72 2.27 1.53 2.18 1.36 2.13 1.22 2.1 1.1 2.06.98 2.07.88 2.1.26.7-2.76 1.03-.24-.64-.83-1.98-.93-1.95-1.04-1.97-1.15-1.98-1.3-2.02-1.46-2.08-1.67-2.16-1.9-2.3-2.25-2.45-2.7-2.7-3.4-3.17-.14-.1h4.36zm-54.93-54.15l.83 1.98.93 1.96 1.04 1.96 1.15 1.98 1.3 2.02.32.46h-3.53l-.6-.94-1.22-2.1-1.1-2.06-.98-2.07-.88-2.1-.26-.7 2.76-1.03z" stroke="#3a414a" stroke-width=".05" fill="#3a414a"/><path d="M609.4 1298.02l-9.13 1.62 2.08-14.86z" fill="#3a414a"/><path d="M611.66 1299.12l-13.13 2.33 2.98-21.37zm-9.64-1.3l5.13-.9-3.97-7.44z" stroke="#3a414a" stroke-width=".05" fill="#3a414a"/><path d="M679.15 1393.72l-7.05-13.24 9.13-1.62z" fill="#3a414a"/><path d="M680 1398.42l-10.16-19.04 13.13-2.32zm-5.64-16.84l3.96 7.44 1.17-8.35z" stroke="#3a414a" stroke-width=".05" fill="#3a414a"/><use xlink:href="#W" transform="matrix(1,0,0,1,564.7770987039039,1310.6584917709754) translate(44.89388888888888 14.222222222222223)"/><use xlink:href="#X" transform="matrix(1,0,0,1,564.7770987039039,1310.6584917709754) translate(0.0049999999999954525 35.55555555555556)"/><use xlink:href="#Y" transform="matrix(1,0,0,1,564.7770987039039,1310.6584917709754) translate(94.72104938271605 35.55555555555556)"/><path d="M601.5 1198.5V1084a24 24 0 0 1 24-24H1076a24 24 0 0 0 24-24V884a24 24 0 0 1 24-24h93.88" stroke="#3a414a" stroke-width="3" fill="none"/><path d="M602.98 1200.1l-1.48-.1-1.48.05v-1.6H603z" stroke="#3a414a" stroke-width=".05" fill="#3a414a"/><path d="M1233.65 860l-14.27 4.63v-9.26z" stroke="#3a414a" stroke-width="3" fill="#3a414a"/><path d="M1480 1081.07a6 6 0 0 1 6-6h228a6 6 0 0 1 6 6v84.67a6 6 0 0 1-6 6h-228a6 6 0 0 1-6-6z" stroke="#3a414a" stroke-width="3" fill="#fff"/><use xlink:href="#Z" transform="matrix(1,0,0,1,1485,1080.069564427095) translate(24.325000000000017 47.9875)"/><use xlink:href="#aa" transform="matrix(1,0,0,1,1485,1080.069564427095) translate(99.36388888888891 47.9875)"/><use xlink:href="#ab" transform="matrix(1,0,0,1,1485,1080.069564427095) translate(159.45277777777778 47.9875)"/><path d="M1280 1286a6 6 0 0 1 6-6h148a6 6 0 0 1 6 6v68a6 6 0 0 1-6 6h-148a6 6 0 0 1-6-6z" stroke="#3a414a" stroke-width="3" fill="#fff"/><g><use xlink:href="#ac" transform="matrix(1,0,0,1,1285,1285) translate(15.199999999999996 25.175)"/><use xlink:href="#ad" transform="matrix(1,0,0,1,1285,1285) translate(94.42777777777778 25.175)"/><use xlink:href="#ae" transform="matrix(1,0,0,1,1285,1285) translate(47.15833333333334 56.375)"/></g><path d="M1520 1286a6 6 0 0 1 6-6h148a6 6 0 0 1 6 6v68a6 6 0 0 1-6 6h-148a6 6 0 0 1-6-6z" stroke="#3a414a" stroke-width="3" fill="#fff"/><g><use xlink:href="#af" transform="matrix(1,0,0,1,1525,1285) translate(21.591666666666676 25.175)"/><use xlink:href="#ag" transform="matrix(1,0,0,1,1525,1285) translate(111.07499999999999 25.175)"/><use xlink:href="#ah" transform="matrix(1,0,0,1,1525,1285) translate(46.25555555555556 56.375)"/></g><path d="M1760 1286a6 6 0 0 1 6-6h148a6 6 0 0 1 6 6v68a6 6 0 0 1-6 6h-148a6 6 0 0 1-6-6z" stroke="#3a414a" stroke-width="3" fill="#fff"/><g><use xlink:href="#ai" transform="matrix(1,0,0,1,1765,1285) translate(10.794444444444451 25.175)"/><use xlink:href="#ag" transform="matrix(1,0,0,1,1765,1285) translate(121.8722222222222 25.175)"/><use xlink:href="#aj" transform="matrix(1,0,0,1,1765,1285) translate(11.516666666666673 56.375)"/></g><path d="M1600 1174.74v19.33" stroke="#3a414a" stroke-width="3" stroke-linejoin="round" fill="none"/><path d="M1601.47 1174.78h-2.94v-1.54h2.94z" stroke="#3a414a" stroke-width=".05" fill="#3a414a"/><path d="M1600 1209.84l-4.63-14.27h9.27z" stroke="#3a414a" stroke-width="3" fill="#3a414a"/><path d="M1580 858.83l3.87.94 3.7 1.53 3.4 2.1 3.05 2.58 2.6 3.04 2.08 3.4 1.53 3.7.94 3.9.3 3.92v76.75h-2.94v-76.64l-.3-3.58-.8-3.44-1.36-3.26-1.85-3.02-2.3-2.68-2.68-2.3-3.02-1.85-3.26-1.35-3.44-.82-3.58-.28H1563v-2.96h13.06z" stroke="#3a414a" stroke-width=".05" fill="#3a414a"/><path d="M1563.04 861.48h-1.54v-2.96h1.54z" fill="#3a414a"/><path stroke="#3a414a" stroke-width=".05" fill="#3a414a"/><path d="M1600 993.65l-3.78-11.63h7.56z" fill="#3a414a"/><path d="M1600 998.42l-5.33-16.4h3.1l2.23 6.85 2.23-6.85h3.1z" stroke="#3a414a" stroke-width=".05" fill="#3a414a"/><g><use xlink:href="#ak" transform="matrix(1,0,0,1,1538.3703703703704,960.688853677064) translate(0 14.222222222222223)"/><use xlink:href="#al" transform="matrix(1,0,0,1,1538.3703703703704,960.688853677064) translate(84.83950617283952 14.222222222222223)"/></g><path d="M441.48 699.38h-2.96V590.84h2.96zm0-129.87h-2.96v-88h2.96z" stroke="#3a414a" stroke-width=".05" fill="#3a414a"/><path d="M441.48 481.54h-2.96V480h2.96z" fill="#3a414a"/><path stroke="#3a414a" stroke-width=".05" fill="#3a414a"/><path d="M440 715.15l-4.63-14.27h9.26z" fill="#3a414a"/><path d="M440 719.92l-6.67-20.5h13.34zm-2.6-17.56l2.6 8 2.6-8z" stroke="#3a414a" stroke-width=".05" fill="#3a414a"/><g><use xlink:href="#am" transform="matrix(1,0,0,1,359.60493827160496,569.5062030316135) translate(0 14.222222222222223)"/><use xlink:href="#an" transform="matrix(1,0,0,1,359.60493827160496,569.5062030316135) translate(74.9135802469136 14.222222222222223)"/><use xlink:href="#ao" transform="matrix(1,0,0,1,359.60493827160496,569.5062030316135) translate(128.24691358024694 14.222222222222223)"/></g><path d="M499.2 887.43h98.94v98.94H499.2v-98.94z" stroke="#000" stroke-opacity="0" fill="#7aa116"/><path d="M574.43 940.5l.46-3.4c4.4 2.64 4.45 3.75 4.45 3.75s-.8.62-4.92-.35zm-2.4-.7c-7.6-2.28-18.1-7.13-22.38-9.13v-.07c0-1.6-1.33-2.98-3-2.98-1.66 0-3 1.38-3 2.98 0 1.66 1.34 2.98 3 2.98.74 0 1.4-.28 1.87-.7 5.06 2.36 15.52 7.14 23.18 9.42l-3.07 21.26v.2c0 1.88-8.32 5.28-21.84 5.28-13.73 0-22.12-3.4-22.12-5.27v-.2l-6.32-46c5.46 3.75 17.18 5.75 28.43 5.75 11.18 0 22.9-2 28.36-5.75l-3.13 22.24zm-54.34-27.07c.12-1.6 9.45-7.97 29.1-7.97 19.63 0 28.96 6.37 29.1 7.97v.55c-1.14 3.67-13.26 7.55-29.1 7.55-15.92 0-28.04-3.88-29.1-7.55v-.55zm60.65.07c0-4.3-12.32-10.53-31.56-10.53-19.25 0-31.57 6.23-31.57 10.53l.13.9 6.86 50.14c.13 5.6 15.12 7.7 24.57 7.7 11.7 0 24.16-2.7 24.3-7.7l3-20.92c1.66.42 3 .63 4.05.63 1.47 0 2.47-.35 3.07-1.1.53-.56.66-1.26.53-2.02-.27-1.73-2.33-3.6-6.46-5.95l2.92-20.7.13-.98z" stroke="#000" stroke-opacity="0" fill="#fff"/><g><use xlink:href="#ap" transform="matrix(1,0,0,1,469.1978211857578,995.3705264225299) translate(24.574999999999996 14.4)"/><use xlink:href="#aq" transform="matrix(1,0,0,1,469.1978211857578,995.3705264225299) translate(29.574999999999996 14.4)"/><use xlink:href="#ar" transform="matrix(1,0,0,1,469.1978211857578,995.3705264225299) translate(106.475 14.4)"/><use xlink:href="#as" transform="matrix(1,0,0,1,469.1978211857578,995.3705264225299) translate(-10.438151041666671 38.91770833333334)"/></g><path d="M673.84 1459.12a6 6 0 0 1 6-6h148a6 6 0 0 1 6 6v68a6 6 0 0 1-6 6h-148a6 6 0 0 1-6-6z" stroke="#3a414a" stroke-width="3" fill="#fff"/><g><use xlink:href="#at" transform="matrix(1,0,0,1,678.8437468750001,1458.1220716311757) translate(32.49722222222222 25.175)"/><use xlink:href="#au" transform="matrix(1,0,0,1,678.8437468750001,1458.1220716311757) translate(16.644444444444453 56.375)"/></g><path d="M548.67 987.87v244.34" stroke="#3a414a" stroke-width="3" fill="none"/><path d="M550.14 987.9h-2.94v-1.53h2.94z" stroke="#3a414a" stroke-width=".05" fill="#3a414a"/><path d="M557.35 1237.48l-14.6-3.44 4.8-7.92z" stroke="#3a414a" stroke-width="3" fill="#3a414a"/><path d="M1345.03 810.53h109.94v108.1h-109.94v-108.1z" stroke="#000" stroke-opacity="0" fill="#7aa116"/><path d="M1428.62 868.52l.52-3.7c4.88 2.87 4.95 4.08 4.95 4.08s-.9.68-5.48-.38zm-2.66-.76c-8.44-2.5-20.13-7.8-24.87-10v-.06c0-1.74-1.5-3.26-3.34-3.26-1.85 0-3.33 1.52-3.33 3.26 0 1.8 1.48 3.25 3.33 3.25.82 0 1.56-.3 2.08-.75 5.62 2.57 17.24 7.8 25.75 10.3l-3.42 23.22v.23c0 2.04-9.25 5.75-24.27 5.75-15.23 0-24.56-3.7-24.56-5.75v-.23l-7.02-50.25c6.06 4.1 19.1 6.28 31.6 6.28 12.42 0 25.45-2.2 31.5-6.28l-3.47 24.3zm-60.38-29.6c.14-1.73 10.5-8.7 32.33-8.7 21.84 0 32.2 6.97 32.35 8.7v.62c-1.26 4-14.73 8.25-32.34 8.25-17.67 0-31.14-4.24-32.33-8.25v-.6zm67.4.1c0-4.7-13.68-11.5-35.07-11.5-21.37 0-35.06 6.8-35.06 11.5l.14.97 7.63 54.8c.16 6.12 16.8 8.4 27.3 8.4 13.03 0 26.87-2.96 27.02-8.4l3.33-22.86c1.85.45 3.33.68 4.5.68 1.64 0 2.75-.38 3.42-1.2.6-.62.74-1.37.6-2.2-.3-1.9-2.6-3.94-7.2-6.5l3.27-22.64.14-1.05z" stroke="#000" stroke-opacity="0" fill="#fff"/><g><use xlink:href="#ap" transform="matrix(1,0,0,1,1315.0257054521455,927.640905554919) translate(30.074999999999996 14.4)"/><use xlink:href="#aq" transform="matrix(1,0,0,1,1315.0257054521455,927.640905554919) translate(35.074999999999996 14.4)"/><use xlink:href="#av" transform="matrix(1,0,0,1,1315.0257054521455,927.640905554919) translate(111.975 14.4)"/></g><defs><path d="M30-248c118-7 216 8 213 122C240-48 200 0 122 0H30v-248zM63-27c89 8 146-16 146-99s-60-101-146-95v194" id="aw"/><path d="M141-36C126-15 110 5 73 4 37 3 15-17 15-53c-1-64 63-63 125-63 3-35-9-54-41-54-24 1-41 7-42 31l-33-3c5-37 33-52 76-52 45 0 72 20 72 64v82c-1 20 7 32 28 27v20c-31 9-61-2-59-35zM48-53c0 20 12 33 32 33 41-3 63-29 60-74-43 2-92-5-92 41" id="ax"/><path d="M59-47c-2 24 18 29 38 22v24C64 9 27 4 27-40v-127H5v-23h24l9-43h21v43h35v23H59v120" id="ay"/><g id="a"><use transform="matrix(0.07222222222222222,0,0,0.07222222222222222,0,0)" xlink:href="#aw"/><use transform="matrix(0.07222222222222222,0,0,0.07222222222222222,18.705555555555552,0)" xlink:href="#ax"/><use transform="matrix(0.07222222222222222,0,0,0.07222222222222222,33.14999999999999,0)" xlink:href="#ay"/><use transform="matrix(0.07222222222222222,0,0,0.07222222222222222,40.37222222222221,0)" xlink:href="#ax"/></g><path d="M212-179c-10-28-35-45-73-45-59 0-87 40-87 99 0 60 29 101 89 101 43 0 62-24 78-52l27 14C228-24 195 4 139 4 59 4 22-46 18-125c-6-104 99-153 187-111 19 9 31 26 39 46" id="az"/><path d="M100-194c62-1 85 37 85 99 1 63-27 99-86 99S16-35 15-95c0-66 28-99 85-99zM99-20c44 1 53-31 53-75 0-43-8-75-51-75s-53 32-53 75 10 74 51 75" id="aA"/><path d="M24 0v-261h32V0H24" id="aB"/><path d="M100-194c63 0 86 42 84 106H49c0 40 14 67 53 68 26 1 43-12 49-29l28 8c-11 28-37 45-77 45C44 4 14-33 15-96c1-61 26-98 85-98zm52 81c6-60-76-77-97-28-3 7-6 17-6 28h103" id="aC"/><path d="M96-169c-40 0-48 33-48 73s9 75 48 75c24 0 41-14 43-38l32 2c-6 37-31 61-74 61-59 0-76-41-82-99-10-93 101-131 147-64 4 7 5 14 7 22l-32 3c-4-21-16-35-41-35" id="aD"/><path d="M24-231v-30h32v30H24zM24 0v-190h32V0H24" id="aE"/><path d="M117-194c89-4 53 116 60 194h-32v-121c0-31-8-49-39-48C34-167 62-67 57 0H25l-1-190h30c1 10-1 24 2 32 11-22 29-35 61-36" id="aF"/><g id="b"><use transform="matrix(0.07222222222222222,0,0,0.07222222222222222,0,0)" xlink:href="#az"/><use transform="matrix(0.07222222222222222,0,0,0.07222222222222222,18.705555555555552,0)" xlink:href="#aA"/><use transform="matrix(0.07222222222222222,0,0,0.07222222222222222,33.14999999999999,0)" xlink:href="#aB"/><use transform="matrix(0.07222222222222222,0,0,0.07222222222222222,38.85555555555555,0)" xlink:href="#aB"/><use transform="matrix(0.07222222222222222,0,0,0.07222222222222222,44.56111111111111,0)" xlink:href="#aC"/><use transform="matrix(0.07222222222222222,0,0,0.07222222222222222,59.00555555555554,0)" xlink:href="#aD"/><use transform="matrix(0.07222222222222222,0,0,0.07222222222222222,72.00555555555555,0)" xlink:href="#ay"/><use transform="matrix(0.07222222222222222,0,0,0.07222222222222222,79.22777777777776,0)" xlink:href="#aE"/><use transform="matrix(0.07222222222222222,0,0,0.07222222222222222,84.93333333333331,0)" xlink:href="#aA"/><use transform="matrix(0.07222222222222222,0,0,0.07222222222222222,99.37777777777775,0)" xlink:href="#aF"/></g><path d="M30 0v-248h33v221h125V0H30" id="aG"/><path d="M179-190L93 31C79 59 56 82 12 73V49c39 6 53-20 64-50L1-190h34L92-34l54-156h33" id="aH"/><path d="M114-163C36-179 61-72 57 0H25l-1-190h30c1 12-1 29 2 39 6-27 23-49 58-41v29" id="aI"/><g id="c"><use transform="matrix(0.07222222222222222,0,0,0.07222222222222222,0,0)" xlink:href="#aG"/><use transform="matrix(0.07222222222222222,0,0,0.07222222222222222,14.444444444444443,0)" xlink:href="#ax"/><use transform="matrix(0.07222222222222222,0,0,0.07222222222222222,28.888888888888886,0)" xlink:href="#aH"/><use transform="matrix(0.07222222222222222,0,0,0.07222222222222222,41.888888888888886,0)" xlink:href="#aC"/><use transform="matrix(0.07222222222222222,0,0,0.07222222222222222,56.33333333333333,0)" xlink:href="#aI"/></g><path d="M266 0h-40l-56-210L115 0H75L2-248h35L96-30l15-64 43-154h32l59 218 59-218h35" id="aJ"/><path d="M115-194c53 0 69 39 70 98 0 66-23 100-70 100C84 3 66-7 56-30L54 0H23l1-261h32v101c10-23 28-34 59-34zm-8 174c40 0 45-34 45-75 0-40-5-75-45-74-42 0-51 32-51 76 0 43 10 73 51 73" id="aK"/><path d="M135-143c-3-34-86-38-87 0 15 53 115 12 119 90S17 21 10-45l28-5c4 36 97 45 98 0-10-56-113-15-118-90-4-57 82-63 122-42 12 7 21 19 24 35" id="aL"/><g id="d"><use transform="matrix(0.07222222222222222,0,0,0.07222222222222222,0,0)" xlink:href="#aJ"/><use transform="matrix(0.07222222222222222,0,0,0.07222222222222222,23.977777777777774,0)" xlink:href="#aC"/><use transform="matrix(0.07222222222222222,0,0,0.07222222222222222,38.42222222222222,0)" xlink:href="#aK"/><use transform="matrix(0.07222222222222222,0,0,0.07222222222222222,52.86666666666666,0)" xlink:href="#aL"/><use transform="matrix(0.07222222222222222,0,0,0.07222222222222222,65.86666666666666,0)" xlink:href="#aE"/><use transform="matrix(0.07222222222222222,0,0,0.07222222222222222,71.57222222222221,0)" xlink:href="#ay"/><use transform="matrix(0.07222222222222222,0,0,0.07222222222222222,78.79444444444442,0)" xlink:href="#aC"/><use transform="matrix(0.07222222222222222,0,0,0.07222222222222222,93.23888888888887,0)" xlink:href="#aL"/></g><g id="e"><use transform="matrix(0.07222222222222222,0,0,0.07222222222222222,0,0)" xlink:href="#ay"/><use transform="matrix(0.07222222222222222,0,0,0.07222222222222222,7.222222222222221,0)" xlink:href="#aA"/></g><path d="M115-194c55 1 70 41 70 98S169 2 115 4C84 4 66-9 55-30l1 105H24l-1-265h31l2 30c10-21 28-34 59-34zm-8 174c40 0 45-34 45-75s-6-73-45-74c-42 0-51 32-51 76 0 43 10 73 51 73" id="aM"/><g id="f"><use transform="matrix(0.07222222222222222,0,0,0.07222222222222222,0,0)" xlink:href="#aL"/><use transform="matrix(0.07222222222222222,0,0,0.07222222222222222,12.999999999999998,0)" xlink:href="#aD"/><use transform="matrix(0.07222222222222222,0,0,0.07222222222222222,25.999999999999996,0)" xlink:href="#aI"/><use transform="matrix(0.07222222222222222,0,0,0.07222222222222222,34.59444444444444,0)" xlink:href="#ax"/><use transform="matrix(0.07222222222222222,0,0,0.07222222222222222,49.038888888888884,0)" xlink:href="#aM"/></g><g id="g"><use transform="matrix(0.07222222222222222,0,0,0.07222222222222222,0,0)" xlink:href="#aw"/><use transform="matrix(0.07222222222222222,0,0,0.07222222222222222,18.705555555555552,0)" xlink:href="#ax"/><use transform="matrix(0.07222222222222222,0,0,0.07222222222222222,33.14999999999999,0)" xlink:href="#ay"/><use transform="matrix(0.07222222222222222,0,0,0.07222222222222222,40.37222222222221,0)" xlink:href="#ax"/></g><path d="M30-248c87 1 191-15 191 75 0 78-77 80-158 76V0H30v-248zm33 125c57 0 124 11 124-50 0-59-68-47-124-48v98" id="aN"/><path d="M177-190C167-65 218 103 67 71c-23-6-38-20-44-43l32-5c15 47 100 32 89-28v-30C133-14 115 1 83 1 29 1 15-40 15-95c0-56 16-97 71-98 29-1 48 16 59 35 1-10 0-23 2-32h30zM94-22c36 0 50-32 50-73 0-42-14-75-50-75-39 0-46 34-46 75s6 73 46 73" id="aO"/><g id="h"><use transform="matrix(0.07222222222222222,0,0,0.07222222222222222,0,0)" xlink:href="#aN"/><use transform="matrix(0.07222222222222222,0,0,0.07222222222222222,17.333333333333332,0)" xlink:href="#aI"/><use transform="matrix(0.07222222222222222,0,0,0.07222222222222222,25.927777777777774,0)" xlink:href="#aA"/><use transform="matrix(0.07222222222222222,0,0,0.07222222222222222,40.37222222222222,0)" xlink:href="#aD"/><use transform="matrix(0.07222222222222222,0,0,0.07222222222222222,53.37222222222222,0)" xlink:href="#aC"/><use transform="matrix(0.07222222222222222,0,0,0.07222222222222222,67.81666666666666,0)" xlink:href="#aL"/><use transform="matrix(0.07222222222222222,0,0,0.07222222222222222,80.81666666666666,0)" xlink:href="#aL"/><use transform="matrix(0.07222222222222222,0,0,0.07222222222222222,93.81666666666666,0)" xlink:href="#aE"/><use transform="matrix(0.07222222222222222,0,0,0.07222222222222222,99.52222222222221,0)" xlink:href="#aF"/><use transform="matrix(0.07222222222222222,0,0,0.07222222222222222,113.96666666666665,0)" xlink:href="#aO"/></g><g id="i"><use transform="matrix(0.07222222222222222,0,0,0.07222222222222222,0,0)" xlink:href="#aG"/><use transform="matrix(0.07222222222222222,0,0,0.07222222222222222,14.444444444444443,0)" xlink:href="#ax"/><use transform="matrix(0.07222222222222222,0,0,0.07222222222222222,28.888888888888886,0)" xlink:href="#aH"/><use transform="matrix(0.07222222222222222,0,0,0.07222222222222222,41.888888888888886,0)" xlink:href="#aC"/><use transform="matrix(0.07222222222222222,0,0,0.07222222222222222,56.33333333333333,0)" xlink:href="#aI"/></g><path d="M190 0L58-211 59 0H30v-248h39L202-35l-2-213h31V0h-41" id="aP"/><path d="M206 0h-36l-40-164L89 0H53L-1-190h32L70-26l43-164h34l41 164 42-164h31" id="aQ"/><path d="M143 0L79-87 56-68V0H24v-261h32v163l83-92h37l-77 82L181 0h-38" id="aR"/><g id="j"><use transform="matrix(0.06172839506172839,0,0,0.06172839506172839,0,0)" xlink:href="#aP"/><use transform="matrix(0.06172839506172839,0,0,0.06172839506172839,15.987654320987653,0)" xlink:href="#aC"/><use transform="matrix(0.06172839506172839,0,0,0.06172839506172839,28.333333333333332,0)" xlink:href="#ay"/><use transform="matrix(0.06172839506172839,0,0,0.06172839506172839,34.50617283950617,0)" xlink:href="#aQ"/><use transform="matrix(0.06172839506172839,0,0,0.06172839506172839,50.49382716049382,0)" xlink:href="#aA"/><use transform="matrix(0.06172839506172839,0,0,0.06172839506172839,62.8395061728395,0)" xlink:href="#aI"/><use transform="matrix(0.06172839506172839,0,0,0.06172839506172839,70.18518518518518,0)" xlink:href="#aR"/></g><path d="M185-189c-5-48-123-54-124 2 14 75 158 14 163 119 3 78-121 87-175 55-17-10-28-26-33-46l33-7c5 56 141 63 141-1 0-78-155-14-162-118-5-82 145-84 179-34 5 7 8 16 11 25" id="aS"/><path d="M84 4C-5 8 30-112 23-190h32v120c0 31 7 50 39 49 72-2 45-101 50-169h31l1 190h-30c-1-10 1-25-2-33-11 22-28 36-60 37" id="aT"/><g id="k"><use transform="matrix(0.06172839506172839,0,0,0.06172839506172839,0,0)" xlink:href="#aS"/><use transform="matrix(0.06172839506172839,0,0,0.06172839506172839,14.814814814814813,0)" xlink:href="#aC"/><use transform="matrix(0.06172839506172839,0,0,0.06172839506172839,27.160493827160494,0)" xlink:href="#aD"/><use transform="matrix(0.06172839506172839,0,0,0.06172839506172839,38.27160493827161,0)" xlink:href="#aT"/><use transform="matrix(0.06172839506172839,0,0,0.06172839506172839,50.617283950617285,0)" xlink:href="#aI"/><use transform="matrix(0.06172839506172839,0,0,0.06172839506172839,57.96296296296296,0)" xlink:href="#aE"/><use transform="matrix(0.06172839506172839,0,0,0.06172839506172839,62.839506172839506,0)" xlink:href="#ay"/><use transform="matrix(0.06172839506172839,0,0,0.06172839506172839,69.01234567901234,0)" xlink:href="#aH"/></g><path d="M143 4C61 4 22-44 18-125c-5-107 100-154 193-111 17 8 29 25 37 43l-32 9c-13-25-37-40-76-40-61 0-88 39-88 99 0 61 29 100 91 101 35 0 62-11 79-27v-45h-74v-28h105v86C228-13 192 4 143 4" id="aU"/><g id="l"><use transform="matrix(0.06172839506172839,0,0,0.06172839506172839,0,0)" xlink:href="#aU"/><use transform="matrix(0.06172839506172839,0,0,0.06172839506172839,17.28395061728395,0)" xlink:href="#aI"/><use transform="matrix(0.06172839506172839,0,0,0.06172839506172839,24.629629629629626,0)" xlink:href="#aA"/><use transform="matrix(0.06172839506172839,0,0,0.06172839506172839,36.9753086419753,0)" xlink:href="#aT"/><use transform="matrix(0.06172839506172839,0,0,0.06172839506172839,49.32098765432098,0)" xlink:href="#aM"/></g><path d="M87 75C49 33 22-17 22-94c0-76 28-126 65-167h31c-38 41-64 92-64 168S80 34 118 75H87" id="aV"/><path d="M126-127c33 6 58 20 58 59 0 88-139 92-164 29-3-8-5-16-6-25l32-3c6 27 21 44 54 44 32 0 52-15 52-46 0-38-36-46-79-43v-28c39 1 72-4 72-42 0-27-17-43-46-43-28 0-47 15-49 41l-32-3c6-42 35-63 81-64 48-1 79 21 79 65 0 36-21 52-52 59" id="aW"/><g id="m"><use transform="matrix(0.06172839506172839,0,0,0.06172839506172839,0,0)" xlink:href="#aV"/><use transform="matrix(0.06172839506172839,0,0,0.06172839506172839,7.345679012345679,0)" xlink:href="#aS"/><use transform="matrix(0.06172839506172839,0,0,0.06172839506172839,22.160493827160494,0)" xlink:href="#aW"/></g><path d="M85-194c31 0 48 13 60 33l-1-100h32l1 261h-30c-2-10 0-23-3-31C134-8 116 4 85 4 32 4 16-35 15-94c0-66 23-100 70-100zm9 24c-40 0-46 34-46 75 0 40 6 74 45 74 42 0 51-32 51-76 0-42-9-74-50-73" id="aX"/><path d="M33-261c38 41 65 92 65 168S71 34 33 75H2C39 34 66-17 66-93S39-220 2-261h31" id="aY"/><g id="n"><use transform="matrix(0.06172839506172839,0,0,0.06172839506172839,0,0)" xlink:href="#aC"/><use transform="matrix(0.06172839506172839,0,0,0.06172839506172839,12.345679012345679,0)" xlink:href="#aF"/><use transform="matrix(0.06172839506172839,0,0,0.06172839506172839,24.691358024691358,0)" xlink:href="#aX"/><use transform="matrix(0.06172839506172839,0,0,0.06172839506172839,37.03703703703704,0)" xlink:href="#aM"/><use transform="matrix(0.06172839506172839,0,0,0.06172839506172839,49.382716049382715,0)" xlink:href="#aA"/><use transform="matrix(0.06172839506172839,0,0,0.06172839506172839,61.72839506172839,0)" xlink:href="#aE"/><use transform="matrix(0.06172839506172839,0,0,0.06172839506172839,66.60493827160494,0)" xlink:href="#aF"/><use transform="matrix(0.06172839506172839,0,0,0.06172839506172839,78.95061728395062,0)" xlink:href="#ay"/><use transform="matrix(0.06172839506172839,0,0,0.06172839506172839,85.12345679012346,0)" xlink:href="#aY"/></g><path fill="#dd3522" d="M240 0l2-218c-23 76-54 145-80 218h-23L58-218 59 0H30v-248h44l77 211c21-75 51-140 76-211h43V0h-30" id="aZ"/><path fill="#dd3522" d="M30 0v-248h33v221h125V0H30" id="ba"/><g id="o"><use transform="matrix(0.05,0,0,0.05,0,0)" xlink:href="#aZ"/><use transform="matrix(0.05,0,0,0.05,14.950000000000001,0)" xlink:href="#ba"/></g><path fill="#dd3522" d="M30-248c87 1 191-15 191 75 0 78-77 80-158 76V0H30v-248zm33 125c57 0 124 11 124-50 0-59-68-47-124-48v98" id="bb"/><path fill="#dd3522" d="M114-163C36-179 61-72 57 0H25l-1-190h30c1 12-1 29 2 39 6-27 23-49 58-41v29" id="bc"/><path fill="#dd3522" d="M100-194c62-1 85 37 85 99 1 63-27 99-86 99S16-35 15-95c0-66 28-99 85-99zM99-20c44 1 53-31 53-75 0-43-8-75-51-75s-53 32-53 75 10 74 51 75" id="bd"/><path fill="#dd3522" d="M96-169c-40 0-48 33-48 73s9 75 48 75c24 0 41-14 43-38l32 2c-6 37-31 61-74 61-59 0-76-41-82-99-10-93 101-131 147-64 4 7 5 14 7 22l-32 3c-4-21-16-35-41-35" id="be"/><path fill="#dd3522" d="M100-194c63 0 86 42 84 106H49c0 40 14 67 53 68 26 1 43-12 49-29l28 8c-11 28-37 45-77 45C44 4 14-33 15-96c1-61 26-98 85-98zm52 81c6-60-76-77-97-28-3 7-6 17-6 28h103" id="bf"/><path fill="#dd3522" d="M135-143c-3-34-86-38-87 0 15 53 115 12 119 90S17 21 10-45l28-5c4 36 97 45 98 0-10-56-113-15-118-90-4-57 82-63 122-42 12 7 21 19 24 35" id="bg"/><path fill="#dd3522" d="M24-231v-30h32v30H24zM24 0v-190h32V0H24" id="bh"/><path fill="#dd3522" d="M117-194c89-4 53 116 60 194h-32v-121c0-31-8-49-39-48C34-167 62-67 57 0H25l-1-190h30c1 10-1 24 2 32 11-22 29-35 61-36" id="bi"/><path fill="#dd3522" d="M177-190C167-65 218 103 67 71c-23-6-38-20-44-43l32-5c15 47 100 32 89-28v-30C133-14 115 1 83 1 29 1 15-40 15-95c0-56 16-97 71-98 29-1 48 16 59 35 1-10 0-23 2-32h30zM94-22c36 0 50-32 50-73 0-42-14-75-50-75-39 0-46 34-46 75s6 73 46 73" id="bj"/><g id="p"><use transform="matrix(0.05,0,0,0.05,0,0)" xlink:href="#bb"/><use transform="matrix(0.05,0,0,0.05,12,0)" xlink:href="#bc"/><use transform="matrix(0.05,0,0,0.05,17.95,0)" xlink:href="#bd"/><use transform="matrix(0.05,0,0,0.05,27.950000000000003,0)" xlink:href="#be"/><use transform="matrix(0.05,0,0,0.05,36.95,0)" xlink:href="#bf"/><use transform="matrix(0.05,0,0,0.05,46.95,0)" xlink:href="#bg"/><use transform="matrix(0.05,0,0,0.05,55.95,0)" xlink:href="#bg"/><use transform="matrix(0.05,0,0,0.05,64.95,0)" xlink:href="#bh"/><use transform="matrix(0.05,0,0,0.05,68.9,0)" xlink:href="#bi"/><use transform="matrix(0.05,0,0,0.05,78.9,0)" xlink:href="#bj"/></g><g id="q"><use transform="matrix(0.07222222222222222,0,0,0.07222222222222222,0,0)" xlink:href="#aS"/><use transform="matrix(0.07222222222222222,0,0,0.07222222222222222,17.333333333333332,0)" xlink:href="#ay"/><use transform="matrix(0.07222222222222222,0,0,0.07222222222222222,24.555555555555554,0)" xlink:href="#aA"/><use transform="matrix(0.07222222222222222,0,0,0.07222222222222222,38.99999999999999,0)" xlink:href="#aI"/><use transform="matrix(0.07222222222222222,0,0,0.07222222222222222,47.59444444444444,0)" xlink:href="#ax"/><use transform="matrix(0.07222222222222222,0,0,0.07222222222222222,62.038888888888884,0)" xlink:href="#aO"/><use transform="matrix(0.07222222222222222,0,0,0.07222222222222222,76.48333333333332,0)" xlink:href="#aC"/></g><g id="r"><use transform="matrix(0.07222222222222222,0,0,0.07222222222222222,0,0)" xlink:href="#aN"/><use transform="matrix(0.07222222222222222,0,0,0.07222222222222222,17.333333333333332,0)" xlink:href="#aI"/><use transform="matrix(0.07222222222222222,0,0,0.07222222222222222,25.927777777777774,0)" xlink:href="#aC"/><use transform="matrix(0.07222222222222222,0,0,0.07222222222222222,40.37222222222222,0)" xlink:href="#aL"/><use transform="matrix(0.07222222222222222,0,0,0.07222222222222222,53.37222222222222,0)" xlink:href="#aC"/><use transform="matrix(0.07222222222222222,0,0,0.07222222222222222,67.81666666666666,0)" xlink:href="#aF"/><use transform="matrix(0.07222222222222222,0,0,0.07222222222222222,82.2611111111111,0)" xlink:href="#ay"/><use transform="matrix(0.07222222222222222,0,0,0.07222222222222222,89.48333333333332,0)" xlink:href="#ax"/><use transform="matrix(0.07222222222222222,0,0,0.07222222222222222,103.92777777777776,0)" xlink:href="#ay"/><use transform="matrix(0.07222222222222222,0,0,0.07222222222222222,111.14999999999998,0)" xlink:href="#aE"/><use transform="matrix(0.07222222222222222,0,0,0.07222222222222222,116.85555555555553,0)" xlink:href="#aA"/><use transform="matrix(0.07222222222222222,0,0,0.07222222222222222,131.29999999999995,0)" xlink:href="#aF"/></g><path fill="#dd3522" d="M232-93c-1 65-40 97-104 97C67 4 28-28 28-90v-158h33c8 89-33 224 67 224 102 0 64-133 71-224h33v155" id="bk"/><path fill="#dd3522" d="M33 0v-248h34V0H33" id="bl"/><g id="s"><use transform="matrix(0.07407407407407408,0,0,0.07407407407407408,0,0)" xlink:href="#bk"/><use transform="matrix(0.07407407407407408,0,0,0.07407407407407408,19.185185185185187,0)" xlink:href="#bl"/></g><path fill="#dd3522" d="M63-220v92h138v28H63V0H30v-248h175v28H63" id="bm"/><path fill="#dd3522" d="M141-36C126-15 110 5 73 4 37 3 15-17 15-53c-1-64 63-63 125-63 3-35-9-54-41-54-24 1-41 7-42 31l-33-3c5-37 33-52 76-52 45 0 72 20 72 64v82c-1 20 7 32 28 27v20c-31 9-61-2-59-35zM48-53c0 20 12 33 32 33 41-3 63-29 60-74-43 2-92-5-92 41" id="bn"/><path fill="#dd3522" d="M59-47c-2 24 18 29 38 22v24C64 9 27 4 27-40v-127H5v-23h24l9-43h21v43h35v23H59v120" id="bo"/><path fill="#dd3522" d="M84 4C-5 8 30-112 23-190h32v120c0 31 7 50 39 49 72-2 45-101 50-169h31l1 190h-30c-1-10 1-25-2-33-11 22-28 36-60 37" id="bp"/><g id="t"><use transform="matrix(0.07407407407407408,0,0,0.07407407407407408,0,0)" xlink:href="#bm"/><use transform="matrix(0.07407407407407408,0,0,0.07407407407407408,16.222222222222225,0)" xlink:href="#bf"/><use transform="matrix(0.07407407407407408,0,0,0.07407407407407408,31.03703703703704,0)" xlink:href="#bn"/><use transform="matrix(0.07407407407407408,0,0,0.07407407407407408,45.851851851851855,0)" xlink:href="#bo"/><use transform="matrix(0.07407407407407408,0,0,0.07407407407407408,53.25925925925927,0)" xlink:href="#bp"/><use transform="matrix(0.07407407407407408,0,0,0.07407407407407408,68.07407407407408,0)" xlink:href="#bc"/><use transform="matrix(0.07407407407407408,0,0,0.07407407407407408,76.88888888888889,0)" xlink:href="#bf"/><use transform="matrix(0.07407407407407408,0,0,0.07407407407407408,91.7037037037037,0)" xlink:href="#bg"/></g><linearGradient gradientUnits="userSpaceOnUse" id="u" x1="400" y1="480" x2="480" y2="400"><stop offset="0%" stop-color="#b0084d"/><stop offset="100%" stop-color="#ff4f8b"/></linearGradient><path d="M205 0l-28-72H64L36 0H1l101-248h38L239 0h-34zm-38-99l-47-123c-12 45-31 82-46 123h93" id="bq"/><path d="M210-169c-67 3-38 105-44 169h-31v-121c0-29-5-50-35-48C34-165 62-65 56 0H25l-1-190h30c1 10-1 24 2 32 10-44 99-50 107 0 11-21 27-35 58-36 85-2 47 119 55 194h-31v-121c0-29-5-49-35-48" id="br"/><path d="M9 0v-24l116-142H16v-24h144v24L44-24h123V0H9" id="bs"/><g id="v"><use transform="matrix(0.05,0,0,0.05,0,0)" xlink:href="#bq"/><use transform="matrix(0.05,0,0,0.05,12,0)" xlink:href="#br"/><use transform="matrix(0.05,0,0,0.05,26.950000000000003,0)" xlink:href="#ax"/><use transform="matrix(0.05,0,0,0.05,36.95,0)" xlink:href="#bs"/><use transform="matrix(0.05,0,0,0.05,45.95,0)" xlink:href="#aA"/><use transform="matrix(0.05,0,0,0.05,55.95,0)" xlink:href="#aF"/></g><path d="M30 0v-248h187v28H63v79h144v27H63v87h162V0H30" id="bt"/><path d="M108 0H70L1-190h34L89-25l56-165h34" id="bu"/><path d="M160-131c35 5 61 23 61 61C221 17 115-2 30 0v-248c76 3 177-17 177 60 0 33-19 50-47 57zm-97-11c50-1 110 9 110-42 0-47-63-36-110-37v79zm0 115c55-2 124 14 124-45 0-56-70-42-124-44v89" id="bv"/><g id="w"><use transform="matrix(0.05,0,0,0.05,0,0)" xlink:href="#bt"/><use transform="matrix(0.05,0,0,0.05,12,0)" xlink:href="#bu"/><use transform="matrix(0.05,0,0,0.05,21,0)" xlink:href="#aC"/><use transform="matrix(0.05,0,0,0.05,31,0)" xlink:href="#aF"/><use transform="matrix(0.05,0,0,0.05,41,0)" xlink:href="#ay"/><use transform="matrix(0.05,0,0,0.05,46,0)" xlink:href="#bv"/><use transform="matrix(0.05,0,0,0.05,58,0)" xlink:href="#aI"/><use transform="matrix(0.05,0,0,0.05,63.95,0)" xlink:href="#aE"/><use transform="matrix(0.05,0,0,0.05,67.9,0)" xlink:href="#aX"/><use transform="matrix(0.05,0,0,0.05,77.9,0)" xlink:href="#aO"/><use transform="matrix(0.05,0,0,0.05,87.9,0)" xlink:href="#aC"/></g><g id="x"><use transform="matrix(0.05555555555555555,0,0,0.05555555555555555,0,0)" xlink:href="#aG"/><use transform="matrix(0.05555555555555555,0,0,0.05555555555555555,11.11111111111111,0)" xlink:href="#ax"/><use transform="matrix(0.05555555555555555,0,0,0.05555555555555555,22.22222222222222,0)" xlink:href="#br"/><use transform="matrix(0.05555555555555555,0,0,0.05555555555555555,38.83333333333333,0)" xlink:href="#aK"/><use transform="matrix(0.05555555555555555,0,0,0.05555555555555555,49.94444444444444,0)" xlink:href="#aX"/><use transform="matrix(0.05555555555555555,0,0,0.05555555555555555,61.05555555555555,0)" xlink:href="#ax"/></g><path d="M63-220v92h138v28H63V0H30v-248h175v28H63" id="bw"/><g id="y"><use transform="matrix(0.05555555555555555,0,0,0.05555555555555555,0,0)" xlink:href="#bw"/><use transform="matrix(0.05555555555555555,0,0,0.05555555555555555,12.166666666666666,0)" xlink:href="#aT"/><use transform="matrix(0.05555555555555555,0,0,0.05555555555555555,23.27777777777778,0)" xlink:href="#aF"/><use transform="matrix(0.05555555555555555,0,0,0.05555555555555555,34.388888888888886,0)" xlink:href="#aD"/><use transform="matrix(0.05555555555555555,0,0,0.05555555555555555,44.388888888888886,0)" xlink:href="#ay"/><use transform="matrix(0.05555555555555555,0,0,0.05555555555555555,49.94444444444444,0)" xlink:href="#aE"/><use transform="matrix(0.05555555555555555,0,0,0.05555555555555555,54.33333333333333,0)" xlink:href="#aA"/><use transform="matrix(0.05555555555555555,0,0,0.05555555555555555,65.44444444444444,0)" xlink:href="#aF"/></g><g id="z"><use transform="matrix(0.05555555555555555,0,0,0.05555555555555555,0,0)" xlink:href="#aV"/><use transform="matrix(0.05555555555555555,0,0,0.05555555555555555,6.611111111111111,0)" xlink:href="#aP"/><use transform="matrix(0.05555555555555555,0,0,0.05555555555555555,21,0)" xlink:href="#aC"/><use transform="matrix(0.05555555555555555,0,0,0.05555555555555555,32.111111111111114,0)" xlink:href="#aQ"/><use transform="matrix(0.05555555555555555,0,0,0.05555555555555555,46.5,0)" xlink:href="#aL"/></g><g id="A"><use transform="matrix(0.05555555555555555,0,0,0.05555555555555555,0,0)" xlink:href="#aS"/><use transform="matrix(0.05555555555555555,0,0,0.05555555555555555,13.333333333333332,0)" xlink:href="#aD"/><use transform="matrix(0.05555555555555555,0,0,0.05555555555555555,23.333333333333332,0)" xlink:href="#aI"/><use transform="matrix(0.05555555555555555,0,0,0.05555555555555555,29.944444444444443,0)" xlink:href="#ax"/><use transform="matrix(0.05555555555555555,0,0,0.05555555555555555,41.05555555555556,0)" xlink:href="#aM"/><use transform="matrix(0.05555555555555555,0,0,0.05555555555555555,52.16666666666667,0)" xlink:href="#aM"/><use transform="matrix(0.05555555555555555,0,0,0.05555555555555555,63.277777777777786,0)" xlink:href="#aC"/><use transform="matrix(0.05555555555555555,0,0,0.05555555555555555,74.3888888888889,0)" xlink:href="#aI"/><use transform="matrix(0.05555555555555555,0,0,0.05555555555555555,81.00000000000001,0)" xlink:href="#aY"/></g><path fill="#333" d="M169-182c-1-43-94-46-97-3 18 66 151 10 154 114 3 95-165 93-204 36-6-8-10-19-12-30l50-8c3 46 112 56 116 5-17-69-150-10-154-114-4-87 153-88 188-35 5 8 8 18 10 28" id="bx"/><path fill="#333" d="M190-63c-7 42-38 67-86 67-59 0-84-38-90-98-12-110 154-137 174-36l-49 2c-2-19-15-32-35-32-30 0-35 28-38 64-6 74 65 87 74 30" id="by"/><path fill="#333" d="M135-150c-39-12-60 13-60 57V0H25l-1-190h47c2 13-1 29 3 40 6-28 27-53 61-41v41" id="bz"/><path fill="#333" d="M133-34C117-15 103 5 69 4 32 3 11-16 11-54c-1-60 55-63 116-61 1-26-3-47-28-47-18 1-26 9-28 27l-52-2c7-38 36-58 82-57s74 22 75 68l1 82c-1 14 12 18 25 15v27c-30 8-71 5-69-32zm-48 3c29 0 43-24 42-57-32 0-66-3-65 30 0 17 8 27 23 27" id="bA"/><path fill="#333" d="M135-194c53 0 70 44 70 98 0 56-19 98-73 100-31 1-45-17-59-34 3 33 2 69 2 105H25l-1-265h48c2 10 0 23 3 31 11-24 29-35 60-35zM114-30c33 0 39-31 40-66 0-38-9-64-40-64-56 0-55 130 0 130" id="bB"/><path fill="#333" d="M185-48c-13 30-37 53-82 52C43 2 14-33 14-96s30-98 90-98c62 0 83 45 84 108H66c0 31 8 55 39 56 18 0 30-7 34-22zm-45-69c5-46-57-63-70-21-2 6-4 13-4 21h74" id="bC"/><path fill="#333" d="M137-138c1-29-70-34-71-4 15 46 118 7 119 86 1 83-164 76-172 9l43-7c4 19 20 25 44 25 33 8 57-30 24-41C81-84 22-81 20-136c-2-80 154-74 161-7" id="bD"/><g id="B"><use transform="matrix(0.04938271604938272,0,0,0.04938271604938272,0,0)" xlink:href="#bx"/><use transform="matrix(0.04938271604938272,0,0,0.04938271604938272,11.851851851851853,0)" xlink:href="#by"/><use transform="matrix(0.04938271604938272,0,0,0.04938271604938272,21.7283950617284,0)" xlink:href="#bz"/><use transform="matrix(0.04938271604938272,0,0,0.04938271604938272,28.64197530864198,0)" xlink:href="#bA"/><use transform="matrix(0.04938271604938272,0,0,0.04938271604938272,38.518518518518526,0)" xlink:href="#bB"/><use transform="matrix(0.04938271604938272,0,0,0.04938271604938272,49.33333333333334,0)" xlink:href="#bC"/><use transform="matrix(0.04938271604938272,0,0,0.04938271604938272,59.209876543209894,0)" xlink:href="#bD"/></g><path d="M62-168c30 0 50 19 50 48S92-70 62-70c-29 0-48-21-48-50s20-48 48-48" id="bE"/><use transform="matrix(0.07222222222222222,0,0,0.07222222222222222,0,0)" xlink:href="#bE" id="C"/><path d="M110-160c48 1 74 30 74 79 0 53-28 85-80 85-65 0-83-55-86-122-5-90 50-162 133-122 14 7 22 21 27 39l-31 6c-5-40-67-38-82-6-9 19-15 44-15 74 11-20 30-34 60-33zm-7 138c34 0 49-23 49-58s-16-56-50-56c-29 0-50 16-49 49 1 36 15 65 50 65" id="bF"/><path d="M101-251c68 0 85 55 85 127S166 4 100 4C33 4 14-52 14-124c0-73 17-127 87-127zm-1 229c47 0 54-49 54-102s-4-102-53-102c-51 0-55 48-55 102 0 53 5 102 54 102" id="bG"/><g id="D"><use transform="matrix(0.07222222222222222,0,0,0.07222222222222222,0,0)" xlink:href="#aG"/><use transform="matrix(0.07222222222222222,0,0,0.07222222222222222,14.444444444444443,0)" xlink:href="#aC"/><use transform="matrix(0.07222222222222222,0,0,0.07222222222222222,28.888888888888886,0)" xlink:href="#aW"/><use transform="matrix(0.07222222222222222,0,0,0.07222222222222222,43.33333333333333,0)" xlink:href="#bF"/><use transform="matrix(0.07222222222222222,0,0,0.07222222222222222,57.77777777777777,0)" xlink:href="#bG"/></g><path d="M197 0v-115H63V0H30v-248h33v105h134v-105h34V0h-34" id="bH"/><g id="E"><use transform="matrix(0.07222222222222222,0,0,0.07222222222222222,0,0)" xlink:href="#bH"/><use transform="matrix(0.07222222222222222,0,0,0.07222222222222222,18.705555555555552,0)" xlink:href="#aC"/><use transform="matrix(0.07222222222222222,0,0,0.07222222222222222,33.14999999999999,0)" xlink:href="#aL"/><use transform="matrix(0.07222222222222222,0,0,0.07222222222222222,46.149999999999984,0)" xlink:href="#aM"/><use transform="matrix(0.07222222222222222,0,0,0.07222222222222222,60.59444444444443,0)" xlink:href="#aI"/><use transform="matrix(0.07222222222222222,0,0,0.07222222222222222,69.18888888888888,0)" xlink:href="#aC"/><use transform="matrix(0.07222222222222222,0,0,0.07222222222222222,83.63333333333333,0)" xlink:href="#aL"/><use transform="matrix(0.07222222222222222,0,0,0.07222222222222222,96.63333333333333,0)" xlink:href="#aL"/></g><path d="M47-170H22l-4-78h33" id="bI"/><g id="F"><use transform="matrix(0.07222222222222222,0,0,0.07222222222222222,0,0)" xlink:href="#aB"/><use transform="matrix(0.07222222222222222,0,0,0.07222222222222222,5.705555555555555,0)" xlink:href="#bI"/><use transform="matrix(0.07222222222222222,0,0,0.07222222222222222,10.616666666666665,0)" xlink:href="#aA"/><use transform="matrix(0.07222222222222222,0,0,0.07222222222222222,25.06111111111111,0)" xlink:href="#aM"/><use transform="matrix(0.07222222222222222,0,0,0.07222222222222222,39.50555555555555,0)" xlink:href="#aE"/><use transform="matrix(0.07222222222222222,0,0,0.07222222222222222,45.21111111111111,0)" xlink:href="#aF"/><use transform="matrix(0.07222222222222222,0,0,0.07222222222222222,59.65555555555555,0)" xlink:href="#aE"/><use transform="matrix(0.07222222222222222,0,0,0.07222222222222222,65.3611111111111,0)" xlink:href="#aA"/><use transform="matrix(0.07222222222222222,0,0,0.07222222222222222,79.80555555555554,0)" xlink:href="#aF"/></g><path fill="#333" d="M136-208V0H84v-208H4v-40h212v40h-80" id="bJ"/><path fill="#333" d="M25-224v-37h50v37H25zM25 0v-190h50V0H25" id="bK"/><path fill="#333" d="M195-6C206 82 75 100 31 46c-4-6-6-13-8-21l49-6c3 16 16 24 34 25 40 0 42-37 40-79-11 22-30 35-61 35-53 0-70-43-70-97 0-56 18-96 73-97 30 0 46 14 59 34l2-30h47zm-90-29c32 0 41-27 41-63 0-35-9-62-40-62-32 0-39 29-40 63 0 36 9 62 39 62" id="bL"/><g id="G"><use transform="matrix(0.04938271604938272,0,0,0.04938271604938272,0,0)" xlink:href="#bJ"/><use transform="matrix(0.04938271604938272,0,0,0.04938271604938272,9.82716049382716,0)" xlink:href="#bz"/><use transform="matrix(0.04938271604938272,0,0,0.04938271604938272,16.74074074074074,0)" xlink:href="#bK"/><use transform="matrix(0.04938271604938272,0,0,0.04938271604938272,21.679012345679013,0)" xlink:href="#bL"/><use transform="matrix(0.04938271604938272,0,0,0.04938271604938272,32.49382716049383,0)" xlink:href="#bL"/><use transform="matrix(0.04938271604938272,0,0,0.04938271604938272,43.308641975308646,0)" xlink:href="#bC"/><use transform="matrix(0.04938271604938272,0,0,0.04938271604938272,53.18518518518519,0)" xlink:href="#bz"/><use transform="matrix(0.04938271604938272,0,0,0.04938271604938272,60.09876543209877,0)" xlink:href="#bD"/></g><path fill="#333" d="M115-3C79 11 28 4 28-45v-112H4v-33h27l15-45h31v45h36v33H77v99c-1 23 16 31 38 25v30" id="bM"/><path fill="#333" d="M110-194c64 0 96 36 96 99 0 64-35 99-97 99-61 0-95-36-95-99 0-62 34-99 96-99zm-1 164c35 0 45-28 45-65 0-40-10-65-43-65-34 0-45 26-45 65 0 36 10 65 43 65" id="bN"/><g id="H"><use transform="matrix(0.04938271604938272,0,0,0.04938271604938272,0,0)" xlink:href="#bx"/><use transform="matrix(0.04938271604938272,0,0,0.04938271604938272,11.851851851851853,0)" xlink:href="#bM"/><use transform="matrix(0.04938271604938272,0,0,0.04938271604938272,17.728395061728396,0)" xlink:href="#bN"/><use transform="matrix(0.04938271604938272,0,0,0.04938271604938272,28.543209876543205,0)" xlink:href="#bz"/><use transform="matrix(0.04938271604938272,0,0,0.04938271604938272,35.45679012345679,0)" xlink:href="#bC"/><use transform="matrix(0.04938271604938272,0,0,0.04938271604938272,45.333333333333336,0)" xlink:href="#bD"/></g><path fill="#333" d="M240-174c0 40-23 61-54 70L253 0h-59l-57-94H76V0H24v-248c93 4 217-23 216 74zM76-134c48-2 112 12 112-38 0-48-66-32-112-35v73" id="bO"/><path fill="#333" d="M231 0h-52l-39-155L100 0H48L-1-190h46L77-45c9-52 24-97 36-145h53l37 145 32-145h46" id="bP"/><g id="I"><use transform="matrix(0.04938271604938272,0,0,0.04938271604938272,0,0)" xlink:href="#bO"/><use transform="matrix(0.04938271604938272,0,0,0.04938271604938272,12.790123456790125,0)" xlink:href="#bN"/><use transform="matrix(0.04938271604938272,0,0,0.04938271604938272,23.60493827160494,0)" xlink:href="#bP"/></g><path fill="#333" d="M88-194c31-1 46 15 58 34l-1-101h50l1 261h-48c-2-10 0-23-3-31C134-8 116 4 84 4 32 4 16-41 15-95c0-56 19-97 73-99zm17 164c33 0 40-30 41-66 1-37-9-64-41-64s-38 30-39 65c0 43 13 65 39 65" id="bQ"/><g id="J"><use transform="matrix(0.04938271604938272,0,0,0.04938271604938272,0,0)" xlink:href="#bQ"/><use transform="matrix(0.04938271604938272,0,0,0.04938271604938272,10.814814814814815,0)" xlink:href="#bA"/><use transform="matrix(0.04938271604938272,0,0,0.04938271604938272,20.69135802469136,0)" xlink:href="#bM"/><use transform="matrix(0.04938271604938272,0,0,0.04938271604938272,26.567901234567902,0)" xlink:href="#bA"/></g><path fill="#333" d="M67-93c0 74 22 123 53 168H70C40 30 18-18 18-93s22-123 52-168h50c-32 44-53 94-53 168" id="bR"/><path fill="#333" d="M25-224v-37h50v37H25zM75 22c2 45-34 59-81 51V38c22 5 31-5 31-27v-201h50V22" id="bS"/><path fill="#333" d="M135-194c87-1 58 113 63 194h-50c-7-57 23-157-34-157-59 0-34 97-39 157H25l-1-190h47c2 12-1 28 3 38 12-26 28-41 61-42" id="bT"/><path fill="#333" d="M102-93c0 74-22 123-52 168H0C30 29 54-18 53-93c0-74-22-123-53-168h50c30 45 52 94 52 168" id="bU"/><g id="K"><use transform="matrix(0.04938271604938272,0,0,0.04938271604938272,0,0)" xlink:href="#bR"/><use transform="matrix(0.04938271604938272,0,0,0.04938271604938272,5.8765432098765435,0)" xlink:href="#bS"/><use transform="matrix(0.04938271604938272,0,0,0.04938271604938272,10.814814814814817,0)" xlink:href="#bD"/><use transform="matrix(0.04938271604938272,0,0,0.04938271604938272,20.69135802469136,0)" xlink:href="#bN"/><use transform="matrix(0.04938271604938272,0,0,0.04938271604938272,31.506172839506174,0)" xlink:href="#bT"/><use transform="matrix(0.04938271604938272,0,0,0.04938271604938272,42.320987654320994,0)" xlink:href="#bU"/></g><linearGradient gradientUnits="userSpaceOnUse" id="L" x1="841.5" y1="1280" x2="921.5" y2="1200"><stop offset="0%" stop-color="#1b660f"/><stop offset="100%" stop-color="#6cae3e"/></linearGradient><g id="M"><use transform="matrix(0.05,0,0,0.05,0,0)" xlink:href="#bt"/><use transform="matrix(0.05,0,0,0.05,12,0)" xlink:href="#bw"/><use transform="matrix(0.05,0,0,0.05,22.950000000000003,0)" xlink:href="#aS"/></g><path d="M238-95c0 69-44 99-111 99C63 4 22-25 22-93v-155h51v151c-1 38 19 59 55 60 90 1 49-130 58-211h52v153" id="bV"/><path d="M137-138c1-29-70-34-71-4 15 46 118 7 119 86 1 83-164 76-172 9l43-7c4 19 20 25 44 25 33 8 57-30 24-41C81-84 22-81 20-136c-2-80 154-74 161-7" id="bW"/><path d="M185-48c-13 30-37 53-82 52C43 2 14-33 14-96s30-98 90-98c62 0 83 45 84 108H66c0 31 8 55 39 56 18 0 30-7 34-22zm-45-69c5-46-57-63-70-21-2 6-4 13-4 21h74" id="bX"/><g id="N"><use transform="matrix(0.04938271604938272,0,0,0.04938271604938272,0,0)" xlink:href="#bV"/><use transform="matrix(0.04938271604938272,0,0,0.04938271604938272,12.790123456790125,0)" xlink:href="#bW"/><use transform="matrix(0.04938271604938272,0,0,0.04938271604938272,22.66666666666667,0)" xlink:href="#bX"/><use transform="matrix(0.04938271604938272,0,0,0.04938271604938272,32.543209876543216,0)" xlink:href="#bW"/></g><path d="M230 0l2-204L168 0h-37L68-204 70 0H24v-248h70l56 185 57-185h69V0h-46" id="bY"/><path d="M110-194c64 0 96 36 96 99 0 64-35 99-97 99-61 0-95-36-95-99 0-62 34-99 96-99zm-1 164c35 0 45-28 45-65 0-40-10-65-43-65-34 0-45 26-45 65 0 36 10 65 43 65" id="bZ"/><path d="M88-194c31-1 46 15 58 34l-1-101h50l1 261h-48c-2-10 0-23-3-31C134-8 116 4 84 4 32 4 16-41 15-95c0-56 19-97 73-99zm17 164c33 0 40-30 41-66 1-37-9-64-41-64s-38 30-39 65c0 43 13 65 39 65" id="ca"/><path d="M25 0v-261h50V0H25" id="cb"/><g id="O"><use transform="matrix(0.04938271604938272,0,0,0.04938271604938272,0,0)" xlink:href="#bY"/><use transform="matrix(0.04938271604938272,0,0,0.04938271604938272,14.765432098765434,0)" xlink:href="#bZ"/><use transform="matrix(0.04938271604938272,0,0,0.04938271604938272,25.58024691358025,0)" xlink:href="#ca"/><use transform="matrix(0.04938271604938272,0,0,0.04938271604938272,36.39506172839506,0)" xlink:href="#bX"/><use transform="matrix(0.04938271604938272,0,0,0.04938271604938272,46.27160493827161,0)" xlink:href="#cb"/><use transform="matrix(0.04938271604938272,0,0,0.04938271604938272,51.20987654320988,0)" xlink:href="#bW"/></g><path d="M76-208v77h127v40H76V0H24v-248h183v40H76" id="cc"/><path d="M135-150c-39-12-60 13-60 57V0H25l-1-190h47c2 13-1 29 3 40 6-28 27-53 61-41v41" id="cd"/><path d="M220-157c-53 9-28 100-34 157h-49v-107c1-27-5-49-29-50C55-147 81-57 75 0H25l-1-190h47c2 12-1 28 3 38 10-53 101-56 108 0 13-22 24-43 59-42 82 1 51 116 57 194h-49v-107c-1-25-5-48-29-50" id="ce"/><g id="P"><use transform="matrix(0.04938271604938272,0,0,0.04938271604938272,0,0)" xlink:href="#cc"/><use transform="matrix(0.04938271604938272,0,0,0.04938271604938272,10.814814814814815,0)" xlink:href="#cd"/><use transform="matrix(0.04938271604938272,0,0,0.04938271604938272,17.728395061728396,0)" xlink:href="#bZ"/><use transform="matrix(0.04938271604938272,0,0,0.04938271604938272,28.543209876543205,0)" xlink:href="#ce"/></g><path d="M194 0L95-120 63-95V0H30v-248h33v124l119-124h40L117-140 236 0h-42" id="cf"/><g id="Q"><use transform="matrix(0.07222222222222222,0,0,0.07222222222222222,0,0)" xlink:href="#cf"/><use transform="matrix(0.07222222222222222,0,0,0.07222222222222222,17.333333333333332,0)" xlink:href="#aC"/><use transform="matrix(0.07222222222222222,0,0,0.07222222222222222,31.777777777777775,0)" xlink:href="#aH"/><use transform="matrix(0.07222222222222222,0,0,0.07222222222222222,44.77777777777777,0)" xlink:href="#aQ"/><use transform="matrix(0.07222222222222222,0,0,0.07222222222222222,63.48333333333332,0)" xlink:href="#aA"/><use transform="matrix(0.07222222222222222,0,0,0.07222222222222222,77.92777777777778,0)" xlink:href="#aI"/><use transform="matrix(0.07222222222222222,0,0,0.07222222222222222,86.52222222222221,0)" xlink:href="#aX"/><use transform="matrix(0.07222222222222222,0,0,0.07222222222222222,100.96666666666665,0)" xlink:href="#aL"/></g><path d="M141 0L90-78 38 0H4l68-98-65-92h35l48 74 47-74h35l-64 92 68 98h-35" id="cg"/><g id="R"><use transform="matrix(0.07222222222222222,0,0,0.07222222222222222,0,0)" xlink:href="#bt"/><use transform="matrix(0.07222222222222222,0,0,0.07222222222222222,17.333333333333332,0)" xlink:href="#cg"/><use transform="matrix(0.07222222222222222,0,0,0.07222222222222222,30.333333333333332,0)" xlink:href="#ay"/><use transform="matrix(0.07222222222222222,0,0,0.07222222222222222,37.55555555555555,0)" xlink:href="#aI"/><use transform="matrix(0.07222222222222222,0,0,0.07222222222222222,46.149999999999984,0)" xlink:href="#ax"/><use transform="matrix(0.07222222222222222,0,0,0.07222222222222222,60.59444444444443,0)" xlink:href="#aD"/><use transform="matrix(0.07222222222222222,0,0,0.07222222222222222,73.59444444444443,0)" xlink:href="#ay"/><use transform="matrix(0.07222222222222222,0,0,0.07222222222222222,80.81666666666666,0)" xlink:href="#aE"/><use transform="matrix(0.07222222222222222,0,0,0.07222222222222222,86.52222222222221,0)" xlink:href="#aA"/><use transform="matrix(0.07222222222222222,0,0,0.07222222222222222,100.96666666666665,0)" xlink:href="#aF"/></g><g id="S"><use transform="matrix(0.07222222222222222,0,0,0.07222222222222222,0,0)" xlink:href="#bt"/><use transform="matrix(0.07222222222222222,0,0,0.07222222222222222,17.333333333333332,0)" xlink:href="#aF"/><use transform="matrix(0.07222222222222222,0,0,0.07222222222222222,31.777777777777775,0)" xlink:href="#ay"/><use transform="matrix(0.07222222222222222,0,0,0.07222222222222222,38.99999999999999,0)" xlink:href="#aE"/><use transform="matrix(0.07222222222222222,0,0,0.07222222222222222,44.70555555555556,0)" xlink:href="#ay"/><use transform="matrix(0.07222222222222222,0,0,0.07222222222222222,51.927777777777784,0)" xlink:href="#aH"/></g><g id="T"><use transform="matrix(0.07222222222222222,0,0,0.07222222222222222,0,0)" xlink:href="#aI"/><use transform="matrix(0.07222222222222222,0,0,0.07222222222222222,8.594444444444443,0)" xlink:href="#aC"/><use transform="matrix(0.07222222222222222,0,0,0.07222222222222222,23.038888888888884,0)" xlink:href="#aD"/><use transform="matrix(0.07222222222222222,0,0,0.07222222222222222,36.038888888888884,0)" xlink:href="#aA"/><use transform="matrix(0.07222222222222222,0,0,0.07222222222222222,50.48333333333333,0)" xlink:href="#aO"/><use transform="matrix(0.07222222222222222,0,0,0.07222222222222222,64.92777777777778,0)" xlink:href="#aF"/><use transform="matrix(0.07222222222222222,0,0,0.07222222222222222,79.37222222222222,0)" xlink:href="#aE"/><use transform="matrix(0.07222222222222222,0,0,0.07222222222222222,85.07777777777777,0)" xlink:href="#ay"/><use transform="matrix(0.07222222222222222,0,0,0.07222222222222222,92.29999999999997,0)" xlink:href="#aE"/><use transform="matrix(0.07222222222222222,0,0,0.07222222222222222,98.00555555555553,0)" xlink:href="#aA"/><use transform="matrix(0.07222222222222222,0,0,0.07222222222222222,112.44999999999997,0)" xlink:href="#aF"/></g><path d="M127-220V0H93v-220H8v-28h204v28h-85" id="ch"/><g id="U"><use transform="matrix(0.07222222222222222,0,0,0.07222222222222222,0,0)" xlink:href="#ch"/><use transform="matrix(0.07222222222222222,0,0,0.07222222222222222,12.927777777777777,0)" xlink:href="#aC"/><use transform="matrix(0.07222222222222222,0,0,0.07222222222222222,27.37222222222222,0)" xlink:href="#cg"/><use transform="matrix(0.07222222222222222,0,0,0.07222222222222222,40.37222222222222,0)" xlink:href="#ay"/></g><g id="V"><use transform="matrix(0.07222222222222222,0,0,0.07222222222222222,0,0)" xlink:href="#aS"/><use transform="matrix(0.07222222222222222,0,0,0.07222222222222222,17.333333333333332,0)" xlink:href="#aT"/><use transform="matrix(0.07222222222222222,0,0,0.07222222222222222,31.777777777777775,0)" xlink:href="#br"/><use transform="matrix(0.07222222222222222,0,0,0.07222222222222222,53.37222222222222,0)" xlink:href="#br"/><use transform="matrix(0.07222222222222222,0,0,0.07222222222222222,74.96666666666668,0)" xlink:href="#ax"/><use transform="matrix(0.07222222222222222,0,0,0.07222222222222222,89.41111111111113,0)" xlink:href="#aI"/><use transform="matrix(0.07222222222222222,0,0,0.07222222222222222,98.00555555555556,0)" xlink:href="#aE"/><use transform="matrix(0.07222222222222222,0,0,0.07222222222222222,103.7111111111111,0)" xlink:href="#bs"/><use transform="matrix(0.07222222222222222,0,0,0.07222222222222222,116.71111111111112,0)" xlink:href="#ax"/><use transform="matrix(0.07222222222222222,0,0,0.07222222222222222,131.15555555555557,0)" xlink:href="#ay"/><use transform="matrix(0.07222222222222222,0,0,0.07222222222222222,138.3777777777778,0)" xlink:href="#aE"/><use transform="matrix(0.07222222222222222,0,0,0.07222222222222222,144.08333333333334,0)" xlink:href="#aA"/><use transform="matrix(0.07222222222222222,0,0,0.07222222222222222,158.52777777777777,0)" xlink:href="#aF"/></g><path fill="#333" d="M24-248c120-7 223 5 221 122C244-46 201 0 124 0H24v-248zM76-40c74 7 117-18 117-86 0-67-45-88-117-82v168" id="ci"/><path fill="#333" d="M4 7l51-268h42L46 7H4" id="cj"/><g id="W"><use transform="matrix(0.04938271604938272,0,0,0.04938271604938272,0,0)" xlink:href="#ci"/><use transform="matrix(0.04938271604938272,0,0,0.04938271604938272,12.790123456790125,0)" xlink:href="#bA"/><use transform="matrix(0.04938271604938272,0,0,0.04938271604938272,22.66666666666667,0)" xlink:href="#bM"/><use transform="matrix(0.04938271604938272,0,0,0.04938271604938272,28.54320987654322,0)" xlink:href="#bA"/><use transform="matrix(0.04938271604938272,0,0,0.04938271604938272,38.41975308641976,0)" xlink:href="#cj"/></g><path fill="#333" d="M24-248c93 1 206-16 204 79-1 75-69 88-152 82V0H24v-248zm52 121c47 0 100 7 100-41 0-47-54-39-100-39v80" id="ck"/><g id="X"><use transform="matrix(0.04938271604938272,0,0,0.04938271604938272,0,0)" xlink:href="#ck"/><use transform="matrix(0.04938271604938272,0,0,0.04938271604938272,11.851851851851853,0)" xlink:href="#bz"/><use transform="matrix(0.04938271604938272,0,0,0.04938271604938272,18.765432098765434,0)" xlink:href="#bN"/><use transform="matrix(0.04938271604938272,0,0,0.04938271604938272,29.58024691358025,0)" xlink:href="#by"/><use transform="matrix(0.04938271604938272,0,0,0.04938271604938272,39.45679012345679,0)" xlink:href="#bC"/><use transform="matrix(0.04938271604938272,0,0,0.04938271604938272,49.333333333333336,0)" xlink:href="#bD"/><use transform="matrix(0.04938271604938272,0,0,0.04938271604938272,59.20987654320988,0)" xlink:href="#bD"/><use transform="matrix(0.04938271604938272,0,0,0.04938271604938272,69.08641975308643,0)" xlink:href="#bC"/><use transform="matrix(0.04938271604938272,0,0,0.04938271604938272,78.96296296296298,0)" xlink:href="#bQ"/></g><g id="Y"><use transform="matrix(0.04938271604938272,0,0,0.04938271604938272,0,0)" xlink:href="#ci"/><use transform="matrix(0.04938271604938272,0,0,0.04938271604938272,12.790123456790125,0)" xlink:href="#bA"/><use transform="matrix(0.04938271604938272,0,0,0.04938271604938272,22.66666666666667,0)" xlink:href="#bM"/><use transform="matrix(0.04938271604938272,0,0,0.04938271604938272,28.54320987654322,0)" xlink:href="#bA"/></g><path d="M233-177c-1 41-23 64-60 70L243 0h-38l-65-103H63V0H30v-248c88 3 205-21 203 71zM63-129c60-2 137 13 137-47 0-61-80-42-137-45v92" id="cl"/><g id="Z"><use transform="matrix(0.07222222222222222,0,0,0.07222222222222222,0,0)" xlink:href="#cl"/><use transform="matrix(0.07222222222222222,0,0,0.07222222222222222,18.705555555555552,0)" xlink:href="#aC"/><use transform="matrix(0.07222222222222222,0,0,0.07222222222222222,33.14999999999999,0)" xlink:href="#ax"/><use transform="matrix(0.07222222222222222,0,0,0.07222222222222222,47.594444444444434,0)" xlink:href="#aD"/><use transform="matrix(0.07222222222222222,0,0,0.07222222222222222,60.59444444444443,0)" xlink:href="#ay"/></g><g id="aa"><use transform="matrix(0.07222222222222222,0,0,0.07222222222222222,0,0)" xlink:href="#aJ"/><use transform="matrix(0.07222222222222222,0,0,0.07222222222222222,23.977777777777774,0)" xlink:href="#aC"/><use transform="matrix(0.07222222222222222,0,0,0.07222222222222222,38.42222222222222,0)" xlink:href="#aK"/></g><g id="ab"><use transform="matrix(0.07222222222222222,0,0,0.07222222222222222,0,0)" xlink:href="#bq"/><use transform="matrix(0.07222222222222222,0,0,0.07222222222222222,17.333333333333332,0)" xlink:href="#aM"/><use transform="matrix(0.07222222222222222,0,0,0.07222222222222222,31.777777777777775,0)" xlink:href="#aM"/></g><g id="ac"><use transform="matrix(0.07222222222222222,0,0,0.07222222222222222,0,0)" xlink:href="#bq"/><use transform="matrix(0.07222222222222222,0,0,0.07222222222222222,17.333333333333332,0)" xlink:href="#aI"/><use transform="matrix(0.07222222222222222,0,0,0.07222222222222222,25.927777777777774,0)" xlink:href="#ay"/><use transform="matrix(0.07222222222222222,0,0,0.07222222222222222,33.15,0)" xlink:href="#aE"/><use transform="matrix(0.07222222222222222,0,0,0.07222222222222222,38.855555555555554,0)" xlink:href="#aD"/><use transform="matrix(0.07222222222222222,0,0,0.07222222222222222,51.85555555555555,0)" xlink:href="#aB"/><use transform="matrix(0.07222222222222222,0,0,0.07222222222222222,57.56111111111112,0)" xlink:href="#aC"/></g><g id="ad"><use transform="matrix(0.07222222222222222,0,0,0.07222222222222222,0,0)" xlink:href="#aG"/><use transform="matrix(0.07222222222222222,0,0,0.07222222222222222,14.444444444444443,0)" xlink:href="#aE"/><use transform="matrix(0.07222222222222222,0,0,0.07222222222222222,20.15,0)" xlink:href="#aL"/><use transform="matrix(0.07222222222222222,0,0,0.07222222222222222,33.15,0)" xlink:href="#ay"/></g><path d="M137 0h-34L2-248h35l83 218 83-218h36" id="cm"/><g id="ae"><use transform="matrix(0.07222222222222222,0,0,0.07222222222222222,0,0)" xlink:href="#cm"/><use transform="matrix(0.07222222222222222,0,0,0.07222222222222222,16.827777777777776,0)" xlink:href="#aE"/><use transform="matrix(0.07222222222222222,0,0,0.07222222222222222,22.53333333333333,0)" xlink:href="#aC"/><use transform="matrix(0.07222222222222222,0,0,0.07222222222222222,36.977777777777774,0)" xlink:href="#aQ"/></g><path d="M106-169C34-169 62-67 57 0H25v-261h32l-1 103c12-21 28-36 61-36 89 0 53 116 60 194h-32v-121c2-32-8-49-39-48" id="cn"/><g id="af"><use transform="matrix(0.07222222222222222,0,0,0.07222222222222222,0,0)" xlink:href="#aS"/><use transform="matrix(0.07222222222222222,0,0,0.07222222222222222,17.333333333333332,0)" xlink:href="#aC"/><use transform="matrix(0.07222222222222222,0,0,0.07222222222222222,31.777777777777775,0)" xlink:href="#ax"/><use transform="matrix(0.07222222222222222,0,0,0.07222222222222222,46.222222222222214,0)" xlink:href="#aI"/><use transform="matrix(0.07222222222222222,0,0,0.07222222222222222,54.816666666666656,0)" xlink:href="#aD"/><use transform="matrix(0.07222222222222222,0,0,0.07222222222222222,67.81666666666665,0)" xlink:href="#cn"/></g><path d="M234-2c-28 10-62 0-77-18C117 19 8 12 13-65c3-43 29-61 60-76-25-40-17-114 47-108 35 3 59 15 59 50 0 44-40 53-71 69 14 26 32 50 51 72 14-21 24-43 30-72l26 8c-9 33-21 57-38 82 13 13 33 22 57 15v23zM97-151c25-10 52-18 56-48-1-18-13-29-33-29-42 0-39 50-23 77zM42-66c-3 51 71 58 98 28-20-24-41-51-56-80-23 10-40 24-42 52" id="co"/><use transform="matrix(0.07222222222222222,0,0,0.07222222222222222,0,0)" xlink:href="#co" id="ag"/><g id="ah"><use transform="matrix(0.07222222222222222,0,0,0.07222222222222222,0,0)" xlink:href="#bw"/><use transform="matrix(0.07222222222222222,0,0,0.07222222222222222,15.816666666666665,0)" xlink:href="#aE"/><use transform="matrix(0.07222222222222222,0,0,0.07222222222222222,21.52222222222222,0)" xlink:href="#aB"/><use transform="matrix(0.07222222222222222,0,0,0.07222222222222222,27.227777777777774,0)" xlink:href="#ay"/><use transform="matrix(0.07222222222222222,0,0,0.07222222222222222,34.449999999999996,0)" xlink:href="#aI"/><use transform="matrix(0.07222222222222222,0,0,0.07222222222222222,43.04444444444444,0)" xlink:href="#aC"/></g><g id="ai"><use transform="matrix(0.07222222222222222,0,0,0.07222222222222222,0,0)" xlink:href="#bq"/><use transform="matrix(0.07222222222222222,0,0,0.07222222222222222,17.333333333333332,0)" xlink:href="#aF"/><use transform="matrix(0.07222222222222222,0,0,0.07222222222222222,31.777777777777775,0)" xlink:href="#ax"/><use transform="matrix(0.07222222222222222,0,0,0.07222222222222222,46.222222222222214,0)" xlink:href="#aB"/><use transform="matrix(0.07222222222222222,0,0,0.07222222222222222,51.92777777777777,0)" xlink:href="#aH"/><use transform="matrix(0.07222222222222222,0,0,0.07222222222222222,64.92777777777776,0)" xlink:href="#ay"/><use transform="matrix(0.07222222222222222,0,0,0.07222222222222222,72.14999999999998,0)" xlink:href="#aE"/><use transform="matrix(0.07222222222222222,0,0,0.07222222222222222,77.85555555555553,0)" xlink:href="#aD"/><use transform="matrix(0.07222222222222222,0,0,0.07222222222222222,90.85555555555553,0)" xlink:href="#aL"/></g><g id="aj"><use transform="matrix(0.07222222222222222,0,0,0.07222222222222222,0,0)" xlink:href="#aw"/><use transform="matrix(0.07222222222222222,0,0,0.07222222222222222,18.705555555555552,0)" xlink:href="#ax"/><use transform="matrix(0.07222222222222222,0,0,0.07222222222222222,33.14999999999999,0)" xlink:href="#aL"/><use transform="matrix(0.07222222222222222,0,0,0.07222222222222222,46.149999999999984,0)" xlink:href="#cn"/><use transform="matrix(0.07222222222222222,0,0,0.07222222222222222,60.59444444444443,0)" xlink:href="#aK"/><use transform="matrix(0.07222222222222222,0,0,0.07222222222222222,75.03888888888888,0)" xlink:href="#aA"/><use transform="matrix(0.07222222222222222,0,0,0.07222222222222222,89.48333333333332,0)" xlink:href="#ax"/><use transform="matrix(0.07222222222222222,0,0,0.07222222222222222,103.92777777777776,0)" xlink:href="#aI"/><use transform="matrix(0.07222222222222222,0,0,0.07222222222222222,112.52222222222221,0)" xlink:href="#aX"/></g><path fill="#333" d="M128 0H69L1-190h53L99-40l48-150h52" id="cp"/><g id="ak"><use transform="matrix(0.04938271604938272,0,0,0.04938271604938272,0,0)" xlink:href="#bO"/><use transform="matrix(0.04938271604938272,0,0,0.04938271604938272,12.790123456790125,0)" xlink:href="#bC"/><use transform="matrix(0.04938271604938272,0,0,0.04938271604938272,22.66666666666667,0)" xlink:href="#bM"/><use transform="matrix(0.04938271604938272,0,0,0.04938271604938272,28.54320987654322,0)" xlink:href="#bz"/><use transform="matrix(0.04938271604938272,0,0,0.04938271604938272,35.4567901234568,0)" xlink:href="#bK"/><use transform="matrix(0.04938271604938272,0,0,0.04938271604938272,40.39506172839507,0)" xlink:href="#bC"/><use transform="matrix(0.04938271604938272,0,0,0.04938271604938272,50.271604938271615,0)" xlink:href="#cp"/><use transform="matrix(0.04938271604938272,0,0,0.04938271604938272,60.14814814814817,0)" xlink:href="#bC"/><use transform="matrix(0.04938271604938272,0,0,0.04938271604938272,70.02469135802471,0)" xlink:href="#bD"/></g><g id="al"><use transform="matrix(0.04938271604938272,0,0,0.04938271604938272,0,0)" xlink:href="#ci"/><use transform="matrix(0.04938271604938272,0,0,0.04938271604938272,12.790123456790125,0)" xlink:href="#bA"/><use transform="matrix(0.04938271604938272,0,0,0.04938271604938272,22.66666666666667,0)" xlink:href="#bM"/><use transform="matrix(0.04938271604938272,0,0,0.04938271604938272,28.54320987654322,0)" xlink:href="#bA"/></g><g id="am"><use transform="matrix(0.04938271604938272,0,0,0.04938271604938272,0,0)" xlink:href="#bJ"/><use transform="matrix(0.04938271604938272,0,0,0.04938271604938272,9.82716049382716,0)" xlink:href="#bz"/><use transform="matrix(0.04938271604938272,0,0,0.04938271604938272,16.74074074074074,0)" xlink:href="#bK"/><use transform="matrix(0.04938271604938272,0,0,0.04938271604938272,21.679012345679013,0)" xlink:href="#bL"/><use transform="matrix(0.04938271604938272,0,0,0.04938271604938272,32.49382716049383,0)" xlink:href="#bL"/><use transform="matrix(0.04938271604938272,0,0,0.04938271604938272,43.308641975308646,0)" xlink:href="#bC"/><use transform="matrix(0.04938271604938272,0,0,0.04938271604938272,53.18518518518519,0)" xlink:href="#bz"/><use transform="matrix(0.04938271604938272,0,0,0.04938271604938272,60.09876543209877,0)" xlink:href="#bD"/></g><path fill="#333" d="M24 0v-248h195v40H76v63h132v40H76v65h150V0H24" id="cq"/><path fill="#333" d="M123 10C108 53 80 86 19 72V37c35 8 53-11 59-39L3-190h52l48 148c12-52 28-100 44-148h51" id="cr"/><g id="an"><use transform="matrix(0.04938271604938272,0,0,0.04938271604938272,0,0)" xlink:href="#cq"/><use transform="matrix(0.04938271604938272,0,0,0.04938271604938272,11.851851851851853,0)" xlink:href="#cp"/><use transform="matrix(0.04938271604938272,0,0,0.04938271604938272,21.7283950617284,0)" xlink:href="#bC"/><use transform="matrix(0.04938271604938272,0,0,0.04938271604938272,31.60493827160494,0)" xlink:href="#bz"/><use transform="matrix(0.04938271604938272,0,0,0.04938271604938272,38.518518518518526,0)" xlink:href="#cr"/></g><path fill="#333" d="M182-182c0 78-84 86-111 141h115V0H12c-6-101 99-100 120-180 1-22-12-31-33-32-23 0-32 14-35 34l-49-3c5-45 32-70 84-70 51 0 83 22 83 69" id="cs"/><path fill="#333" d="M165-50V0h-47v-50H5v-38l105-160h55v161h33v37h-33zm-47-37l2-116L46-87h72" id="ct"/><path fill="#333" d="M186 0v-106H76V0H24v-248h52v99h110v-99h50V0h-50" id="cu"/><g id="ao"><use transform="matrix(0.04938271604938272,0,0,0.04938271604938272,0,0)" xlink:href="#cs"/><use transform="matrix(0.04938271604938272,0,0,0.04938271604938272,9.876543209876544,0)" xlink:href="#ct"/><use transform="matrix(0.04938271604938272,0,0,0.04938271604938272,19.75308641975309,0)" xlink:href="#cu"/></g><g id="aq"><use transform="matrix(0.05,0,0,0.05,0,0)" xlink:href="#aV"/><use transform="matrix(0.05,0,0,0.05,5.95,0)" xlink:href="#bq"/><use transform="matrix(0.05,0,0,0.05,17.95,0)" xlink:href="#br"/><use transform="matrix(0.05,0,0,0.05,32.9,0)" xlink:href="#ax"/><use transform="matrix(0.05,0,0,0.05,42.9,0)" xlink:href="#bs"/><use transform="matrix(0.05,0,0,0.05,51.900000000000006,0)" xlink:href="#aA"/><use transform="matrix(0.05,0,0,0.05,61.900000000000006,0)" xlink:href="#aF"/></g><g id="ar"><use transform="matrix(0.05,0,0,0.05,0,0)" xlink:href="#aS"/><use transform="matrix(0.05,0,0,0.05,12,0)" xlink:href="#aW"/><use transform="matrix(0.05,0,0,0.05,22,0)" xlink:href="#aY"/></g><path fill="#0f141a" d="M529-185c94 0 168-33 168-114 0-35-18-63-53-83s-91-39-168-55C219-491 90-600 90-765c0-208 203-337 432-337 246 0 451 124 453 349H686c-2-91-62-143-165-143-86 0-151 41-153 117 0 32 16 57 46 77 63 43 257 69 335 100 151 60 229 153 229 291C978-13 554 93 282-28 162-81 60-190 56-344h274c5 106 86 159 199 159" id="cv"/><path fill="#0f141a" d="M566-213c130 0 220-75 220-199 0-145-80-218-240-218H393v-226h154c138 3 214-73 216-201 1-118-78-186-197-186-103 0-197 64-195 164H82c11-259 212-391 477-397 286-6 493 142 493 415 0 151-107 263-221 313 147 51 242 159 244 340 3 272-230 428-516 428C289 20 61-138 64-399h289c-3 111 100 186 213 186" id="cw"/><path fill="#0f141a" d="M288 11c-91 0-163-63-163-153 0-91 73-155 163-155 91 0 164 64 164 155S380 11 288 11zm0-819c-91 0-163-63-163-153 0-91 73-155 163-155 91 0 164 64 164 155s-72 153-164 153" id="cx"/><path fill="#0f141a" d="M1248-1138c106 220 104 603 2 820-91 195-274 338-542 338C281 20 86-300 86-759c0-291 115-515 296-629 182-114 467-115 648 0 94 60 166 141 218 250zM940-344c111-153 110-617 0-765-57-77-133-119-234-119s-177 41-233 118c-64 88-83 240-83 415 0 149 27 264 82 346s133 123 236 123c101 0 176-40 232-118" id="cy"/><path fill="#0f141a" d="M663-1102c295 0 423 246 423 571 0 313-131 551-421 551-117 0-211-45-281-135L371 0H111v-1536h289v551c67-78 154-117 263-117zm-71 889c164 0 209-139 205-339-3-189-44-315-207-315-92 0-155 38-190 113v427c35 76 99 114 192 114" id="cz"/><path fill="#0f141a" d="M417 59c1 237-132 380-369 378-50 0-98-6-143-17V191c122 27 222 1 222-130v-1143h290V59zM266-1212c-92 0-162-61-162-150s68-149 162-149 162 60 162 149-70 150-162 150" id="cA"/><path fill="#0f141a" d="M1031-175C952-60 797 20 609 20 287 20 60-206 72-543c12-330 180-559 505-559 309 0 482 214 477 537v118H365c15 134 115 234 263 234 111 0 198-40 261-121zM770-644c5-139-62-226-194-224-130 1-191 97-208 224h402" id="cB"/><path fill="#0f141a" d="M355-556c-2 203 30 338 206 343 102 3 181-63 182-161h271C1001-128 821 17 566 20 242 24 66-212 66-554c0-320 184-548 498-548 262 0 451 167 450 423H743c-1-108-75-193-184-189-162 6-202 123-204 312" id="cC"/><path fill="#0f141a" d="M457-330c2 83 25 111 111 112 32 0 60-2 85-7V-6c-57 17-115 26-175 26-203 0-310-102-310-307v-583H10v-212h158v-266h289v266h185v212H457v540" id="cD"/><path fill="#0f141a" d="M687-225c189-1 272-84 286-260h300c-19 311-251 505-586 505C296 20 86-277 86-686c0-466 174-782 605-790 340-6 557 198 584 514H975c-15-183-92-268-284-268-100 0-173 38-225 108-63 84-76 264-76 443 0 157 24 272 72 345s122 109 225 109" id="cE"/><path fill="#0f141a" d="M719-811c-143-24-279 1-319 103V0H111v-1082h273l8 129c74-124 180-175 331-136" id="cF"/><path fill="#0f141a" d="M552-1102c254-4 435 134 435 383v469c1 103 15 180 43 233V0H738c-13-26-23-58-29-97C639-19 548 20 436 20 238 20 64-113 68-304c5-258 212-357 496-357h133c11-137-29-227-160-227-90 0-156 45-156 131H92c15-231 213-342 460-345zM357-325c0 76 61 124 142 124 88 0 168-45 198-105v-186H589c-152 2-232 51-232 167" id="cG"/><path fill="#0f141a" d="M488 20C204 20 66-234 66-549c0-305 140-551 424-553 105 0 192 39 261 118v-552h290V0H780l-14-115C694-25 601 20 488 20zM355-528c0 176 51 314 207 314 89 0 152-38 189-113v-427c-36-75-98-113-187-113-139 0-209 113-209 339" id="cH"/><path fill="#0f141a" d="M1245-974c0 302-233 466-552 461H430V0H130v-1456h568c323 5 547 167 547 482zm-303 2c1-143-93-241-237-241H430v457h268c151 1 244-71 244-216" id="cI"/><path fill="#0f141a" d="M463 20c-241-1-359-147-359-393v-709h289v699c0 113 51 169 154 169 98 0 165-34 202-102v-766h290V0H767l-8-110C688-23 589 20 463 20" id="cJ"/><g id="as"><use transform="matrix(0.009114583333333334,0,0,0.009114583333333334,0,0)" xlink:href="#cv"/><use transform="matrix(0.009114583333333334,0,0,0.009114583333333334,9.59765625,0)" xlink:href="#cw"/><use transform="matrix(0.009114583333333334,0,0,0.009114583333333334,20.307291666666668,0)" xlink:href="#cx"/><use transform="matrix(0.009114583333333334,0,0,0.009114583333333334,25.575520833333336,0)" xlink:href="#cy"/><use transform="matrix(0.009114583333333334,0,0,0.009114583333333334,38.46354166666667,0)" xlink:href="#cz"/><use transform="matrix(0.009114583333333334,0,0,0.009114583333333334,48.97265625,0)" xlink:href="#cA"/><use transform="matrix(0.009114583333333334,0,0,0.009114583333333334,53.82161458333334,0)" xlink:href="#cB"/><use transform="matrix(0.009114583333333334,0,0,0.009114583333333334,63.91145833333334,0)" xlink:href="#cC"/><use transform="matrix(0.009114583333333334,0,0,0.009114583333333334,73.64583333333334,0)" xlink:href="#cD"/><use transform="matrix(0.009114583333333334,0,0,0.009114583333333334,79.95312500000003,0)" xlink:href="#cE"/><use transform="matrix(0.009114583333333334,0,0,0.009114583333333334,92.16666666666669,0)" xlink:href="#cF"/><use transform="matrix(0.009114583333333334,0,0,0.009114583333333334,98.80208333333336,0)" xlink:href="#cB"/><use transform="matrix(0.009114583333333334,0,0,0.009114583333333334,108.89192708333336,0)" xlink:href="#cG"/><use transform="matrix(0.009114583333333334,0,0,0.009114583333333334,118.89973958333336,0)" xlink:href="#cD"/><use transform="matrix(0.009114583333333334,0,0,0.009114583333333334,125.20703125000003,0)" xlink:href="#cB"/><use transform="matrix(0.009114583333333334,0,0,0.009114583333333334,135.29687500000003,0)" xlink:href="#cH"/><use transform="matrix(0.009114583333333334,0,0,0.009114583333333334,145.81510416666669,0)" xlink:href="#cx"/><use transform="matrix(0.009114583333333334,0,0,0.009114583333333334,151.08333333333334,0)" xlink:href="#cI"/><use transform="matrix(0.009114583333333334,0,0,0.009114583333333334,163.12369791666669,0)" xlink:href="#cJ"/><use transform="matrix(0.009114583333333334,0,0,0.009114583333333334,173.56901041666669,0)" xlink:href="#cD"/></g><g id="at"><use transform="matrix(0.07222222222222222,0,0,0.07222222222222222,0,0)" xlink:href="#bq"/><use transform="matrix(0.07222222222222222,0,0,0.07222222222222222,17.333333333333332,0)" xlink:href="#aI"/><use transform="matrix(0.07222222222222222,0,0,0.07222222222222222,25.927777777777774,0)" xlink:href="#ay"/><use transform="matrix(0.07222222222222222,0,0,0.07222222222222222,33.15,0)" xlink:href="#aE"/><use transform="matrix(0.07222222222222222,0,0,0.07222222222222222,38.855555555555554,0)" xlink:href="#aD"/><use transform="matrix(0.07222222222222222,0,0,0.07222222222222222,51.85555555555555,0)" xlink:href="#aB"/><use transform="matrix(0.07222222222222222,0,0,0.07222222222222222,57.56111111111112,0)" xlink:href="#aC"/><use transform="matrix(0.07222222222222222,0,0,0.07222222222222222,72.00555555555556,0)" xlink:href="#aL"/></g><g id="au"><use transform="matrix(0.07222222222222222,0,0,0.07222222222222222,0,0)" xlink:href="#az"/><use transform="matrix(0.07222222222222222,0,0,0.07222222222222222,18.705555555555552,0)" xlink:href="#aB"/><use transform="matrix(0.07222222222222222,0,0,0.07222222222222222,24.411111111111108,0)" xlink:href="#aT"/><use transform="matrix(0.07222222222222222,0,0,0.07222222222222222,38.855555555555554,0)" xlink:href="#aL"/><use transform="matrix(0.07222222222222222,0,0,0.07222222222222222,51.85555555555555,0)" xlink:href="#ay"/><use transform="matrix(0.07222222222222222,0,0,0.07222222222222222,59.077777777777776,0)" xlink:href="#aC"/><use transform="matrix(0.07222222222222222,0,0,0.07222222222222222,73.52222222222221,0)" xlink:href="#aI"/><use transform="matrix(0.07222222222222222,0,0,0.07222222222222222,82.11666666666666,0)" xlink:href="#aE"/><use transform="matrix(0.07222222222222222,0,0,0.07222222222222222,87.82222222222221,0)" xlink:href="#aF"/><use transform="matrix(0.07222222222222222,0,0,0.07222222222222222,102.26666666666665,0)" xlink:href="#aO"/></g><g id="av"><use transform="matrix(0.05,0,0,0.05,0,0)" xlink:href="#aS"/><use transform="matrix(0.05,0,0,0.05,12,0)" xlink:href="#aW"/><use transform="matrix(0.05,0,0,0.05,22,0)" xlink:href="#aY"/></g></defs></g></svg>