<svg xmlns="http://www.w3.org/2000/svg" xmlns:xlink="http://www.w3.org/1999/xlink" xmlns:lucid="lucid" width="1883" height="1282"><g transform="translate(-238.5 -319.5)" lucid:page-tab-id="0_0"><path d="M240 526a6 6 0 0 1 6-6h788a6 6 0 0 1 6 6v428a6 6 0 0 1-6 6H246a6 6 0 0 1-6-6z" stroke="#3a414a" stroke-width="3" fill-opacity="0"/><use xlink:href="#a" transform="matrix(1,0,0,1,248,528) translate(268.49444444444447 21.2)"/><use xlink:href="#b" transform="matrix(1,0,0,1,248,528) translate(330.53333333333336 21.2)"/><use xlink:href="#c" transform="matrix(1,0,0,1,248,528) translate(451.5777777777778 21.2)"/><path d="M680 566a6 6 0 0 1 6-6h308a6 6 0 0 1 6 6v228a6 6 0 0 1-6 6H686a6 6 0 0 1-6-6z" stroke="#dd3522" stroke-width="3" fill="#fff" fill-opacity="0"/><use xlink:href="#d" transform="matrix(1,0,0,1,680,580) translate(63.58333333333336 20.8)"/><use xlink:href="#e" transform="matrix(1,0,0,1,680,580) translate(164.04444444444442 20.8)"/><use xlink:href="#f" transform="matrix(1,0,0,1,680,580) translate(192.93333333333334 20.8)"/><path d="M240 1086a6 6 0 0 1 6-6h868a6 6 0 0 1 6 6v508a6 6 0 0 1-6 6H246a6 6 0 0 1-6-6z" stroke="#3a414a" stroke-width="3" fill-opacity="0"/><use xlink:href="#g" transform="matrix(1,0,0,1,248,1088) translate(300.7 21.2)"/><use xlink:href="#h" transform="matrix(1,0,0,1,248,1088) translate(362.7388888888889 21.2)"/><use xlink:href="#i" transform="matrix(1,0,0,1,248,1088) translate(498.3722222222222 21.2)"/><path d="M600 1142.67a6 6 0 0 1 6-6h468a6 6 0 0 1 6 6v227.52a6 6 0 0 1-6 6H606a6 6 0 0 1-6-6z" stroke="#0e76d4" stroke-width="3" fill="#fff" fill-opacity="0"/><path d="M600 1136.67h56v56h-56v-56z" stroke="#000" stroke-opacity="0" fill-opacity="0"/><path d="M638.55 1149.46c-8.8-.96-10.3-4.8-10.3-4.8s-2 4.96-14.65 4.96v20.48c0 2.47 1.35 4.83 3.28 6.82 4.33 4.55 11.36 7.67 11.36 7.67s14.64-6.4 14.64-14.5v-20.48c-1.6 0-3.04-.08-4.33-.16z" stroke="#000" stroke-opacity="0" fill="#0072c6"/><path d="M631.92 1157.85l6.64-8.38c-8.8-.97-10.3-4.8-10.3-4.8s-2.03 4.96-14.66 4.96v20.47c0 2.5 1.35 4.8 3.27 6.8l4.97-6.25 10.08-12.8z" stroke="#000" stroke-opacity="0" fill="#3999c6" fill-opacity=".4"/><path d="M616.64 1164.2v4.87c0 2 1.12 3.84 2.64 5.43 3.45 3.7 9.04 6.1 9.04 6.1v-16.4h-11.68z" stroke="#000" stroke-opacity="0" fill="#fff" fill-opacity=".3"/><path d="M628.24 1180.6s11.68-5.14 11.68-11.54v-4.87h-11.68v16.4zm0-31.85s-1.6 4-11.68 4v11.44h11.68v-15.45z" stroke="#000" stroke-opacity="0" fill="#fff" fill-opacity=".7"/><path d="M636.4 1152.6c-6.96-.8-8.16-3.77-8.16-3.77v15.36h11.68v-11.46c-1.28 0-2.48-.07-3.52-.15z" stroke="#000" stroke-opacity="0" fill="#fff" fill-opacity=".3"/><use xlink:href="#j" transform="matrix(1,0,0,1,676,1156.6664537259403) translate(0 17.77777777777778)"/><use xlink:href="#k" transform="matrix(1,0,0,1,676,1156.6664537259403) translate(87.46913580246913 17.77777777777778)"/><use xlink:href="#l" transform="matrix(1,0,0,1,676,1156.6664537259403) translate(173.76543209876542 17.77777777777778)"/><path d="M280 1406a6 6 0 0 1 6-6h788a6 6 0 0 1 6 6v148a6 6 0 0 1-6 6H286a6 6 0 0 1-6-6z" stroke="#dd3522" stroke-width="3" fill="#fff" fill-opacity="0"/><use xlink:href="#m" transform="matrix(1,0,0,1,280,1420) translate(341.4 14.4)"/><use xlink:href="#n" transform="matrix(1,0,0,1,280,1420) translate(370.7 14.4)"/><path d="M1120 646a6 6 0 0 1 6-6h308a6 6 0 0 1 6 6v188a6 6 0 0 1-6 6h-308a6 6 0 0 1-6-6z" stroke="#3a414a" stroke-width="3" fill-opacity="0"/><use xlink:href="#g" transform="matrix(1,0,0,1,1128,648) translate(75.51666666666668 21.2)"/><use xlink:href="#o" transform="matrix(1,0,0,1,1128,648) translate(137.55555555555554 21.2)"/><path d="M1240 1006a6 6 0 0 1 6-6h868a6 6 0 0 1 6 6v388a6 6 0 0 1-6 6h-868a6 6 0 0 1-6-6z" stroke="#3a414a" stroke-width="3" fill-opacity="0"/><use xlink:href="#p" transform="matrix(1,0,0,1,1248,1008) translate(323.0527777777778 21.2)"/><use xlink:href="#i" transform="matrix(1,0,0,1,1248,1008) translate(476.01944444444445 21.2)"/><path d="M1280 1222.2a6 6 0 0 1 6-6h788a6 6 0 0 1 6 6v148a6 6 0 0 1-6 6h-788a6 6 0 0 1-6-6z" stroke="#dd3522" stroke-width="3" fill="#fff" fill-opacity="0"/><use xlink:href="#q" transform="matrix(1,0,0,1,1280,1236.190780391514) translate(330.98148148148147 21.333333333333336)"/><use xlink:href="#r" transform="matrix(1,0,0,1,1280,1236.190780391514) translate(364.98148148148147 21.333333333333336)"/><path d="M400 320h80v80h-80v-80z" stroke="#000" stroke-opacity="0" fill="url(#s)"/><path d="M454.08 375.4c3.4 0 6.07 2.7 6.07 6.05 0 3.3-2.68 6-6.07 6-3.33 0-6.07-2.7-6.07-6 0-1.76.8-3.35 2-4.45l-3.5-5.83-.05.06h-11.67c-.43 0-.86-.28-1.07-.66l-5.8-10c-.27-.4-.27-.83 0-1.2l5.7-9.85-3.23-5.33c-.6.2-1.24.32-1.93.32-3.34 0-6.08-2.7-6.08-6 0-3.35 2.74-6.04 6.08-6.04 3.33 0 6.07 2.7 6.07 6.05 0 1.7-.74 3.3-1.98 4.4l3.5 5.76h10.43c.43 0 .86.27 1.07.65l5.8 10c.22.4.22.83 0 1.2l-5.05 8.7 3.88 6.48c.64-.22 1.3-.33 1.93-.33zm-8.4-6.7l5.12-8.74-5.1-8.74h-10.17l-5.1 8.74 5.1 8.74zm-19.88 7.03l2.9 4.23h10.7v2.48h-11.34c-.43 0-.8-.22-1.07-.55l-3.5-5.07c-.44.1-.87.17-1.35.17-3.34 0-6.08-2.7-6.08-6.05 0-1.54.6-2.9 1.56-3.95l-3.7-6.44c-.22-.38-.22-.82 0-1.2l5.96-10.23 2.14 1.2-5.6 9.63 3.23 5.5c.76-.33 1.62-.5 2.48-.5 3.33 0 6.07 2.7 6.07 6 0 1.97-.97 3.67-2.42 4.77zm37.96-22.6l3.6 6.23c.2.38.2.82 0 1.2l-5.16 8.9-2.2-1.26 4.83-8.24-3.33-5.66c-.5.1-1.02.22-1.56.22-3.33 0-6.07-2.7-6.07-6.05 0-1.6.64-3.07 1.7-4.17l-3-4.35h-10.7v-2.47h11.35c.43 0 .8.22 1.07.55l3.38 4.9c.7-.28 1.45-.45 2.26-.45 3.33 0 6.07 2.7 6.07 6 0 1.92-.9 3.57-2.24 4.66zm-41.6 21.34c1.92 0 3.53-1.54 3.53-3.52 0-1.92-1.62-3.5-3.55-3.5-1.94 0-3.55 1.58-3.55 3.5 0 1.98 1.6 3.52 3.55 3.52zm6.28-32.43c2 0 3.55-1.6 3.55-3.5 0-2-1.57-3.6-3.56-3.6-1.94 0-3.55 1.6-3.55 3.6 0 1.9 1.6 3.5 3.54 3.5zm31.5 9.95c1.94 0 3.55-1.55 3.55-3.53 0-1.92-1.63-3.5-3.56-3.5-1.94 0-3.55 1.58-3.55 3.5 0 1.98 1.6 3.52 3.54 3.52zm-5.86 32.97c2 0 3.55-1.6 3.55-3.52 0-1.98-1.56-3.57-3.55-3.57-1.94 0-3.55 1.6-3.55 3.57 0 1.92 1.62 3.52 3.55 3.52z" stroke="#000" stroke-opacity="0" fill="#fff"/><use xlink:href="#t" transform="matrix(1,0,0,1,370,409) translate(37.025 14.4)"/><use xlink:href="#u" transform="matrix(1,0,0,1,370,409) translate(21.049999999999997 36)"/><path d="M463.94 704.03H451c-.65 0-1.26-.38-1.52-.98l-18.14-38.9h-7.32c-.9 0-1.7-.75-1.7-1.67v-11.23c0-.92.8-1.68 1.7-1.68h16.15c.7 0 1.26.38 1.52.98l18.1 38.9h4.14c.92 0 1.7.75 1.7 1.73v11.17c0 .92-.78 1.68-1.7 1.68zm-11.9-3.43h10.17v-7.73h-3.5c-.64 0-1.25-.38-1.5-.98l-18.07-38.96h-13.38v7.8h6.67c.7 0 1.3.37 1.56.97z" stroke="#fff" stroke-opacity="0" fill="#d86613"/><path d="M428.8 704.03H415c-.9 0-1.68-.77-1.68-1.7 0-.28.05-.48.17-.72l14.45-30.26c.3-.6.87-.97 1.53-.97.67 0 1.24.33 1.54.94l6.9 14.32c.23.47.23.97 0 1.45l-7.55 16c-.3.6-.87.96-1.54.96zm-11.1-3.4h10.02l6.8-14.27-5.1-10.37z" stroke="#fff" stroke-opacity="0" fill="#d86613"/><path d="M440 720c-22.08 0-40-17.92-40-40s17.92-40 40-40 40 17.92 40 40-17.92 40-40 40zm0-76.56c-20.24 0-36.56 16.32-36.56 36.56 0 20.24 16.32 36.56 36.56 36.56 20.24 0 36.56-16.32 36.56-36.56 0-20.24-16.32-36.56-36.56-36.56z" stroke="#fff" stroke-opacity="0" fill="#d86613"/><use xlink:href="#v" transform="matrix(1,0,0,1,370,729) translate(33.916666666666664 16)"/><use xlink:href="#w" transform="matrix(1,0,0,1,370,729) translate(0.6944444444444429 40)"/><use xlink:href="#x" transform="matrix(1,0,0,1,370,729) translate(82.80555555555556 40)"/><use xlink:href="#y" transform="matrix(1,0,0,1,370,729) translate(26.194444444444436 64)"/><path d="M530.33 681.48H481.5v-2.96h48.83zm127.55 0h-58.46v-2.96h58.46z" stroke="#3a414a" stroke-width=".05" fill="#3a414a"/><path d="M481.54 681.48h-1.63l.1-1.48-.05-1.48h1.6z" fill="#3a414a"/><path stroke="#3a414a" stroke-width=".05" fill="#3a414a"/><path d="M673.65 680l-14.27 4.63v-9.26z" fill="#3a414a"/><path d="M678.42 680l-20.5 6.66v-13.32zm-17.56 2.6l8-2.6-8-2.6z" stroke="#3a414a" stroke-width=".05" fill="#3a414a"/><use xlink:href="#z" transform="matrix(1,0,0,1,530.3310150270272,669.3333333333335) translate(0 14.222222222222223)"/><path d="M720 646a6 6 0 0 1 6-6h228a6 6 0 0 1 6 6v98a6 6 0 0 1-6 6H726a6 6 0 0 1-6-6z" fill="none"/><use xlink:href="#A" transform="matrix(1,0,0,1,720,640) translate(8.45 28.999999999999996)"/><use xlink:href="#B" transform="matrix(1,0,0,1,720,640) translate(26 28.999999999999996)"/><use xlink:href="#A" transform="matrix(1,0,0,1,720,640) translate(8.45 60.2)"/><use xlink:href="#C" transform="matrix(1,0,0,1,720,640) translate(26 60.2)"/><use xlink:href="#A" transform="matrix(1,0,0,1,720,640) translate(8.45 91.39999999999999)"/><use xlink:href="#D" transform="matrix(1,0,0,1,720,640) translate(26 91.39999999999999)"/><path d="M560 843.62l39.98 5.74v3.4c0 5.02-17.9 9.1-40 9.1-22.06 0-39.98-4.08-39.98-9.1v-3.7z" fill="#8c3123"/><path d="M560 868.1c16.7 0 31-2.37 36.96-5.68l2-3.2.78-2.92v3.63l-13.1 54c0 3.4-11.93 6.06-26.63 6.06s-26.6-2.68-26.6-6.06l-13.12-54v-3.57l3.02 6.17c6.04 3.25 20.18 5.55 36.7 5.55z" fill="#8c3123"/><path d="M560 840c22.08 0 40 4.08 40 9.08s-17.92 9.05-40 9.05-40-4-40-9.05c0-5.04 17.92-9.08 40-9.08z" fill="#e05243"/><path d="M560 864.4c20.58 0 37.5-3.48 39.74-8.04l-13.12 54c0 3.37-11.92 6.07-26.62 6.07-14.7 0-26.63-2.7-26.63-6.06l-13.1-54c2.2 4.55 19.14 8.04 39.73 8.04z" fill="#e05243"/><use xlink:href="#E" transform="matrix(1,0,0,1,520,920) translate(1.7222222222222285 20.8)"/><path d="M320 1200h80v80h-80v-80z" stroke="#000" stroke-opacity="0" fill="#cd2264"/><path d="M343.37 1257.32c2.73-1.73 3.65-5.25 2.2-8.18-1.62-3.05-5.44-4.3-8.5-2.7l-3.72-6.38 6.14-10.68-1.86-1.08-6.44 11.17c-.23.36-.23.7 0 1.07l4.12 7.17c-1.16 1.26-1.74 2.7-1.74 4.37 0 3.46 2.78 6.32 6.26 6.32.58 0 1.04-.07 1.56-.2l3.36 5.87c.23.35.58.53.93.53h13.26v-2.1h-12.63zm-3.53-1.02c-2.26 0-4.17-1.9-4.17-4.17 0-2.33 1.9-4.18 4.17-4.18 2.3 0 4.17 1.85 4.17 4.17 0 2.27-1.85 4.12-4.16 4.12zm48.96-16.83l-4.06-7.05c2.38-1.73 3.24-4.77 2.03-7.52-1.34-3.16-5.04-4.66-8.23-3.28l-3.3-5.73c-.23-.3-.58-.55-.93-.55h-13.26v2.15h12.63l3.07 5.3c-1.85 1.74-2.55 4.2-1.8 6.58 1.05 3.34 4.58 5.2 7.94 4.12l3.77 6.5-5.33 9.2 1.86 1.07 5.62-9.73c.23-.36.23-.7 0-1.07zm-7.77-7.88c-2.32 0-4.17-1.92-4.17-4.2 0-2.32 1.85-4.17 4.17-4.17 2.26 0 4.12 1.85 4.12 4.18 0 2.28-1.86 4.2-4.12 4.2zm-6.43 25.66c-.8 0-1.5.12-2.26.42l-4.52-7.64-.23.12 5.55-9.56c.23-.36.23-.77 0-1.07l-6.08-10.75c-.23-.3-.58-.54-.93-.54H354.9l-4.1-7.04c1.44-1.2 2.2-2.87 2.2-4.78 0-3.46-2.85-6.27-6.33-6.27-3.47 0-6.25 2.8-6.25 6.33 0 3.47 2.84 6.27 6.3 6.27.82 0 1.52-.12 2.27-.42l3.82 6.5-6.1 10.64c-.22.36-.22.7 0 1.07l6.15 10.7c.24.3.52.47.93.47h12.34c.06.07.18.07.23 0l4.18 7.1c-1.45 1.27-2.15 2.88-2.15 4.8 0 3.45 2.78 6.26 6.26 6.26 3.47 0 6.3-2.8 6.3-6.33-.04-3.46-2.83-6.27-6.3-6.2zm-27.87-36.66c-2.3 0-4.17-1.9-4.1-4.18 0-2.33 1.9-4.18 4.16-4.18 2.3.06 4.16 1.9 4.16 4.18-.06 2.33-1.9 4.18-4.23 4.18zm18.77 29.02h-11.06l-5.56-9.6 5.56-9.63h11.06l5.57 9.6zm9.16 18.1c-2.32 0-4.17-1.86-4.17-4.13 0-2.34 1.84-4.2 4.16-4.2 2.32 0 4.17 1.86 4.17 4.2 0 2.26-1.85 4.1-4.17 4.1z" stroke="#000" stroke-opacity="0" fill="#fff"/><use xlink:href="#F" transform="matrix(1,0,0,1,290,1289) translate(22.369444444444447 20.8)"/><use xlink:href="#G" transform="matrix(1,0,0,1,290,1289) translate(-0.7055555555555486 52)"/><path d="M743.95 1264.04H731c-.65 0-1.26-.38-1.52-.98l-18.14-38.9h-7.32c-.9 0-1.7-.76-1.7-1.68v-11.22c0-.93.8-1.7 1.7-1.7h16.15c.7 0 1.26.4 1.52 1l18.1 38.88h4.15c.9 0 1.68.76 1.68 1.74v11.17c0 .92-.77 1.7-1.68 1.7zm-11.9-3.44h10.16v-7.73h-3.5c-.64 0-1.25-.38-1.5-.98l-18.07-38.96h-13.38v7.8h6.67c.7 0 1.3.38 1.56.97z" stroke="#fff" stroke-opacity="0" fill="#d86613"/><path d="M708.8 1264.04H695c-.9 0-1.68-.78-1.68-1.72 0-.27.05-.47.17-.7l14.45-30.28c.3-.6.87-.97 1.54-.97.66 0 1.23.34 1.53.94l6.9 14.32c.23.47.23.98 0 1.45l-7.55 16c-.3.6-.87.97-1.54.97zm-11.1-3.4h10.02l6.8-14.28-5.1-10.37z" stroke="#fff" stroke-opacity="0" fill="#d86613"/><path d="M720 1280c-22.08 0-40-17.92-40-40s17.92-40 40-40 40 17.92 40 40-17.92 40-40 40zm0-76.56c-20.24 0-36.56 16.32-36.56 36.56 0 20.24 16.32 36.56 36.56 36.56 20.24 0 36.56-16.32 36.56-36.56 0-20.24-16.32-36.56-36.56-36.56z" stroke="#fff" stroke-opacity="0" fill="#d86613"/><path d="M659.38 1238.53v2.95h-84.4v-2.95zm-154.37 0v2.95H401.5v-2.95z" stroke="#3a414a" stroke-width=".05" fill="#3a414a"/><path d="M401.54 1238.53v2.94H400v-2.94z" fill="#3a414a"/><path stroke="#3a414a" stroke-width=".05" fill="#3a414a"/><path d="M675.15 1240l-14.27 4.64v-9.27z" fill="#3a414a"/><path d="M679.92 1240l-20.5 6.67v-13.33zm-17.56 2.6l8-2.6-8-2.6z" stroke="#3a414a" stroke-width=".05" fill="#3a414a"/><use xlink:href="#H" transform="matrix(1,0,0,1,505.0144456580125,1229.3342665346236) translate(0 14.222222222222223)"/><path d="M559 784.3l1.4 16.82.73 18.2-2.95.12-.74-18.14-1.38-16.7-1.48-11.74h2.98zm-75.42-105.7l3.36.2 3.17.34 3 .44 2.86.55 2.72.64 2.6.73 2.52.8 2.42.9 2.35 1 2.28 1.07 2.22 1.16 2.17 1.25 2.13 1.35 2.1 1.46 2.05 1.55 2.03 1.68 2.02 1.82 2 1.96 2 2.13 1.97 2.3 1.98 2.5 1.98 2.73 1.14 1.7h-3.54l-.02-.02-1.9-2.63-1.9-2.4-1.92-2.2-1.9-2.03-1.92-1.87-1.92-1.73-1.94-1.6-1.96-1.5-2-1.38-2-1.3-2.07-1.18-2.1-1.1-2.18-1.03-2.23-.94-2.3-.86-2.4-.78-2.5-.7-2.6-.6-2.73-.53-2.86-.43-3.05-.32-3.24-.2-2-.04.07-2.94z" stroke="#3a414a" stroke-width=".05" fill="#3a414a"/><path d="M481.57 678.56l-.06 2.95-1.6-.03.1-1.47-.05-1.48z" fill="#3a414a"/><path stroke="#3a414a" stroke-width=".05" fill="#3a414a"/><path d="M559.92 835.15l-4.88-14.2 9.27-.15z" fill="#3a414a"/><path d="M560 839.92l-7-20.4 13.32-.22zm-2.9-17.52l2.74 7.97 2.47-8.06z" stroke="#3a414a" stroke-width=".05" fill="#3a414a"/><use xlink:href="#I" transform="matrix(1,0,0,1,509.8970452540202,708.8638999018877) translate(11.807469135802474 14.222222222222223)"/><use xlink:href="#J" transform="matrix(1,0,0,1,509.8970452540202,708.8638999018877) translate(0.005000000000002558 35.55555555555556)"/><use xlink:href="#K" transform="matrix(1,0,0,1,509.8970452540202,708.8638999018877) translate(42.375370370370376 35.55555555555556)"/><use xlink:href="#L" transform="matrix(1,0,0,1,509.8970452540202,708.8638999018877) translate(15.313641975308645 56.88888888888889)"/><path d="M960 1200h80v80h-80v-80z" stroke="#000" stroke-opacity="0" fill="url(#M)"/><path d="M1013.43 1258.06c-.2.43-.6.7-1.1.7h-24.98c-.67 0-1.22-.54-1.22-1.25v-14.25c0-1.32.5-2.1.94-2.48.4-.38 1.16-.82 2.3-.77h1.66c.22-1.1.72-2.47 1.93-2.47h4.58c1 .2 1.37 1.43 1.54 2.47h11.34c1.1-.05 1.82.4 2.2.77.45.4.94 1.16.94 2.48v.5h5c.45 0 .84.2 1.06.6.22.38.27.83.05 1.2zm-2.36-14.8c0-.4-.1-.62-.17-.67-.05-.07-.22-.12-.44-.12H997.9c-.65 0-1.25-.55-1.25-1.2 0-.23-.06-.84-.1-1.28h-2.87c-.17.44-.28 1.05-.28 1.27 0 .66-.55 1.2-1.27 1.2h-2.86c-.27 0-.44.06-.5.12-.05.04-.16.26-.16.65v13h22.47zm-25-10.2c0 .45 0 .83.06 1.27.12.6-.33 1.2-.93 1.32-1.87.5-5.06 1.98-5.06 6.55v.5c.16 2.6 1.92 4.9 4.5 5.78l-.82 2.37c-3.57-1.22-6-4.4-6.16-8.04-.06-.2-.06-.43-.06-.6 0-4.18 2.2-7.32 6-8.64-.05-.16-.05-.33-.05-.5 0-4.67 3.2-9.57 7.37-11.33 4.96-2.04 10.13-1.05 13.93 2.75 1.04 1.05 1.92 2.3 2.64 3.74.98-.66 2.08-1 3.24-1 2.6 0 5.5 1.88 6.1 6.07 4.7 1.25 7.22 4.44 7.22 8.96 0 1.1-.1 2.14-.44 3.08l-2.37-.7c.22-.68.33-1.5.33-2.38 0-3.63-2.1-5.9-6.16-6.72-.55-.1-.94-.6-1-1.15-.16-3.48-2.1-4.7-3.68-4.7-1.05 0-2.04.56-2.7 1.44-.27.4-.7.55-1.15.5-.5-.1-.84-.4-1-.83-.67-1.8-1.6-3.35-2.8-4.56-1.5-1.43-5.52-4.57-11.2-2.2-3.3 1.38-5.82 5.34-5.82 9.03zm40.02-20.58c.7 0 1.26.55 1.26 1.27v8.75h-2.48v-5.9l-6.77 6.78-1.75-1.76 6.6-6.66h-5.55v-2.48zm-51.3 4.13v5.9h-2.48v-8.75c0-.72.55-1.27 1.27-1.27h8.68v2.48h-5.56l6.6 6.66-1.75 1.76zm50.08 46.8v-5.9h2.48v8.76c0 .7-.55 1.26-1.27 1.26h-8.7v-2.47h5.56l-6.6-6.66 1.75-1.78zm-41.55-5.02l-6.6 6.66h5.55v2.48h-8.7c-.7 0-1.26-.55-1.26-1.26v-8.75h2.48v5.9l6.77-6.78zm30.2-12.1v5.94l3-5.94z" stroke="#000" stroke-opacity="0" fill="#fff"/><use xlink:href="#N" transform="matrix(1,0,0,1,930,1289.00186640258) translate(52.525 14.4)"/><path d="M805.78 1241.48H761.5v-2.95h44.28zm133.6 0h-25.16v-2.95h25.16z" stroke="#3a414a" stroke-width=".05" fill="#3a414a"/><path d="M761.54 1241.48h-1.63l.1-1.48-.05-1.47h1.6z" fill="#3a414a"/><path stroke="#3a414a" stroke-width=".05" fill="#3a414a"/><path d="M955.15 1240l-14.27 4.64v-9.27z" fill="#3a414a"/><path d="M959.92 1240l-20.5 6.67v-13.33zm-17.56 2.6l8-2.6-8-2.6z" stroke="#3a414a" stroke-width=".05" fill="#3a414a"/><use xlink:href="#O" transform="matrix(1,0,0,1,805.7792777627778,1218.6685330692467) translate(0.005000000000002558 14.222222222222223)"/><use xlink:href="#P" transform="matrix(1,0,0,1,805.7792777627778,1218.6685330692467) translate(47.363024691358035 14.222222222222223)"/><use xlink:href="#Q" transform="matrix(1,0,0,1,805.7792777627778,1218.6685330692467) translate(32.05438271604939 35.55555555555556)"/><path d="M361.48 1179.38h-2.96v-165.55h2.96zm164.6-287.9H384.05l-3.58.28-3.44.82-3.26 1.35-3.02 1.85-2.68 2.3-2.3 2.68-1.85 3.02-1.35 3.26-.82 3.44-.28 3.58v78.44h-2.96v-78.56l.3-3.93.95-3.87 1.53-3.7 2.1-3.4 2.58-3.05 3.04-2.6 3.4-2.08 3.7-1.53 3.9-.94 3.92-.3h142.13z" stroke="#3a414a" stroke-width=".05" fill="#3a414a"/><path d="M527.92 891.48h-1.9v-2.96h1.2z" fill="#3a414a"/><path stroke="#3a414a" stroke-width=".05" fill="#3a414a"/><path d="M360 1195.15l-4.63-14.27h9.26z" fill="#3a414a"/><path d="M360 1199.92l-6.67-20.52h13.34zm-2.6-17.57l2.6 8.02 2.6-8z" stroke="#3a414a" stroke-width=".05" fill="#3a414a"/><use xlink:href="#R" transform="matrix(1,0,0,1,306.7654320987654,992.4951195042114) translate(0 14.222222222222223)"/><use xlink:href="#S" transform="matrix(1,0,0,1,306.7654320987654,992.4951195042114) translate(58.17283950617285 14.222222222222223)"/><path d="M360 1465.44a6 6 0 0 1 6-6h148a6 6 0 0 1 6 6v68a6 6 0 0 1-6 6H366a6 6 0 0 1-6-6z" stroke="#3a414a" stroke-width="3" fill="#fff"/><use xlink:href="#T" transform="matrix(1,0,0,1,365,1464.4403872267744) translate(18.016666666666673 25.175)"/><use xlink:href="#U" transform="matrix(1,0,0,1,365,1464.4403872267744) translate(17.29444444444445 56.375)"/><path d="M600 1465.44a6 6 0 0 1 6-6h148a6 6 0 0 1 6 6v68a6 6 0 0 1-6 6H606a6 6 0 0 1-6-6z" stroke="#3a414a" stroke-width="3" fill="#fff"/><use xlink:href="#V" transform="matrix(1,0,0,1,605,1464.4403872267744) translate(42.53611111111111 25.175)"/><use xlink:href="#W" transform="matrix(1,0,0,1,605,1464.4403872267744) translate(6.497222222222234 56.375)"/><path d="M840 1465.44a6 6 0 0 1 6-6h188a6 6 0 0 1 6 6v68a6 6 0 0 1-6 6H846a6 6 0 0 1-6-6z" stroke="#3a414a" stroke-width="3" fill="#fff"/><use xlink:href="#X" transform="matrix(1,0,0,1,845,1464.4403872267744) translate(71.20277777777778 25.175)"/><use xlink:href="#Y" transform="matrix(1,0,0,1,845,1464.4403872267744) translate(8.513888888888886 56.375)"/><path d="M692.2 1354.34l-1.87 3.54-1.54 3.25-1.33 3.12-1.16 3.1-1.02 3.13-.9 3.22-.8 3.38-.23 1.2-2.9-.56.24-1.26.82-3.5.94-3.34 1.06-3.25 1.2-3.2 1.38-3.25 1.6-3.37 1.92-3.65.5-.84h3.4zm27.35-53.56l-.24 1.26-.82 3.5-.94 3.35-.16.5h-3.1l.44-1.37.9-3.23.8-3.38.23-1.2z" stroke="#3a414a" stroke-width=".05" fill="#3a414a"/><path d="M722.85 1299.47l-9.23-.86 5.93-13.76z" fill="#3a414a"/><path d="M724.74 1301.13l-13.27-1.23 8.52-19.82zm-8.96-3.8l5.2.48-1.87-8.2z" stroke="#3a414a" stroke-width=".05" fill="#3a414a"/><path d="M686.38 1379.9l-5.93 13.77-3.3-14.64z" fill="#3a414a"/><path d="M688.53 1378.6l-8.52 19.82-4.74-21.04zm-7.64 10.3l3.32-7.73-5.2-.48z" stroke="#3a414a" stroke-width=".05" fill="#3a414a"/><use xlink:href="#Z" transform="matrix(1,0,0,1,639.0126945699411,1309.3892838755894) translate(44.89388888888888 14.222222222222223)"/><use xlink:href="#aa" transform="matrix(1,0,0,1,639.0126945699411,1309.3892838755894) translate(0.0049999999999954525 35.55555555555556)"/><use xlink:href="#ab" transform="matrix(1,0,0,1,639.0126945699411,1309.3892838755894) translate(94.72104938271605 35.55555555555556)"/><path d="M1240 680h80v80h-80v-80z" stroke="#fff" stroke-opacity="0" stroke-width="2" fill="#3b48cc"/><path d="M1293.6 723.2l-7.07 7.02c1.35-.37 2.43-.8 3.67-1.5.72.43 1.12 1.13 1.27 1.93 0 1.97-4.14 4.1-10.27 4.95-2.03.27-3.7.38-5.73.38h-1.05c-8.64-.16-14.95-2.88-14.95-5.33.1-.8.54-1.44 1.27-1.92 3.34 1.86 8.78 2.98 14.73 2.98h.1l.62-2.12h-.73c-5.88 0-11.32-1.17-14.2-2.98-1.15-.75-1.8-1.6-1.8-2.3v-4.95c3.26 2.5 9.76 3.78 16 3.78.83 0 1.67 0 2.5-.05l.62-2.13c-1.1.05-2.08.1-3.13.1-9.14 0-16-2.82-16-5.32.1-.86.54-1.5 1.27-1.92 2.94 1.66 7.47 2.67 12.6 2.94l.06-2.13c-5.04-.26-9.6-1.33-12.12-2.98-1.16-.7-1.77-1.54-1.8-2.3v-4.9c3.25 2.5 9.75 3.8 16 3.8h.2l1.17-2.14h-1.38c-9.14 0-16-2.77-16-5.33 0-2.5 6.86-5.33 16-5.33 3.23 0 5.98.32 9.14 1.07h5.9c-3.24-1.98-8.76-3.2-15.03-3.2-8.78 0-18.14 2.6-18.14 7.45v8.58c.07 1.28.62 2.35 1.63 3.14-1.02.86-1.56 1.92-1.63 3.2v8.53c.07 1.33.62 2.4 1.63 3.25-1.02.8-1.56 1.87-1.63 3.2v8.74c.3 4.68 9.47 7.18 18.14 7.18s17.85-2.5 18.14-7.25V730.6c-.03-1.28-.6-2.4-1.62-3.2 1-.8 1.56-1.92 1.63-3.2zm-2.13 15.97c0 2.5-6.86 5.33-16 5.33s-16-2.77-16-5.33v-4.9c3.26 2.45 9.76 3.78 16 3.78s12.73-1.33 16-3.78z" stroke="#fff" stroke-opacity="0" stroke-width="2" fill="#fff"/><path d="M1264 709.36c0 .73-.6 1.33-1.33 1.33-.74 0-1.34-.6-1.34-1.35 0-.73.6-1.33 1.34-1.33.73 0 1.33.6 1.33 1.34zM1264 724.3c0 .72-.6 1.32-1.33 1.32-.74 0-1.34-.6-1.34-1.33 0-.75.6-1.34 1.34-1.34.73 0 1.33.6 1.33 1.33zM1264 739.22c0 .74-.6 1.33-1.33 1.33-.74 0-1.34-.6-1.34-1.33 0-.74.6-1.33 1.34-1.33.73 0 1.33.6 1.33 1.32zM1278.13 734.9c-.2 0-.35-.02-.54-.13-.44-.26-.63-.76-.5-1.24l6-19.96h-6.04c-.6.03-1.07-.44-1.07-1.06 0-.17 0-.35.12-.5l6.4-12.8c.17-.37.52-.6.95-.6h13.87c.6-.02 1.07.45 1.1 1.03.03.14 0 .25-.03.4l-2.74 8.17h6c.57.03 1.06.5 1.06 1.08 0 .3-.1.5-.3.73l-23.47 24.55c-.2.25-.48.36-.83.36zm.66-23.44h5.74c.35 0 .64.15.86.4.18.3.26.62.16.94l-5.14 17.07 18.7-19.5h-4.98c-.6 0-1.1-.43-1.13-1 0-.16 0-.3.07-.4l2.72-8.22h-11.74z" stroke="#fff" stroke-opacity="0" stroke-width="2" fill="#fff"/><g><use xlink:href="#F" transform="matrix(1,0,0,1,1210,769) translate(22.369444444444447 20.8)"/><use xlink:href="#ac" transform="matrix(1,0,0,1,1210,769) translate(3.6638888888889056 52)"/></g><path d="M720 1198.5V1044a24 24 0 0 1 24-24h310.5a24 24 0 0 0 24-24V759.38a19.38 19.38 0 0 1 19.38-19.38" stroke="#3a414a" stroke-width="3" fill="none"/><path d="M721.48 1200.1l-1.48-.1-1.48.05v-1.6h2.96z" stroke="#3a414a" stroke-width=".05" fill="#3a414a"/><path d="M1113.65 740l-14.27 4.63v-9.26z" stroke="#3a414a" stroke-width="3" fill="#3a414a"/><path d="M1560 1081.07a6 6 0 0 1 6-6h228a6 6 0 0 1 6 6v84.67a6 6 0 0 1-6 6h-228a6 6 0 0 1-6-6z" stroke="#3a414a" stroke-width="3" fill="#fff"/><g><use xlink:href="#ad" transform="matrix(1,0,0,1,1565,1080.069564427095) translate(24.325000000000017 47.9875)"/><use xlink:href="#ae" transform="matrix(1,0,0,1,1565,1080.069564427095) translate(99.36388888888891 47.9875)"/><use xlink:href="#af" transform="matrix(1,0,0,1,1565,1080.069564427095) translate(159.45277777777778 47.9875)"/></g><path d="M1360 1286a6 6 0 0 1 6-6h148a6 6 0 0 1 6 6v68a6 6 0 0 1-6 6h-148a6 6 0 0 1-6-6z" stroke="#3a414a" stroke-width="3" fill="#fff"/><g><use xlink:href="#ag" transform="matrix(1,0,0,1,1365,1285) translate(15.199999999999996 25.175)"/><use xlink:href="#ah" transform="matrix(1,0,0,1,1365,1285) translate(94.42777777777778 25.175)"/><use xlink:href="#ai" transform="matrix(1,0,0,1,1365,1285) translate(47.15833333333334 56.375)"/></g><path d="M1600 1286a6 6 0 0 1 6-6h148a6 6 0 0 1 6 6v68a6 6 0 0 1-6 6h-148a6 6 0 0 1-6-6z" stroke="#3a414a" stroke-width="3" fill="#fff"/><g><use xlink:href="#aj" transform="matrix(1,0,0,1,1605,1285) translate(21.591666666666676 25.175)"/><use xlink:href="#ak" transform="matrix(1,0,0,1,1605,1285) translate(111.07499999999999 25.175)"/><use xlink:href="#al" transform="matrix(1,0,0,1,1605,1285) translate(46.25555555555556 56.375)"/></g><path d="M1840 1286a6 6 0 0 1 6-6h148a6 6 0 0 1 6 6v68a6 6 0 0 1-6 6h-148a6 6 0 0 1-6-6z" stroke="#3a414a" stroke-width="3" fill="#fff"/><g><use xlink:href="#am" transform="matrix(1,0,0,1,1845,1285) translate(10.794444444444451 25.175)"/><use xlink:href="#ak" transform="matrix(1,0,0,1,1845,1285) translate(121.8722222222222 25.175)"/><use xlink:href="#an" transform="matrix(1,0,0,1,1845,1285) translate(11.516666666666673 56.375)"/></g><path d="M1680 1174.74v19.33" stroke="#3a414a" stroke-width="3" stroke-linejoin="round" fill="none"/><path d="M1681.47 1174.78h-2.94v-1.54h2.94z" stroke="#3a414a" stroke-width=".05" fill="#3a414a"/><path d="M1680 1209.84l-4.63-14.27h9.27z" stroke="#3a414a" stroke-width="3" fill="#3a414a"/><path d="M1656.06 918.52l3.93.3 3.87.95 3.7 1.53 3.4 2.1 3.05 2.58 2.6 3.04 2.08 3.4 1.53 3.7.94 3.9.3 3.92v33.94h-2.94v-33.82l-.3-3.58-.8-3.44-1.36-3.26-1.85-3.02-2.3-2.68-2.68-2.3-3.02-1.85-3.26-1.35-3.44-.82-3.58-.28h-78.58v-2.96zm-374.3-19l.82 3.44 1.35 3.26 1.85 3.02 2.3 2.68 2.68 2.3 3.02 1.85 3.26 1.35 3.44.82 3.58.28h150.05v2.96h-150.16l-3.93-.3-3.87-.95-3.7-1.53-3.4-2.1-3.05-2.58-2.6-3.04-2.08-3.4-1.53-3.7-.94-3.9-.3-3.92V843h2.94v52.94z" stroke="#3a414a" stroke-width=".05" fill="#3a414a"/><path d="M1281.47 843.04h-2.94v-1.54h2.94z" fill="#3a414a"/><path stroke="#3a414a" stroke-width=".05" fill="#3a414a"/><path d="M1680 993.65l-4.63-14.27h9.27z" fill="#3a414a"/><path d="M1680 998.42l-6.66-20.5h13.33zm-2.6-17.56l2.6 8 2.6-8z" stroke="#3a414a" stroke-width=".05" fill="#3a414a"/><g><use xlink:href="#ao" transform="matrix(1,0,0,1,1454.104960164444,909.3333333333334) translate(0 14.222222222222223)"/><use xlink:href="#ap" transform="matrix(1,0,0,1,1454.104960164444,909.3333333333334) translate(84.83950617283952 14.222222222222223)"/></g><path d="M441.48 619.38h-2.96V510.84h2.96zm0-129.87h-2.96v-88h2.96z" stroke="#3a414a" stroke-width=".05" fill="#3a414a"/><path d="M441.48 401.54h-2.96V400h2.96z" fill="#3a414a"/><path stroke="#3a414a" stroke-width=".05" fill="#3a414a"/><path d="M440 635.15l-4.63-14.27h9.26z" fill="#3a414a"/><path d="M440 639.92l-6.67-20.5h13.34zm-2.6-17.56l2.6 8 2.6-8z" stroke="#3a414a" stroke-width=".05" fill="#3a414a"/><g><use xlink:href="#aq" transform="matrix(1,0,0,1,359.60493827160496,489.5062030316134) translate(0 14.222222222222223)"/><use xlink:href="#ar" transform="matrix(1,0,0,1,359.60493827160496,489.5062030316134) translate(74.9135802469136 14.222222222222223)"/><use xlink:href="#as" transform="matrix(1,0,0,1,359.60493827160496,489.5062030316134) translate(128.24691358024694 14.222222222222223)"/></g><defs><path d="M30-248c118-7 216 8 213 122C240-48 200 0 122 0H30v-248zM63-27c89 8 146-16 146-99s-60-101-146-95v194" id="at"/><path d="M141-36C126-15 110 5 73 4 37 3 15-17 15-53c-1-64 63-63 125-63 3-35-9-54-41-54-24 1-41 7-42 31l-33-3c5-37 33-52 76-52 45 0 72 20 72 64v82c-1 20 7 32 28 27v20c-31 9-61-2-59-35zM48-53c0 20 12 33 32 33 41-3 63-29 60-74-43 2-92-5-92 41" id="au"/><path d="M59-47c-2 24 18 29 38 22v24C64 9 27 4 27-40v-127H5v-23h24l9-43h21v43h35v23H59v120" id="av"/><g id="a"><use transform="matrix(0.07222222222222222,0,0,0.07222222222222222,0,0)" xlink:href="#at"/><use transform="matrix(0.07222222222222222,0,0,0.07222222222222222,18.705555555555552,0)" xlink:href="#au"/><use transform="matrix(0.07222222222222222,0,0,0.07222222222222222,33.14999999999999,0)" xlink:href="#av"/><use transform="matrix(0.07222222222222222,0,0,0.07222222222222222,40.37222222222221,0)" xlink:href="#au"/></g><path d="M212-179c-10-28-35-45-73-45-59 0-87 40-87 99 0 60 29 101 89 101 43 0 62-24 78-52l27 14C228-24 195 4 139 4 59 4 22-46 18-125c-6-104 99-153 187-111 19 9 31 26 39 46" id="aw"/><path d="M100-194c62-1 85 37 85 99 1 63-27 99-86 99S16-35 15-95c0-66 28-99 85-99zM99-20c44 1 53-31 53-75 0-43-8-75-51-75s-53 32-53 75 10 74 51 75" id="ax"/><path d="M24 0v-261h32V0H24" id="ay"/><path d="M100-194c63 0 86 42 84 106H49c0 40 14 67 53 68 26 1 43-12 49-29l28 8c-11 28-37 45-77 45C44 4 14-33 15-96c1-61 26-98 85-98zm52 81c6-60-76-77-97-28-3 7-6 17-6 28h103" id="az"/><path d="M96-169c-40 0-48 33-48 73s9 75 48 75c24 0 41-14 43-38l32 2c-6 37-31 61-74 61-59 0-76-41-82-99-10-93 101-131 147-64 4 7 5 14 7 22l-32 3c-4-21-16-35-41-35" id="aA"/><path d="M24-231v-30h32v30H24zM24 0v-190h32V0H24" id="aB"/><path d="M117-194c89-4 53 116 60 194h-32v-121c0-31-8-49-39-48C34-167 62-67 57 0H25l-1-190h30c1 10-1 24 2 32 11-22 29-35 61-36" id="aC"/><g id="b"><use transform="matrix(0.07222222222222222,0,0,0.07222222222222222,0,0)" xlink:href="#aw"/><use transform="matrix(0.07222222222222222,0,0,0.07222222222222222,18.705555555555552,0)" xlink:href="#ax"/><use transform="matrix(0.07222222222222222,0,0,0.07222222222222222,33.14999999999999,0)" xlink:href="#ay"/><use transform="matrix(0.07222222222222222,0,0,0.07222222222222222,38.85555555555555,0)" xlink:href="#ay"/><use transform="matrix(0.07222222222222222,0,0,0.07222222222222222,44.56111111111111,0)" xlink:href="#az"/><use transform="matrix(0.07222222222222222,0,0,0.07222222222222222,59.00555555555554,0)" xlink:href="#aA"/><use transform="matrix(0.07222222222222222,0,0,0.07222222222222222,72.00555555555555,0)" xlink:href="#av"/><use transform="matrix(0.07222222222222222,0,0,0.07222222222222222,79.22777777777776,0)" xlink:href="#aB"/><use transform="matrix(0.07222222222222222,0,0,0.07222222222222222,84.93333333333331,0)" xlink:href="#ax"/><use transform="matrix(0.07222222222222222,0,0,0.07222222222222222,99.37777777777775,0)" xlink:href="#aC"/></g><path d="M30 0v-248h33v221h125V0H30" id="aD"/><path d="M179-190L93 31C79 59 56 82 12 73V49c39 6 53-20 64-50L1-190h34L92-34l54-156h33" id="aE"/><path d="M114-163C36-179 61-72 57 0H25l-1-190h30c1 12-1 29 2 39 6-27 23-49 58-41v29" id="aF"/><g id="c"><use transform="matrix(0.07222222222222222,0,0,0.07222222222222222,0,0)" xlink:href="#aD"/><use transform="matrix(0.07222222222222222,0,0,0.07222222222222222,14.444444444444443,0)" xlink:href="#au"/><use transform="matrix(0.07222222222222222,0,0,0.07222222222222222,28.888888888888886,0)" xlink:href="#aE"/><use transform="matrix(0.07222222222222222,0,0,0.07222222222222222,41.888888888888886,0)" xlink:href="#az"/><use transform="matrix(0.07222222222222222,0,0,0.07222222222222222,56.33333333333333,0)" xlink:href="#aF"/></g><path d="M266 0h-40l-56-210L115 0H75L2-248h35L96-30l15-64 43-154h32l59 218 59-218h35" id="aG"/><path d="M115-194c53 0 69 39 70 98 0 66-23 100-70 100C84 3 66-7 56-30L54 0H23l1-261h32v101c10-23 28-34 59-34zm-8 174c40 0 45-34 45-75 0-40-5-75-45-74-42 0-51 32-51 76 0 43 10 73 51 73" id="aH"/><path d="M135-143c-3-34-86-38-87 0 15 53 115 12 119 90S17 21 10-45l28-5c4 36 97 45 98 0-10-56-113-15-118-90-4-57 82-63 122-42 12 7 21 19 24 35" id="aI"/><g id="d"><use transform="matrix(0.07222222222222222,0,0,0.07222222222222222,0,0)" xlink:href="#aG"/><use transform="matrix(0.07222222222222222,0,0,0.07222222222222222,23.977777777777774,0)" xlink:href="#az"/><use transform="matrix(0.07222222222222222,0,0,0.07222222222222222,38.42222222222222,0)" xlink:href="#aH"/><use transform="matrix(0.07222222222222222,0,0,0.07222222222222222,52.86666666666666,0)" xlink:href="#aI"/><use transform="matrix(0.07222222222222222,0,0,0.07222222222222222,65.86666666666666,0)" xlink:href="#aB"/><use transform="matrix(0.07222222222222222,0,0,0.07222222222222222,71.57222222222221,0)" xlink:href="#av"/><use transform="matrix(0.07222222222222222,0,0,0.07222222222222222,78.79444444444442,0)" xlink:href="#az"/></g><g id="e"><use transform="matrix(0.07222222222222222,0,0,0.07222222222222222,0,0)" xlink:href="#av"/><use transform="matrix(0.07222222222222222,0,0,0.07222222222222222,7.222222222222221,0)" xlink:href="#ax"/></g><path d="M115-194c55 1 70 41 70 98S169 2 115 4C84 4 66-9 55-30l1 105H24l-1-265h31l2 30c10-21 28-34 59-34zm-8 174c40 0 45-34 45-75s-6-73-45-74c-42 0-51 32-51 76 0 43 10 73 51 73" id="aJ"/><g id="f"><use transform="matrix(0.07222222222222222,0,0,0.07222222222222222,0,0)" xlink:href="#aI"/><use transform="matrix(0.07222222222222222,0,0,0.07222222222222222,12.999999999999998,0)" xlink:href="#aA"/><use transform="matrix(0.07222222222222222,0,0,0.07222222222222222,25.999999999999996,0)" xlink:href="#aF"/><use transform="matrix(0.07222222222222222,0,0,0.07222222222222222,34.59444444444444,0)" xlink:href="#au"/><use transform="matrix(0.07222222222222222,0,0,0.07222222222222222,49.038888888888884,0)" xlink:href="#aJ"/></g><g id="g"><use transform="matrix(0.07222222222222222,0,0,0.07222222222222222,0,0)" xlink:href="#at"/><use transform="matrix(0.07222222222222222,0,0,0.07222222222222222,18.705555555555552,0)" xlink:href="#au"/><use transform="matrix(0.07222222222222222,0,0,0.07222222222222222,33.14999999999999,0)" xlink:href="#av"/><use transform="matrix(0.07222222222222222,0,0,0.07222222222222222,40.37222222222221,0)" xlink:href="#au"/></g><path d="M30-248c87 1 191-15 191 75 0 78-77 80-158 76V0H30v-248zm33 125c57 0 124 11 124-50 0-59-68-47-124-48v98" id="aK"/><path d="M177-190C167-65 218 103 67 71c-23-6-38-20-44-43l32-5c15 47 100 32 89-28v-30C133-14 115 1 83 1 29 1 15-40 15-95c0-56 16-97 71-98 29-1 48 16 59 35 1-10 0-23 2-32h30zM94-22c36 0 50-32 50-73 0-42-14-75-50-75-39 0-46 34-46 75s6 73 46 73" id="aL"/><g id="h"><use transform="matrix(0.07222222222222222,0,0,0.07222222222222222,0,0)" xlink:href="#aK"/><use transform="matrix(0.07222222222222222,0,0,0.07222222222222222,17.333333333333332,0)" xlink:href="#aF"/><use transform="matrix(0.07222222222222222,0,0,0.07222222222222222,25.927777777777774,0)" xlink:href="#ax"/><use transform="matrix(0.07222222222222222,0,0,0.07222222222222222,40.37222222222222,0)" xlink:href="#aA"/><use transform="matrix(0.07222222222222222,0,0,0.07222222222222222,53.37222222222222,0)" xlink:href="#az"/><use transform="matrix(0.07222222222222222,0,0,0.07222222222222222,67.81666666666666,0)" xlink:href="#aI"/><use transform="matrix(0.07222222222222222,0,0,0.07222222222222222,80.81666666666666,0)" xlink:href="#aI"/><use transform="matrix(0.07222222222222222,0,0,0.07222222222222222,93.81666666666666,0)" xlink:href="#aB"/><use transform="matrix(0.07222222222222222,0,0,0.07222222222222222,99.52222222222221,0)" xlink:href="#aC"/><use transform="matrix(0.07222222222222222,0,0,0.07222222222222222,113.96666666666665,0)" xlink:href="#aL"/></g><g id="i"><use transform="matrix(0.07222222222222222,0,0,0.07222222222222222,0,0)" xlink:href="#aD"/><use transform="matrix(0.07222222222222222,0,0,0.07222222222222222,14.444444444444443,0)" xlink:href="#au"/><use transform="matrix(0.07222222222222222,0,0,0.07222222222222222,28.888888888888886,0)" xlink:href="#aE"/><use transform="matrix(0.07222222222222222,0,0,0.07222222222222222,41.888888888888886,0)" xlink:href="#az"/><use transform="matrix(0.07222222222222222,0,0,0.07222222222222222,56.33333333333333,0)" xlink:href="#aF"/></g><path d="M190 0L58-211 59 0H30v-248h39L202-35l-2-213h31V0h-41" id="aM"/><path d="M206 0h-36l-40-164L89 0H53L-1-190h32L70-26l43-164h34l41 164 42-164h31" id="aN"/><path d="M143 0L79-87 56-68V0H24v-261h32v163l83-92h37l-77 82L181 0h-38" id="aO"/><g id="j"><use transform="matrix(0.06172839506172839,0,0,0.06172839506172839,0,0)" xlink:href="#aM"/><use transform="matrix(0.06172839506172839,0,0,0.06172839506172839,15.987654320987653,0)" xlink:href="#az"/><use transform="matrix(0.06172839506172839,0,0,0.06172839506172839,28.333333333333332,0)" xlink:href="#av"/><use transform="matrix(0.06172839506172839,0,0,0.06172839506172839,34.50617283950617,0)" xlink:href="#aN"/><use transform="matrix(0.06172839506172839,0,0,0.06172839506172839,50.49382716049382,0)" xlink:href="#ax"/><use transform="matrix(0.06172839506172839,0,0,0.06172839506172839,62.8395061728395,0)" xlink:href="#aF"/><use transform="matrix(0.06172839506172839,0,0,0.06172839506172839,70.18518518518518,0)" xlink:href="#aO"/></g><path d="M185-189c-5-48-123-54-124 2 14 75 158 14 163 119 3 78-121 87-175 55-17-10-28-26-33-46l33-7c5 56 141 63 141-1 0-78-155-14-162-118-5-82 145-84 179-34 5 7 8 16 11 25" id="aP"/><path d="M84 4C-5 8 30-112 23-190h32v120c0 31 7 50 39 49 72-2 45-101 50-169h31l1 190h-30c-1-10 1-25-2-33-11 22-28 36-60 37" id="aQ"/><g id="k"><use transform="matrix(0.06172839506172839,0,0,0.06172839506172839,0,0)" xlink:href="#aP"/><use transform="matrix(0.06172839506172839,0,0,0.06172839506172839,14.814814814814813,0)" xlink:href="#az"/><use transform="matrix(0.06172839506172839,0,0,0.06172839506172839,27.160493827160494,0)" xlink:href="#aA"/><use transform="matrix(0.06172839506172839,0,0,0.06172839506172839,38.27160493827161,0)" xlink:href="#aQ"/><use transform="matrix(0.06172839506172839,0,0,0.06172839506172839,50.617283950617285,0)" xlink:href="#aF"/><use transform="matrix(0.06172839506172839,0,0,0.06172839506172839,57.96296296296296,0)" xlink:href="#aB"/><use transform="matrix(0.06172839506172839,0,0,0.06172839506172839,62.839506172839506,0)" xlink:href="#av"/><use transform="matrix(0.06172839506172839,0,0,0.06172839506172839,69.01234567901234,0)" xlink:href="#aE"/></g><path d="M143 4C61 4 22-44 18-125c-5-107 100-154 193-111 17 8 29 25 37 43l-32 9c-13-25-37-40-76-40-61 0-88 39-88 99 0 61 29 100 91 101 35 0 62-11 79-27v-45h-74v-28h105v86C228-13 192 4 143 4" id="aR"/><g id="l"><use transform="matrix(0.06172839506172839,0,0,0.06172839506172839,0,0)" xlink:href="#aR"/><use transform="matrix(0.06172839506172839,0,0,0.06172839506172839,17.28395061728395,0)" xlink:href="#aF"/><use transform="matrix(0.06172839506172839,0,0,0.06172839506172839,24.629629629629626,0)" xlink:href="#ax"/><use transform="matrix(0.06172839506172839,0,0,0.06172839506172839,36.9753086419753,0)" xlink:href="#aQ"/><use transform="matrix(0.06172839506172839,0,0,0.06172839506172839,49.32098765432098,0)" xlink:href="#aJ"/></g><path fill="#dd3522" d="M240 0l2-218c-23 76-54 145-80 218h-23L58-218 59 0H30v-248h44l77 211c21-75 51-140 76-211h43V0h-30" id="aS"/><path fill="#dd3522" d="M30 0v-248h33v221h125V0H30" id="aT"/><g id="m"><use transform="matrix(0.05,0,0,0.05,0,0)" xlink:href="#aS"/><use transform="matrix(0.05,0,0,0.05,14.950000000000001,0)" xlink:href="#aT"/></g><path fill="#dd3522" d="M30-248c87 1 191-15 191 75 0 78-77 80-158 76V0H30v-248zm33 125c57 0 124 11 124-50 0-59-68-47-124-48v98" id="aU"/><path fill="#dd3522" d="M114-163C36-179 61-72 57 0H25l-1-190h30c1 12-1 29 2 39 6-27 23-49 58-41v29" id="aV"/><path fill="#dd3522" d="M100-194c62-1 85 37 85 99 1 63-27 99-86 99S16-35 15-95c0-66 28-99 85-99zM99-20c44 1 53-31 53-75 0-43-8-75-51-75s-53 32-53 75 10 74 51 75" id="aW"/><path fill="#dd3522" d="M96-169c-40 0-48 33-48 73s9 75 48 75c24 0 41-14 43-38l32 2c-6 37-31 61-74 61-59 0-76-41-82-99-10-93 101-131 147-64 4 7 5 14 7 22l-32 3c-4-21-16-35-41-35" id="aX"/><path fill="#dd3522" d="M100-194c63 0 86 42 84 106H49c0 40 14 67 53 68 26 1 43-12 49-29l28 8c-11 28-37 45-77 45C44 4 14-33 15-96c1-61 26-98 85-98zm52 81c6-60-76-77-97-28-3 7-6 17-6 28h103" id="aY"/><path fill="#dd3522" d="M135-143c-3-34-86-38-87 0 15 53 115 12 119 90S17 21 10-45l28-5c4 36 97 45 98 0-10-56-113-15-118-90-4-57 82-63 122-42 12 7 21 19 24 35" id="aZ"/><path fill="#dd3522" d="M24-231v-30h32v30H24zM24 0v-190h32V0H24" id="ba"/><path fill="#dd3522" d="M117-194c89-4 53 116 60 194h-32v-121c0-31-8-49-39-48C34-167 62-67 57 0H25l-1-190h30c1 10-1 24 2 32 11-22 29-35 61-36" id="bb"/><path fill="#dd3522" d="M177-190C167-65 218 103 67 71c-23-6-38-20-44-43l32-5c15 47 100 32 89-28v-30C133-14 115 1 83 1 29 1 15-40 15-95c0-56 16-97 71-98 29-1 48 16 59 35 1-10 0-23 2-32h30zM94-22c36 0 50-32 50-73 0-42-14-75-50-75-39 0-46 34-46 75s6 73 46 73" id="bc"/><g id="n"><use transform="matrix(0.05,0,0,0.05,0,0)" xlink:href="#aU"/><use transform="matrix(0.05,0,0,0.05,12,0)" xlink:href="#aV"/><use transform="matrix(0.05,0,0,0.05,17.95,0)" xlink:href="#aW"/><use transform="matrix(0.05,0,0,0.05,27.950000000000003,0)" xlink:href="#aX"/><use transform="matrix(0.05,0,0,0.05,36.95,0)" xlink:href="#aY"/><use transform="matrix(0.05,0,0,0.05,46.95,0)" xlink:href="#aZ"/><use transform="matrix(0.05,0,0,0.05,55.95,0)" xlink:href="#aZ"/><use transform="matrix(0.05,0,0,0.05,64.95,0)" xlink:href="#ba"/><use transform="matrix(0.05,0,0,0.05,68.9,0)" xlink:href="#bb"/><use transform="matrix(0.05,0,0,0.05,78.9,0)" xlink:href="#bc"/></g><g id="o"><use transform="matrix(0.07222222222222222,0,0,0.07222222222222222,0,0)" xlink:href="#aP"/><use transform="matrix(0.07222222222222222,0,0,0.07222222222222222,17.333333333333332,0)" xlink:href="#av"/><use transform="matrix(0.07222222222222222,0,0,0.07222222222222222,24.555555555555554,0)" xlink:href="#ax"/><use transform="matrix(0.07222222222222222,0,0,0.07222222222222222,38.99999999999999,0)" xlink:href="#aF"/><use transform="matrix(0.07222222222222222,0,0,0.07222222222222222,47.59444444444444,0)" xlink:href="#au"/><use transform="matrix(0.07222222222222222,0,0,0.07222222222222222,62.038888888888884,0)" xlink:href="#aL"/><use transform="matrix(0.07222222222222222,0,0,0.07222222222222222,76.48333333333332,0)" xlink:href="#az"/></g><g id="p"><use transform="matrix(0.07222222222222222,0,0,0.07222222222222222,0,0)" xlink:href="#aK"/><use transform="matrix(0.07222222222222222,0,0,0.07222222222222222,17.333333333333332,0)" xlink:href="#aF"/><use transform="matrix(0.07222222222222222,0,0,0.07222222222222222,25.927777777777774,0)" xlink:href="#az"/><use transform="matrix(0.07222222222222222,0,0,0.07222222222222222,40.37222222222222,0)" xlink:href="#aI"/><use transform="matrix(0.07222222222222222,0,0,0.07222222222222222,53.37222222222222,0)" xlink:href="#az"/><use transform="matrix(0.07222222222222222,0,0,0.07222222222222222,67.81666666666666,0)" xlink:href="#aC"/><use transform="matrix(0.07222222222222222,0,0,0.07222222222222222,82.2611111111111,0)" xlink:href="#av"/><use transform="matrix(0.07222222222222222,0,0,0.07222222222222222,89.48333333333332,0)" xlink:href="#au"/><use transform="matrix(0.07222222222222222,0,0,0.07222222222222222,103.92777777777776,0)" xlink:href="#av"/><use transform="matrix(0.07222222222222222,0,0,0.07222222222222222,111.14999999999998,0)" xlink:href="#aB"/><use transform="matrix(0.07222222222222222,0,0,0.07222222222222222,116.85555555555553,0)" xlink:href="#ax"/><use transform="matrix(0.07222222222222222,0,0,0.07222222222222222,131.29999999999995,0)" xlink:href="#aC"/></g><path fill="#dd3522" d="M232-93c-1 65-40 97-104 97C67 4 28-28 28-90v-158h33c8 89-33 224 67 224 102 0 64-133 71-224h33v155" id="bd"/><path fill="#dd3522" d="M33 0v-248h34V0H33" id="be"/><g id="q"><use transform="matrix(0.07407407407407408,0,0,0.07407407407407408,0,0)" xlink:href="#bd"/><use transform="matrix(0.07407407407407408,0,0,0.07407407407407408,19.185185185185187,0)" xlink:href="#be"/></g><path fill="#dd3522" d="M63-220v92h138v28H63V0H30v-248h175v28H63" id="bf"/><path fill="#dd3522" d="M141-36C126-15 110 5 73 4 37 3 15-17 15-53c-1-64 63-63 125-63 3-35-9-54-41-54-24 1-41 7-42 31l-33-3c5-37 33-52 76-52 45 0 72 20 72 64v82c-1 20 7 32 28 27v20c-31 9-61-2-59-35zM48-53c0 20 12 33 32 33 41-3 63-29 60-74-43 2-92-5-92 41" id="bg"/><path fill="#dd3522" d="M59-47c-2 24 18 29 38 22v24C64 9 27 4 27-40v-127H5v-23h24l9-43h21v43h35v23H59v120" id="bh"/><path fill="#dd3522" d="M84 4C-5 8 30-112 23-190h32v120c0 31 7 50 39 49 72-2 45-101 50-169h31l1 190h-30c-1-10 1-25-2-33-11 22-28 36-60 37" id="bi"/><g id="r"><use transform="matrix(0.07407407407407408,0,0,0.07407407407407408,0,0)" xlink:href="#bf"/><use transform="matrix(0.07407407407407408,0,0,0.07407407407407408,16.222222222222225,0)" xlink:href="#aY"/><use transform="matrix(0.07407407407407408,0,0,0.07407407407407408,31.03703703703704,0)" xlink:href="#bg"/><use transform="matrix(0.07407407407407408,0,0,0.07407407407407408,45.851851851851855,0)" xlink:href="#bh"/><use transform="matrix(0.07407407407407408,0,0,0.07407407407407408,53.25925925925927,0)" xlink:href="#bi"/><use transform="matrix(0.07407407407407408,0,0,0.07407407407407408,68.07407407407408,0)" xlink:href="#aV"/><use transform="matrix(0.07407407407407408,0,0,0.07407407407407408,76.88888888888889,0)" xlink:href="#aY"/><use transform="matrix(0.07407407407407408,0,0,0.07407407407407408,91.7037037037037,0)" xlink:href="#aZ"/></g><linearGradient gradientUnits="userSpaceOnUse" id="s" x1="400" y1="400" x2="480" y2="320"><stop offset="0%" stop-color="#b0084d"/><stop offset="100%" stop-color="#ff4f8b"/></linearGradient><path d="M205 0l-28-72H64L36 0H1l101-248h38L239 0h-34zm-38-99l-47-123c-12 45-31 82-46 123h93" id="bj"/><path d="M210-169c-67 3-38 105-44 169h-31v-121c0-29-5-50-35-48C34-165 62-65 56 0H25l-1-190h30c1 10-1 24 2 32 10-44 99-50 107 0 11-21 27-35 58-36 85-2 47 119 55 194h-31v-121c0-29-5-49-35-48" id="bk"/><path d="M9 0v-24l116-142H16v-24h144v24L44-24h123V0H9" id="bl"/><g id="t"><use transform="matrix(0.05,0,0,0.05,0,0)" xlink:href="#bj"/><use transform="matrix(0.05,0,0,0.05,12,0)" xlink:href="#bk"/><use transform="matrix(0.05,0,0,0.05,26.950000000000003,0)" xlink:href="#au"/><use transform="matrix(0.05,0,0,0.05,36.95,0)" xlink:href="#bl"/><use transform="matrix(0.05,0,0,0.05,45.95,0)" xlink:href="#ax"/><use transform="matrix(0.05,0,0,0.05,55.95,0)" xlink:href="#aC"/></g><path d="M30 0v-248h187v28H63v79h144v27H63v87h162V0H30" id="bm"/><path d="M108 0H70L1-190h34L89-25l56-165h34" id="bn"/><path d="M160-131c35 5 61 23 61 61C221 17 115-2 30 0v-248c76 3 177-17 177 60 0 33-19 50-47 57zm-97-11c50-1 110 9 110-42 0-47-63-36-110-37v79zm0 115c55-2 124 14 124-45 0-56-70-42-124-44v89" id="bo"/><path d="M85-194c31 0 48 13 60 33l-1-100h32l1 261h-30c-2-10 0-23-3-31C134-8 116 4 85 4 32 4 16-35 15-94c0-66 23-100 70-100zm9 24c-40 0-46 34-46 75 0 40 6 74 45 74 42 0 51-32 51-76 0-42-9-74-50-73" id="bp"/><g id="u"><use transform="matrix(0.05,0,0,0.05,0,0)" xlink:href="#bm"/><use transform="matrix(0.05,0,0,0.05,12,0)" xlink:href="#bn"/><use transform="matrix(0.05,0,0,0.05,21,0)" xlink:href="#az"/><use transform="matrix(0.05,0,0,0.05,31,0)" xlink:href="#aC"/><use transform="matrix(0.05,0,0,0.05,41,0)" xlink:href="#av"/><use transform="matrix(0.05,0,0,0.05,46,0)" xlink:href="#bo"/><use transform="matrix(0.05,0,0,0.05,58,0)" xlink:href="#aF"/><use transform="matrix(0.05,0,0,0.05,63.95,0)" xlink:href="#aB"/><use transform="matrix(0.05,0,0,0.05,67.9,0)" xlink:href="#bp"/><use transform="matrix(0.05,0,0,0.05,77.9,0)" xlink:href="#aL"/><use transform="matrix(0.05,0,0,0.05,87.9,0)" xlink:href="#az"/></g><g id="v"><use transform="matrix(0.05555555555555555,0,0,0.05555555555555555,0,0)" xlink:href="#aD"/><use transform="matrix(0.05555555555555555,0,0,0.05555555555555555,11.11111111111111,0)" xlink:href="#au"/><use transform="matrix(0.05555555555555555,0,0,0.05555555555555555,22.22222222222222,0)" xlink:href="#bk"/><use transform="matrix(0.05555555555555555,0,0,0.05555555555555555,38.83333333333333,0)" xlink:href="#aH"/><use transform="matrix(0.05555555555555555,0,0,0.05555555555555555,49.94444444444444,0)" xlink:href="#bp"/><use transform="matrix(0.05555555555555555,0,0,0.05555555555555555,61.05555555555555,0)" xlink:href="#au"/></g><path d="M63-220v92h138v28H63V0H30v-248h175v28H63" id="bq"/><g id="w"><use transform="matrix(0.05555555555555555,0,0,0.05555555555555555,0,0)" xlink:href="#bq"/><use transform="matrix(0.05555555555555555,0,0,0.05555555555555555,12.166666666666666,0)" xlink:href="#aQ"/><use transform="matrix(0.05555555555555555,0,0,0.05555555555555555,23.27777777777778,0)" xlink:href="#aC"/><use transform="matrix(0.05555555555555555,0,0,0.05555555555555555,34.388888888888886,0)" xlink:href="#aA"/><use transform="matrix(0.05555555555555555,0,0,0.05555555555555555,44.388888888888886,0)" xlink:href="#av"/><use transform="matrix(0.05555555555555555,0,0,0.05555555555555555,49.94444444444444,0)" xlink:href="#aB"/><use transform="matrix(0.05555555555555555,0,0,0.05555555555555555,54.33333333333333,0)" xlink:href="#ax"/><use transform="matrix(0.05555555555555555,0,0,0.05555555555555555,65.44444444444444,0)" xlink:href="#aC"/></g><path d="M87 75C49 33 22-17 22-94c0-76 28-126 65-167h31c-38 41-64 92-64 168S80 34 118 75H87" id="br"/><g id="x"><use transform="matrix(0.05555555555555555,0,0,0.05555555555555555,0,0)" xlink:href="#br"/><use transform="matrix(0.05555555555555555,0,0,0.05555555555555555,6.611111111111111,0)" xlink:href="#aM"/><use transform="matrix(0.05555555555555555,0,0,0.05555555555555555,21,0)" xlink:href="#az"/><use transform="matrix(0.05555555555555555,0,0,0.05555555555555555,32.111111111111114,0)" xlink:href="#aN"/><use transform="matrix(0.05555555555555555,0,0,0.05555555555555555,46.5,0)" xlink:href="#aI"/></g><path d="M33-261c38 41 65 92 65 168S71 34 33 75H2C39 34 66-17 66-93S39-220 2-261h31" id="bs"/><g id="y"><use transform="matrix(0.05555555555555555,0,0,0.05555555555555555,0,0)" xlink:href="#aP"/><use transform="matrix(0.05555555555555555,0,0,0.05555555555555555,13.333333333333332,0)" xlink:href="#aA"/><use transform="matrix(0.05555555555555555,0,0,0.05555555555555555,23.333333333333332,0)" xlink:href="#aF"/><use transform="matrix(0.05555555555555555,0,0,0.05555555555555555,29.944444444444443,0)" xlink:href="#au"/><use transform="matrix(0.05555555555555555,0,0,0.05555555555555555,41.05555555555556,0)" xlink:href="#aJ"/><use transform="matrix(0.05555555555555555,0,0,0.05555555555555555,52.16666666666667,0)" xlink:href="#aJ"/><use transform="matrix(0.05555555555555555,0,0,0.05555555555555555,63.277777777777786,0)" xlink:href="#az"/><use transform="matrix(0.05555555555555555,0,0,0.05555555555555555,74.3888888888889,0)" xlink:href="#aF"/><use transform="matrix(0.05555555555555555,0,0,0.05555555555555555,81.00000000000001,0)" xlink:href="#bs"/></g><path fill="#333" d="M169-182c-1-43-94-46-97-3 18 66 151 10 154 114 3 95-165 93-204 36-6-8-10-19-12-30l50-8c3 46 112 56 116 5-17-69-150-10-154-114-4-87 153-88 188-35 5 8 8 18 10 28" id="bt"/><path fill="#333" d="M190-63c-7 42-38 67-86 67-59 0-84-38-90-98-12-110 154-137 174-36l-49 2c-2-19-15-32-35-32-30 0-35 28-38 64-6 74 65 87 74 30" id="bu"/><path fill="#333" d="M135-150c-39-12-60 13-60 57V0H25l-1-190h47c2 13-1 29 3 40 6-28 27-53 61-41v41" id="bv"/><path fill="#333" d="M133-34C117-15 103 5 69 4 32 3 11-16 11-54c-1-60 55-63 116-61 1-26-3-47-28-47-18 1-26 9-28 27l-52-2c7-38 36-58 82-57s74 22 75 68l1 82c-1 14 12 18 25 15v27c-30 8-71 5-69-32zm-48 3c29 0 43-24 42-57-32 0-66-3-65 30 0 17 8 27 23 27" id="bw"/><path fill="#333" d="M135-194c53 0 70 44 70 98 0 56-19 98-73 100-31 1-45-17-59-34 3 33 2 69 2 105H25l-1-265h48c2 10 0 23 3 31 11-24 29-35 60-35zM114-30c33 0 39-31 40-66 0-38-9-64-40-64-56 0-55 130 0 130" id="bx"/><path fill="#333" d="M185-48c-13 30-37 53-82 52C43 2 14-33 14-96s30-98 90-98c62 0 83 45 84 108H66c0 31 8 55 39 56 18 0 30-7 34-22zm-45-69c5-46-57-63-70-21-2 6-4 13-4 21h74" id="by"/><path fill="#333" d="M137-138c1-29-70-34-71-4 15 46 118 7 119 86 1 83-164 76-172 9l43-7c4 19 20 25 44 25 33 8 57-30 24-41C81-84 22-81 20-136c-2-80 154-74 161-7" id="bz"/><g id="z"><use transform="matrix(0.04938271604938272,0,0,0.04938271604938272,0,0)" xlink:href="#bt"/><use transform="matrix(0.04938271604938272,0,0,0.04938271604938272,11.851851851851853,0)" xlink:href="#bu"/><use transform="matrix(0.04938271604938272,0,0,0.04938271604938272,21.7283950617284,0)" xlink:href="#bv"/><use transform="matrix(0.04938271604938272,0,0,0.04938271604938272,28.64197530864198,0)" xlink:href="#bw"/><use transform="matrix(0.04938271604938272,0,0,0.04938271604938272,38.518518518518526,0)" xlink:href="#bx"/><use transform="matrix(0.04938271604938272,0,0,0.04938271604938272,49.33333333333334,0)" xlink:href="#by"/><use transform="matrix(0.04938271604938272,0,0,0.04938271604938272,59.209876543209894,0)" xlink:href="#bz"/></g><path d="M62-168c30 0 50 19 50 48S92-70 62-70c-29 0-48-21-48-50s20-48 48-48" id="bA"/><use transform="matrix(0.07222222222222222,0,0,0.07222222222222222,0,0)" xlink:href="#bA" id="A"/><path d="M126-127c33 6 58 20 58 59 0 88-139 92-164 29-3-8-5-16-6-25l32-3c6 27 21 44 54 44 32 0 52-15 52-46 0-38-36-46-79-43v-28c39 1 72-4 72-42 0-27-17-43-46-43-28 0-47 15-49 41l-32-3c6-42 35-63 81-64 48-1 79 21 79 65 0 36-21 52-52 59" id="bB"/><path d="M110-160c48 1 74 30 74 79 0 53-28 85-80 85-65 0-83-55-86-122-5-90 50-162 133-122 14 7 22 21 27 39l-31 6c-5-40-67-38-82-6-9 19-15 44-15 74 11-20 30-34 60-33zm-7 138c34 0 49-23 49-58s-16-56-50-56c-29 0-50 16-49 49 1 36 15 65 50 65" id="bC"/><path d="M101-251c68 0 85 55 85 127S166 4 100 4C33 4 14-52 14-124c0-73 17-127 87-127zm-1 229c47 0 54-49 54-102s-4-102-53-102c-51 0-55 48-55 102 0 53 5 102 54 102" id="bD"/><g id="B"><use transform="matrix(0.07222222222222222,0,0,0.07222222222222222,0,0)" xlink:href="#aD"/><use transform="matrix(0.07222222222222222,0,0,0.07222222222222222,14.444444444444443,0)" xlink:href="#az"/><use transform="matrix(0.07222222222222222,0,0,0.07222222222222222,28.888888888888886,0)" xlink:href="#bB"/><use transform="matrix(0.07222222222222222,0,0,0.07222222222222222,43.33333333333333,0)" xlink:href="#bC"/><use transform="matrix(0.07222222222222222,0,0,0.07222222222222222,57.77777777777777,0)" xlink:href="#bD"/></g><path d="M197 0v-115H63V0H30v-248h33v105h134v-105h34V0h-34" id="bE"/><g id="C"><use transform="matrix(0.07222222222222222,0,0,0.07222222222222222,0,0)" xlink:href="#bE"/><use transform="matrix(0.07222222222222222,0,0,0.07222222222222222,18.705555555555552,0)" xlink:href="#az"/><use transform="matrix(0.07222222222222222,0,0,0.07222222222222222,33.14999999999999,0)" xlink:href="#aI"/><use transform="matrix(0.07222222222222222,0,0,0.07222222222222222,46.149999999999984,0)" xlink:href="#aJ"/><use transform="matrix(0.07222222222222222,0,0,0.07222222222222222,60.59444444444443,0)" xlink:href="#aF"/><use transform="matrix(0.07222222222222222,0,0,0.07222222222222222,69.18888888888888,0)" xlink:href="#az"/><use transform="matrix(0.07222222222222222,0,0,0.07222222222222222,83.63333333333333,0)" xlink:href="#aI"/><use transform="matrix(0.07222222222222222,0,0,0.07222222222222222,96.63333333333333,0)" xlink:href="#aI"/></g><path d="M47-170H22l-4-78h33" id="bF"/><g id="D"><use transform="matrix(0.07222222222222222,0,0,0.07222222222222222,0,0)" xlink:href="#ay"/><use transform="matrix(0.07222222222222222,0,0,0.07222222222222222,5.705555555555555,0)" xlink:href="#bF"/><use transform="matrix(0.07222222222222222,0,0,0.07222222222222222,10.616666666666665,0)" xlink:href="#ax"/><use transform="matrix(0.07222222222222222,0,0,0.07222222222222222,25.06111111111111,0)" xlink:href="#aJ"/><use transform="matrix(0.07222222222222222,0,0,0.07222222222222222,39.50555555555555,0)" xlink:href="#aB"/><use transform="matrix(0.07222222222222222,0,0,0.07222222222222222,45.21111111111111,0)" xlink:href="#aC"/><use transform="matrix(0.07222222222222222,0,0,0.07222222222222222,59.65555555555555,0)" xlink:href="#aB"/><use transform="matrix(0.07222222222222222,0,0,0.07222222222222222,65.3611111111111,0)" xlink:href="#ax"/><use transform="matrix(0.07222222222222222,0,0,0.07222222222222222,79.80555555555554,0)" xlink:href="#aC"/></g><g id="E"><use transform="matrix(0.07222222222222222,0,0,0.07222222222222222,0,0)" xlink:href="#aH"/><use transform="matrix(0.07222222222222222,0,0,0.07222222222222222,14.444444444444443,0)" xlink:href="#aQ"/><use transform="matrix(0.07222222222222222,0,0,0.07222222222222222,28.888888888888886,0)" xlink:href="#aA"/><use transform="matrix(0.07222222222222222,0,0,0.07222222222222222,41.888888888888886,0)" xlink:href="#aO"/><use transform="matrix(0.07222222222222222,0,0,0.07222222222222222,54.888888888888886,0)" xlink:href="#az"/><use transform="matrix(0.07222222222222222,0,0,0.07222222222222222,69.33333333333333,0)" xlink:href="#av"/></g><g id="F"><use transform="matrix(0.07222222222222222,0,0,0.07222222222222222,0,0)" xlink:href="#bj"/><use transform="matrix(0.07222222222222222,0,0,0.07222222222222222,17.333333333333332,0)" xlink:href="#bk"/><use transform="matrix(0.07222222222222222,0,0,0.07222222222222222,38.92777777777778,0)" xlink:href="#au"/><use transform="matrix(0.07222222222222222,0,0,0.07222222222222222,53.37222222222222,0)" xlink:href="#bl"/><use transform="matrix(0.07222222222222222,0,0,0.07222222222222222,66.37222222222222,0)" xlink:href="#ax"/><use transform="matrix(0.07222222222222222,0,0,0.07222222222222222,80.81666666666666,0)" xlink:href="#aC"/></g><g id="G"><use transform="matrix(0.07222222222222222,0,0,0.07222222222222222,0,0)" xlink:href="#bm"/><use transform="matrix(0.07222222222222222,0,0,0.07222222222222222,17.333333333333332,0)" xlink:href="#bn"/><use transform="matrix(0.07222222222222222,0,0,0.07222222222222222,30.333333333333332,0)" xlink:href="#az"/><use transform="matrix(0.07222222222222222,0,0,0.07222222222222222,44.77777777777777,0)" xlink:href="#aC"/><use transform="matrix(0.07222222222222222,0,0,0.07222222222222222,59.222222222222214,0)" xlink:href="#av"/><use transform="matrix(0.07222222222222222,0,0,0.07222222222222222,66.44444444444443,0)" xlink:href="#bo"/><use transform="matrix(0.07222222222222222,0,0,0.07222222222222222,83.77777777777776,0)" xlink:href="#aF"/><use transform="matrix(0.07222222222222222,0,0,0.07222222222222222,92.37222222222222,0)" xlink:href="#aB"/><use transform="matrix(0.07222222222222222,0,0,0.07222222222222222,98.07777777777775,0)" xlink:href="#bp"/><use transform="matrix(0.07222222222222222,0,0,0.07222222222222222,112.5222222222222,0)" xlink:href="#aL"/><use transform="matrix(0.07222222222222222,0,0,0.07222222222222222,126.96666666666664,0)" xlink:href="#az"/></g><path fill="#333" d="M136-208V0H84v-208H4v-40h212v40h-80" id="bG"/><path fill="#333" d="M25-224v-37h50v37H25zM25 0v-190h50V0H25" id="bH"/><path fill="#333" d="M195-6C206 82 75 100 31 46c-4-6-6-13-8-21l49-6c3 16 16 24 34 25 40 0 42-37 40-79-11 22-30 35-61 35-53 0-70-43-70-97 0-56 18-96 73-97 30 0 46 14 59 34l2-30h47zm-90-29c32 0 41-27 41-63 0-35-9-62-40-62-32 0-39 29-40 63 0 36 9 62 39 62" id="bI"/><g id="H"><use transform="matrix(0.04938271604938272,0,0,0.04938271604938272,0,0)" xlink:href="#bG"/><use transform="matrix(0.04938271604938272,0,0,0.04938271604938272,9.82716049382716,0)" xlink:href="#bv"/><use transform="matrix(0.04938271604938272,0,0,0.04938271604938272,16.74074074074074,0)" xlink:href="#bH"/><use transform="matrix(0.04938271604938272,0,0,0.04938271604938272,21.679012345679013,0)" xlink:href="#bI"/><use transform="matrix(0.04938271604938272,0,0,0.04938271604938272,32.49382716049383,0)" xlink:href="#bI"/><use transform="matrix(0.04938271604938272,0,0,0.04938271604938272,43.308641975308646,0)" xlink:href="#by"/><use transform="matrix(0.04938271604938272,0,0,0.04938271604938272,53.18518518518519,0)" xlink:href="#bv"/><use transform="matrix(0.04938271604938272,0,0,0.04938271604938272,60.09876543209877,0)" xlink:href="#bz"/></g><path fill="#333" d="M115-3C79 11 28 4 28-45v-112H4v-33h27l15-45h31v45h36v33H77v99c-1 23 16 31 38 25v30" id="bJ"/><path fill="#333" d="M110-194c64 0 96 36 96 99 0 64-35 99-97 99-61 0-95-36-95-99 0-62 34-99 96-99zm-1 164c35 0 45-28 45-65 0-40-10-65-43-65-34 0-45 26-45 65 0 36 10 65 43 65" id="bK"/><g id="I"><use transform="matrix(0.04938271604938272,0,0,0.04938271604938272,0,0)" xlink:href="#bt"/><use transform="matrix(0.04938271604938272,0,0,0.04938271604938272,11.851851851851853,0)" xlink:href="#bJ"/><use transform="matrix(0.04938271604938272,0,0,0.04938271604938272,17.728395061728396,0)" xlink:href="#bK"/><use transform="matrix(0.04938271604938272,0,0,0.04938271604938272,28.543209876543205,0)" xlink:href="#bv"/><use transform="matrix(0.04938271604938272,0,0,0.04938271604938272,35.45679012345679,0)" xlink:href="#by"/><use transform="matrix(0.04938271604938272,0,0,0.04938271604938272,45.333333333333336,0)" xlink:href="#bz"/></g><path fill="#333" d="M240-174c0 40-23 61-54 70L253 0h-59l-57-94H76V0H24v-248c93 4 217-23 216 74zM76-134c48-2 112 12 112-38 0-48-66-32-112-35v73" id="bL"/><path fill="#333" d="M231 0h-52l-39-155L100 0H48L-1-190h46L77-45c9-52 24-97 36-145h53l37 145 32-145h46" id="bM"/><g id="J"><use transform="matrix(0.04938271604938272,0,0,0.04938271604938272,0,0)" xlink:href="#bL"/><use transform="matrix(0.04938271604938272,0,0,0.04938271604938272,12.790123456790125,0)" xlink:href="#bK"/><use transform="matrix(0.04938271604938272,0,0,0.04938271604938272,23.60493827160494,0)" xlink:href="#bM"/></g><path fill="#333" d="M88-194c31-1 46 15 58 34l-1-101h50l1 261h-48c-2-10 0-23-3-31C134-8 116 4 84 4 32 4 16-41 15-95c0-56 19-97 73-99zm17 164c33 0 40-30 41-66 1-37-9-64-41-64s-38 30-39 65c0 43 13 65 39 65" id="bN"/><g id="K"><use transform="matrix(0.04938271604938272,0,0,0.04938271604938272,0,0)" xlink:href="#bN"/><use transform="matrix(0.04938271604938272,0,0,0.04938271604938272,10.814814814814815,0)" xlink:href="#bw"/><use transform="matrix(0.04938271604938272,0,0,0.04938271604938272,20.69135802469136,0)" xlink:href="#bJ"/><use transform="matrix(0.04938271604938272,0,0,0.04938271604938272,26.567901234567902,0)" xlink:href="#bw"/></g><path fill="#333" d="M67-93c0 74 22 123 53 168H70C40 30 18-18 18-93s22-123 52-168h50c-32 44-53 94-53 168" id="bO"/><path fill="#333" d="M25-224v-37h50v37H25zM75 22c2 45-34 59-81 51V38c22 5 31-5 31-27v-201h50V22" id="bP"/><path fill="#333" d="M135-194c87-1 58 113 63 194h-50c-7-57 23-157-34-157-59 0-34 97-39 157H25l-1-190h47c2 12-1 28 3 38 12-26 28-41 61-42" id="bQ"/><path fill="#333" d="M102-93c0 74-22 123-52 168H0C30 29 54-18 53-93c0-74-22-123-53-168h50c30 45 52 94 52 168" id="bR"/><g id="L"><use transform="matrix(0.04938271604938272,0,0,0.04938271604938272,0,0)" xlink:href="#bO"/><use transform="matrix(0.04938271604938272,0,0,0.04938271604938272,5.8765432098765435,0)" xlink:href="#bP"/><use transform="matrix(0.04938271604938272,0,0,0.04938271604938272,10.814814814814817,0)" xlink:href="#bz"/><use transform="matrix(0.04938271604938272,0,0,0.04938271604938272,20.69135802469136,0)" xlink:href="#bK"/><use transform="matrix(0.04938271604938272,0,0,0.04938271604938272,31.506172839506174,0)" xlink:href="#bQ"/><use transform="matrix(0.04938271604938272,0,0,0.04938271604938272,42.320987654320994,0)" xlink:href="#bR"/></g><linearGradient gradientUnits="userSpaceOnUse" id="M" x1="960" y1="1280" x2="1040" y2="1200"><stop offset="0%" stop-color="#1b660f"/><stop offset="100%" stop-color="#6cae3e"/></linearGradient><g id="N"><use transform="matrix(0.05,0,0,0.05,0,0)" xlink:href="#bm"/><use transform="matrix(0.05,0,0,0.05,12,0)" xlink:href="#bq"/><use transform="matrix(0.05,0,0,0.05,22.950000000000003,0)" xlink:href="#aP"/></g><path d="M238-95c0 69-44 99-111 99C63 4 22-25 22-93v-155h51v151c-1 38 19 59 55 60 90 1 49-130 58-211h52v153" id="bS"/><path d="M137-138c1-29-70-34-71-4 15 46 118 7 119 86 1 83-164 76-172 9l43-7c4 19 20 25 44 25 33 8 57-30 24-41C81-84 22-81 20-136c-2-80 154-74 161-7" id="bT"/><path d="M185-48c-13 30-37 53-82 52C43 2 14-33 14-96s30-98 90-98c62 0 83 45 84 108H66c0 31 8 55 39 56 18 0 30-7 34-22zm-45-69c5-46-57-63-70-21-2 6-4 13-4 21h74" id="bU"/><g id="O"><use transform="matrix(0.04938271604938272,0,0,0.04938271604938272,0,0)" xlink:href="#bS"/><use transform="matrix(0.04938271604938272,0,0,0.04938271604938272,12.790123456790125,0)" xlink:href="#bT"/><use transform="matrix(0.04938271604938272,0,0,0.04938271604938272,22.66666666666667,0)" xlink:href="#bU"/><use transform="matrix(0.04938271604938272,0,0,0.04938271604938272,32.543209876543216,0)" xlink:href="#bT"/></g><path d="M230 0l2-204L168 0h-37L68-204 70 0H24v-248h70l56 185 57-185h69V0h-46" id="bV"/><path d="M110-194c64 0 96 36 96 99 0 64-35 99-97 99-61 0-95-36-95-99 0-62 34-99 96-99zm-1 164c35 0 45-28 45-65 0-40-10-65-43-65-34 0-45 26-45 65 0 36 10 65 43 65" id="bW"/><path d="M88-194c31-1 46 15 58 34l-1-101h50l1 261h-48c-2-10 0-23-3-31C134-8 116 4 84 4 32 4 16-41 15-95c0-56 19-97 73-99zm17 164c33 0 40-30 41-66 1-37-9-64-41-64s-38 30-39 65c0 43 13 65 39 65" id="bX"/><path d="M25 0v-261h50V0H25" id="bY"/><g id="P"><use transform="matrix(0.04938271604938272,0,0,0.04938271604938272,0,0)" xlink:href="#bV"/><use transform="matrix(0.04938271604938272,0,0,0.04938271604938272,14.765432098765434,0)" xlink:href="#bW"/><use transform="matrix(0.04938271604938272,0,0,0.04938271604938272,25.58024691358025,0)" xlink:href="#bX"/><use transform="matrix(0.04938271604938272,0,0,0.04938271604938272,36.39506172839506,0)" xlink:href="#bU"/><use transform="matrix(0.04938271604938272,0,0,0.04938271604938272,46.27160493827161,0)" xlink:href="#bY"/><use transform="matrix(0.04938271604938272,0,0,0.04938271604938272,51.20987654320988,0)" xlink:href="#bT"/></g><path d="M76-208v77h127v40H76V0H24v-248h183v40H76" id="bZ"/><path d="M135-150c-39-12-60 13-60 57V0H25l-1-190h47c2 13-1 29 3 40 6-28 27-53 61-41v41" id="ca"/><path d="M220-157c-53 9-28 100-34 157h-49v-107c1-27-5-49-29-50C55-147 81-57 75 0H25l-1-190h47c2 12-1 28 3 38 10-53 101-56 108 0 13-22 24-43 59-42 82 1 51 116 57 194h-49v-107c-1-25-5-48-29-50" id="cb"/><g id="Q"><use transform="matrix(0.04938271604938272,0,0,0.04938271604938272,0,0)" xlink:href="#bZ"/><use transform="matrix(0.04938271604938272,0,0,0.04938271604938272,10.814814814814815,0)" xlink:href="#ca"/><use transform="matrix(0.04938271604938272,0,0,0.04938271604938272,17.728395061728396,0)" xlink:href="#bW"/><use transform="matrix(0.04938271604938272,0,0,0.04938271604938272,28.543209876543205,0)" xlink:href="#cb"/></g><path d="M169-182c-1-43-94-46-97-3 18 66 151 10 154 114 3 95-165 93-204 36-6-8-10-19-12-30l50-8c3 46 112 56 116 5-17-69-150-10-154-114-4-87 153-88 188-35 5 8 8 18 10 28" id="cc"/><path d="M135-194c87-1 58 113 63 194h-50c-7-57 23-157-34-157-59 0-34 97-39 157H25l-1-190h47c2 12-1 28 3 38 12-26 28-41 61-42" id="cd"/><g id="R"><use transform="matrix(0.04938271604938272,0,0,0.04938271604938272,0,0)" xlink:href="#cc"/><use transform="matrix(0.04938271604938272,0,0,0.04938271604938272,11.851851851851853,0)" xlink:href="#bU"/><use transform="matrix(0.04938271604938272,0,0,0.04938271604938272,21.7283950617284,0)" xlink:href="#cd"/><use transform="matrix(0.04938271604938272,0,0,0.04938271604938272,32.543209876543216,0)" xlink:href="#bX"/><use transform="matrix(0.04938271604938272,0,0,0.04938271604938272,43.35802469135803,0)" xlink:href="#bT"/></g><path d="M24 0v-248h195v40H76v63h132v40H76v65h150V0H24" id="ce"/><path d="M128 0H69L1-190h53L99-40l48-150h52" id="cf"/><path d="M115-3C79 11 28 4 28-45v-112H4v-33h27l15-45h31v45h36v33H77v99c-1 23 16 31 38 25v30" id="cg"/><g id="S"><use transform="matrix(0.04938271604938272,0,0,0.04938271604938272,0,0)" xlink:href="#ce"/><use transform="matrix(0.04938271604938272,0,0,0.04938271604938272,11.851851851851853,0)" xlink:href="#cf"/><use transform="matrix(0.04938271604938272,0,0,0.04938271604938272,21.7283950617284,0)" xlink:href="#bU"/><use transform="matrix(0.04938271604938272,0,0,0.04938271604938272,31.60493827160494,0)" xlink:href="#cd"/><use transform="matrix(0.04938271604938272,0,0,0.04938271604938272,42.41975308641976,0)" xlink:href="#cg"/></g><path d="M194 0L95-120 63-95V0H30v-248h33v124l119-124h40L117-140 236 0h-42" id="ch"/><g id="T"><use transform="matrix(0.07222222222222222,0,0,0.07222222222222222,0,0)" xlink:href="#ch"/><use transform="matrix(0.07222222222222222,0,0,0.07222222222222222,17.333333333333332,0)" xlink:href="#az"/><use transform="matrix(0.07222222222222222,0,0,0.07222222222222222,31.777777777777775,0)" xlink:href="#aE"/><use transform="matrix(0.07222222222222222,0,0,0.07222222222222222,44.77777777777777,0)" xlink:href="#aN"/><use transform="matrix(0.07222222222222222,0,0,0.07222222222222222,63.48333333333332,0)" xlink:href="#ax"/><use transform="matrix(0.07222222222222222,0,0,0.07222222222222222,77.92777777777778,0)" xlink:href="#aF"/><use transform="matrix(0.07222222222222222,0,0,0.07222222222222222,86.52222222222221,0)" xlink:href="#bp"/><use transform="matrix(0.07222222222222222,0,0,0.07222222222222222,100.96666666666665,0)" xlink:href="#aI"/></g><path d="M141 0L90-78 38 0H4l68-98-65-92h35l48 74 47-74h35l-64 92 68 98h-35" id="ci"/><g id="U"><use transform="matrix(0.07222222222222222,0,0,0.07222222222222222,0,0)" xlink:href="#bm"/><use transform="matrix(0.07222222222222222,0,0,0.07222222222222222,17.333333333333332,0)" xlink:href="#ci"/><use transform="matrix(0.07222222222222222,0,0,0.07222222222222222,30.333333333333332,0)" xlink:href="#av"/><use transform="matrix(0.07222222222222222,0,0,0.07222222222222222,37.55555555555555,0)" xlink:href="#aF"/><use transform="matrix(0.07222222222222222,0,0,0.07222222222222222,46.149999999999984,0)" xlink:href="#au"/><use transform="matrix(0.07222222222222222,0,0,0.07222222222222222,60.59444444444443,0)" xlink:href="#aA"/><use transform="matrix(0.07222222222222222,0,0,0.07222222222222222,73.59444444444443,0)" xlink:href="#av"/><use transform="matrix(0.07222222222222222,0,0,0.07222222222222222,80.81666666666666,0)" xlink:href="#aB"/><use transform="matrix(0.07222222222222222,0,0,0.07222222222222222,86.52222222222221,0)" xlink:href="#ax"/><use transform="matrix(0.07222222222222222,0,0,0.07222222222222222,100.96666666666665,0)" xlink:href="#aC"/></g><g id="V"><use transform="matrix(0.07222222222222222,0,0,0.07222222222222222,0,0)" xlink:href="#bm"/><use transform="matrix(0.07222222222222222,0,0,0.07222222222222222,17.333333333333332,0)" xlink:href="#aC"/><use transform="matrix(0.07222222222222222,0,0,0.07222222222222222,31.777777777777775,0)" xlink:href="#av"/><use transform="matrix(0.07222222222222222,0,0,0.07222222222222222,38.99999999999999,0)" xlink:href="#aB"/><use transform="matrix(0.07222222222222222,0,0,0.07222222222222222,44.70555555555556,0)" xlink:href="#av"/><use transform="matrix(0.07222222222222222,0,0,0.07222222222222222,51.927777777777784,0)" xlink:href="#aE"/></g><path d="M233-177c-1 41-23 64-60 70L243 0h-38l-65-103H63V0H30v-248c88 3 205-21 203 71zM63-129c60-2 137 13 137-47 0-61-80-42-137-45v92" id="cj"/><g id="W"><use transform="matrix(0.07222222222222222,0,0,0.07222222222222222,0,0)" xlink:href="#cj"/><use transform="matrix(0.07222222222222222,0,0,0.07222222222222222,18.705555555555552,0)" xlink:href="#az"/><use transform="matrix(0.07222222222222222,0,0,0.07222222222222222,33.14999999999999,0)" xlink:href="#aA"/><use transform="matrix(0.07222222222222222,0,0,0.07222222222222222,46.149999999999984,0)" xlink:href="#ax"/><use transform="matrix(0.07222222222222222,0,0,0.07222222222222222,60.59444444444443,0)" xlink:href="#aL"/><use transform="matrix(0.07222222222222222,0,0,0.07222222222222222,75.03888888888888,0)" xlink:href="#aC"/><use transform="matrix(0.07222222222222222,0,0,0.07222222222222222,89.48333333333332,0)" xlink:href="#aB"/><use transform="matrix(0.07222222222222222,0,0,0.07222222222222222,95.18888888888887,0)" xlink:href="#av"/><use transform="matrix(0.07222222222222222,0,0,0.07222222222222222,102.4111111111111,0)" xlink:href="#aB"/><use transform="matrix(0.07222222222222222,0,0,0.07222222222222222,108.11666666666665,0)" xlink:href="#ax"/><use transform="matrix(0.07222222222222222,0,0,0.07222222222222222,122.56111111111109,0)" xlink:href="#aC"/></g><path d="M127-220V0H93v-220H8v-28h204v28h-85" id="ck"/><g id="X"><use transform="matrix(0.07222222222222222,0,0,0.07222222222222222,0,0)" xlink:href="#ck"/><use transform="matrix(0.07222222222222222,0,0,0.07222222222222222,12.927777777777777,0)" xlink:href="#az"/><use transform="matrix(0.07222222222222222,0,0,0.07222222222222222,27.37222222222222,0)" xlink:href="#ci"/><use transform="matrix(0.07222222222222222,0,0,0.07222222222222222,40.37222222222222,0)" xlink:href="#av"/></g><g id="Y"><use transform="matrix(0.07222222222222222,0,0,0.07222222222222222,0,0)" xlink:href="#aP"/><use transform="matrix(0.07222222222222222,0,0,0.07222222222222222,17.333333333333332,0)" xlink:href="#aQ"/><use transform="matrix(0.07222222222222222,0,0,0.07222222222222222,31.777777777777775,0)" xlink:href="#bk"/><use transform="matrix(0.07222222222222222,0,0,0.07222222222222222,53.37222222222222,0)" xlink:href="#bk"/><use transform="matrix(0.07222222222222222,0,0,0.07222222222222222,74.96666666666668,0)" xlink:href="#au"/><use transform="matrix(0.07222222222222222,0,0,0.07222222222222222,89.41111111111113,0)" xlink:href="#aF"/><use transform="matrix(0.07222222222222222,0,0,0.07222222222222222,98.00555555555556,0)" xlink:href="#aB"/><use transform="matrix(0.07222222222222222,0,0,0.07222222222222222,103.7111111111111,0)" xlink:href="#bl"/><use transform="matrix(0.07222222222222222,0,0,0.07222222222222222,116.71111111111112,0)" xlink:href="#au"/><use transform="matrix(0.07222222222222222,0,0,0.07222222222222222,131.15555555555557,0)" xlink:href="#av"/><use transform="matrix(0.07222222222222222,0,0,0.07222222222222222,138.3777777777778,0)" xlink:href="#aB"/><use transform="matrix(0.07222222222222222,0,0,0.07222222222222222,144.08333333333334,0)" xlink:href="#ax"/><use transform="matrix(0.07222222222222222,0,0,0.07222222222222222,158.52777777777777,0)" xlink:href="#aC"/></g><path fill="#333" d="M24-248c120-7 223 5 221 122C244-46 201 0 124 0H24v-248zM76-40c74 7 117-18 117-86 0-67-45-88-117-82v168" id="cl"/><path fill="#333" d="M4 7l51-268h42L46 7H4" id="cm"/><g id="Z"><use transform="matrix(0.04938271604938272,0,0,0.04938271604938272,0,0)" xlink:href="#cl"/><use transform="matrix(0.04938271604938272,0,0,0.04938271604938272,12.790123456790125,0)" xlink:href="#bw"/><use transform="matrix(0.04938271604938272,0,0,0.04938271604938272,22.66666666666667,0)" xlink:href="#bJ"/><use transform="matrix(0.04938271604938272,0,0,0.04938271604938272,28.54320987654322,0)" xlink:href="#bw"/><use transform="matrix(0.04938271604938272,0,0,0.04938271604938272,38.41975308641976,0)" xlink:href="#cm"/></g><path fill="#333" d="M24-248c93 1 206-16 204 79-1 75-69 88-152 82V0H24v-248zm52 121c47 0 100 7 100-41 0-47-54-39-100-39v80" id="cn"/><g id="aa"><use transform="matrix(0.04938271604938272,0,0,0.04938271604938272,0,0)" xlink:href="#cn"/><use transform="matrix(0.04938271604938272,0,0,0.04938271604938272,11.851851851851853,0)" xlink:href="#bv"/><use transform="matrix(0.04938271604938272,0,0,0.04938271604938272,18.765432098765434,0)" xlink:href="#bK"/><use transform="matrix(0.04938271604938272,0,0,0.04938271604938272,29.58024691358025,0)" xlink:href="#bu"/><use transform="matrix(0.04938271604938272,0,0,0.04938271604938272,39.45679012345679,0)" xlink:href="#by"/><use transform="matrix(0.04938271604938272,0,0,0.04938271604938272,49.333333333333336,0)" xlink:href="#bz"/><use transform="matrix(0.04938271604938272,0,0,0.04938271604938272,59.20987654320988,0)" xlink:href="#bz"/><use transform="matrix(0.04938271604938272,0,0,0.04938271604938272,69.08641975308643,0)" xlink:href="#by"/><use transform="matrix(0.04938271604938272,0,0,0.04938271604938272,78.96296296296298,0)" xlink:href="#bN"/></g><g id="ab"><use transform="matrix(0.04938271604938272,0,0,0.04938271604938272,0,0)" xlink:href="#cl"/><use transform="matrix(0.04938271604938272,0,0,0.04938271604938272,12.790123456790125,0)" xlink:href="#bw"/><use transform="matrix(0.04938271604938272,0,0,0.04938271604938272,22.66666666666667,0)" xlink:href="#bJ"/><use transform="matrix(0.04938271604938272,0,0,0.04938271604938272,28.54320987654322,0)" xlink:href="#bw"/></g><g id="ac"><use transform="matrix(0.07222222222222222,0,0,0.07222222222222222,0,0)" xlink:href="#at"/><use transform="matrix(0.07222222222222222,0,0,0.07222222222222222,18.705555555555552,0)" xlink:href="#aE"/><use transform="matrix(0.07222222222222222,0,0,0.07222222222222222,31.70555555555555,0)" xlink:href="#aC"/><use transform="matrix(0.07222222222222222,0,0,0.07222222222222222,46.149999999999984,0)" xlink:href="#au"/><use transform="matrix(0.07222222222222222,0,0,0.07222222222222222,60.59444444444443,0)" xlink:href="#bk"/><use transform="matrix(0.07222222222222222,0,0,0.07222222222222222,82.18888888888887,0)" xlink:href="#ax"/><use transform="matrix(0.07222222222222222,0,0,0.07222222222222222,96.63333333333331,0)" xlink:href="#at"/><use transform="matrix(0.07222222222222222,0,0,0.07222222222222222,115.33888888888886,0)" xlink:href="#bo"/></g><g id="ad"><use transform="matrix(0.07222222222222222,0,0,0.07222222222222222,0,0)" xlink:href="#cj"/><use transform="matrix(0.07222222222222222,0,0,0.07222222222222222,18.705555555555552,0)" xlink:href="#az"/><use transform="matrix(0.07222222222222222,0,0,0.07222222222222222,33.14999999999999,0)" xlink:href="#au"/><use transform="matrix(0.07222222222222222,0,0,0.07222222222222222,47.594444444444434,0)" xlink:href="#aA"/><use transform="matrix(0.07222222222222222,0,0,0.07222222222222222,60.59444444444443,0)" xlink:href="#av"/></g><g id="ae"><use transform="matrix(0.07222222222222222,0,0,0.07222222222222222,0,0)" xlink:href="#aG"/><use transform="matrix(0.07222222222222222,0,0,0.07222222222222222,23.977777777777774,0)" xlink:href="#az"/><use transform="matrix(0.07222222222222222,0,0,0.07222222222222222,38.42222222222222,0)" xlink:href="#aH"/></g><g id="af"><use transform="matrix(0.07222222222222222,0,0,0.07222222222222222,0,0)" xlink:href="#bj"/><use transform="matrix(0.07222222222222222,0,0,0.07222222222222222,17.333333333333332,0)" xlink:href="#aJ"/><use transform="matrix(0.07222222222222222,0,0,0.07222222222222222,31.777777777777775,0)" xlink:href="#aJ"/></g><g id="ag"><use transform="matrix(0.07222222222222222,0,0,0.07222222222222222,0,0)" xlink:href="#bj"/><use transform="matrix(0.07222222222222222,0,0,0.07222222222222222,17.333333333333332,0)" xlink:href="#aF"/><use transform="matrix(0.07222222222222222,0,0,0.07222222222222222,25.927777777777774,0)" xlink:href="#av"/><use transform="matrix(0.07222222222222222,0,0,0.07222222222222222,33.15,0)" xlink:href="#aB"/><use transform="matrix(0.07222222222222222,0,0,0.07222222222222222,38.855555555555554,0)" xlink:href="#aA"/><use transform="matrix(0.07222222222222222,0,0,0.07222222222222222,51.85555555555555,0)" xlink:href="#ay"/><use transform="matrix(0.07222222222222222,0,0,0.07222222222222222,57.56111111111112,0)" xlink:href="#az"/></g><g id="ah"><use transform="matrix(0.07222222222222222,0,0,0.07222222222222222,0,0)" xlink:href="#aD"/><use transform="matrix(0.07222222222222222,0,0,0.07222222222222222,14.444444444444443,0)" xlink:href="#aB"/><use transform="matrix(0.07222222222222222,0,0,0.07222222222222222,20.15,0)" xlink:href="#aI"/><use transform="matrix(0.07222222222222222,0,0,0.07222222222222222,33.15,0)" xlink:href="#av"/></g><path d="M137 0h-34L2-248h35l83 218 83-218h36" id="co"/><g id="ai"><use transform="matrix(0.07222222222222222,0,0,0.07222222222222222,0,0)" xlink:href="#co"/><use transform="matrix(0.07222222222222222,0,0,0.07222222222222222,16.827777777777776,0)" xlink:href="#aB"/><use transform="matrix(0.07222222222222222,0,0,0.07222222222222222,22.53333333333333,0)" xlink:href="#az"/><use transform="matrix(0.07222222222222222,0,0,0.07222222222222222,36.977777777777774,0)" xlink:href="#aN"/></g><path d="M106-169C34-169 62-67 57 0H25v-261h32l-1 103c12-21 28-36 61-36 89 0 53 116 60 194h-32v-121c2-32-8-49-39-48" id="cp"/><g id="aj"><use transform="matrix(0.07222222222222222,0,0,0.07222222222222222,0,0)" xlink:href="#aP"/><use transform="matrix(0.07222222222222222,0,0,0.07222222222222222,17.333333333333332,0)" xlink:href="#az"/><use transform="matrix(0.07222222222222222,0,0,0.07222222222222222,31.777777777777775,0)" xlink:href="#au"/><use transform="matrix(0.07222222222222222,0,0,0.07222222222222222,46.222222222222214,0)" xlink:href="#aF"/><use transform="matrix(0.07222222222222222,0,0,0.07222222222222222,54.816666666666656,0)" xlink:href="#aA"/><use transform="matrix(0.07222222222222222,0,0,0.07222222222222222,67.81666666666665,0)" xlink:href="#cp"/></g><path d="M234-2c-28 10-62 0-77-18C117 19 8 12 13-65c3-43 29-61 60-76-25-40-17-114 47-108 35 3 59 15 59 50 0 44-40 53-71 69 14 26 32 50 51 72 14-21 24-43 30-72l26 8c-9 33-21 57-38 82 13 13 33 22 57 15v23zM97-151c25-10 52-18 56-48-1-18-13-29-33-29-42 0-39 50-23 77zM42-66c-3 51 71 58 98 28-20-24-41-51-56-80-23 10-40 24-42 52" id="cq"/><use transform="matrix(0.07222222222222222,0,0,0.07222222222222222,0,0)" xlink:href="#cq" id="ak"/><g id="al"><use transform="matrix(0.07222222222222222,0,0,0.07222222222222222,0,0)" xlink:href="#bq"/><use transform="matrix(0.07222222222222222,0,0,0.07222222222222222,15.816666666666665,0)" xlink:href="#aB"/><use transform="matrix(0.07222222222222222,0,0,0.07222222222222222,21.52222222222222,0)" xlink:href="#ay"/><use transform="matrix(0.07222222222222222,0,0,0.07222222222222222,27.227777777777774,0)" xlink:href="#av"/><use transform="matrix(0.07222222222222222,0,0,0.07222222222222222,34.449999999999996,0)" xlink:href="#aF"/><use transform="matrix(0.07222222222222222,0,0,0.07222222222222222,43.04444444444444,0)" xlink:href="#az"/></g><g id="am"><use transform="matrix(0.07222222222222222,0,0,0.07222222222222222,0,0)" xlink:href="#bj"/><use transform="matrix(0.07222222222222222,0,0,0.07222222222222222,17.333333333333332,0)" xlink:href="#aC"/><use transform="matrix(0.07222222222222222,0,0,0.07222222222222222,31.777777777777775,0)" xlink:href="#au"/><use transform="matrix(0.07222222222222222,0,0,0.07222222222222222,46.222222222222214,0)" xlink:href="#ay"/><use transform="matrix(0.07222222222222222,0,0,0.07222222222222222,51.92777777777777,0)" xlink:href="#aE"/><use transform="matrix(0.07222222222222222,0,0,0.07222222222222222,64.92777777777776,0)" xlink:href="#av"/><use transform="matrix(0.07222222222222222,0,0,0.07222222222222222,72.14999999999998,0)" xlink:href="#aB"/><use transform="matrix(0.07222222222222222,0,0,0.07222222222222222,77.85555555555553,0)" xlink:href="#aA"/><use transform="matrix(0.07222222222222222,0,0,0.07222222222222222,90.85555555555553,0)" xlink:href="#aI"/></g><g id="an"><use transform="matrix(0.07222222222222222,0,0,0.07222222222222222,0,0)" xlink:href="#at"/><use transform="matrix(0.07222222222222222,0,0,0.07222222222222222,18.705555555555552,0)" xlink:href="#au"/><use transform="matrix(0.07222222222222222,0,0,0.07222222222222222,33.14999999999999,0)" xlink:href="#aI"/><use transform="matrix(0.07222222222222222,0,0,0.07222222222222222,46.149999999999984,0)" xlink:href="#cp"/><use transform="matrix(0.07222222222222222,0,0,0.07222222222222222,60.59444444444443,0)" xlink:href="#aH"/><use transform="matrix(0.07222222222222222,0,0,0.07222222222222222,75.03888888888888,0)" xlink:href="#ax"/><use transform="matrix(0.07222222222222222,0,0,0.07222222222222222,89.48333333333332,0)" xlink:href="#au"/><use transform="matrix(0.07222222222222222,0,0,0.07222222222222222,103.92777777777776,0)" xlink:href="#aF"/><use transform="matrix(0.07222222222222222,0,0,0.07222222222222222,112.52222222222221,0)" xlink:href="#bp"/></g><path fill="#333" d="M128 0H69L1-190h53L99-40l48-150h52" id="cr"/><g id="ao"><use transform="matrix(0.04938271604938272,0,0,0.04938271604938272,0,0)" xlink:href="#bL"/><use transform="matrix(0.04938271604938272,0,0,0.04938271604938272,12.790123456790125,0)" xlink:href="#by"/><use transform="matrix(0.04938271604938272,0,0,0.04938271604938272,22.66666666666667,0)" xlink:href="#bJ"/><use transform="matrix(0.04938271604938272,0,0,0.04938271604938272,28.54320987654322,0)" xlink:href="#bv"/><use transform="matrix(0.04938271604938272,0,0,0.04938271604938272,35.4567901234568,0)" xlink:href="#bH"/><use transform="matrix(0.04938271604938272,0,0,0.04938271604938272,40.39506172839507,0)" xlink:href="#by"/><use transform="matrix(0.04938271604938272,0,0,0.04938271604938272,50.271604938271615,0)" xlink:href="#cr"/><use transform="matrix(0.04938271604938272,0,0,0.04938271604938272,60.14814814814817,0)" xlink:href="#by"/><use transform="matrix(0.04938271604938272,0,0,0.04938271604938272,70.02469135802471,0)" xlink:href="#bz"/></g><g id="ap"><use transform="matrix(0.04938271604938272,0,0,0.04938271604938272,0,0)" xlink:href="#cl"/><use transform="matrix(0.04938271604938272,0,0,0.04938271604938272,12.790123456790125,0)" xlink:href="#bw"/><use transform="matrix(0.04938271604938272,0,0,0.04938271604938272,22.66666666666667,0)" xlink:href="#bJ"/><use transform="matrix(0.04938271604938272,0,0,0.04938271604938272,28.54320987654322,0)" xlink:href="#bw"/></g><g id="aq"><use transform="matrix(0.04938271604938272,0,0,0.04938271604938272,0,0)" xlink:href="#bG"/><use transform="matrix(0.04938271604938272,0,0,0.04938271604938272,9.82716049382716,0)" xlink:href="#bv"/><use transform="matrix(0.04938271604938272,0,0,0.04938271604938272,16.74074074074074,0)" xlink:href="#bH"/><use transform="matrix(0.04938271604938272,0,0,0.04938271604938272,21.679012345679013,0)" xlink:href="#bI"/><use transform="matrix(0.04938271604938272,0,0,0.04938271604938272,32.49382716049383,0)" xlink:href="#bI"/><use transform="matrix(0.04938271604938272,0,0,0.04938271604938272,43.308641975308646,0)" xlink:href="#by"/><use transform="matrix(0.04938271604938272,0,0,0.04938271604938272,53.18518518518519,0)" xlink:href="#bv"/><use transform="matrix(0.04938271604938272,0,0,0.04938271604938272,60.09876543209877,0)" xlink:href="#bz"/></g><path fill="#333" d="M24 0v-248h195v40H76v63h132v40H76v65h150V0H24" id="cs"/><path fill="#333" d="M123 10C108 53 80 86 19 72V37c35 8 53-11 59-39L3-190h52l48 148c12-52 28-100 44-148h51" id="ct"/><g id="ar"><use transform="matrix(0.04938271604938272,0,0,0.04938271604938272,0,0)" xlink:href="#cs"/><use transform="matrix(0.04938271604938272,0,0,0.04938271604938272,11.851851851851853,0)" xlink:href="#cr"/><use transform="matrix(0.04938271604938272,0,0,0.04938271604938272,21.7283950617284,0)" xlink:href="#by"/><use transform="matrix(0.04938271604938272,0,0,0.04938271604938272,31.60493827160494,0)" xlink:href="#bv"/><use transform="matrix(0.04938271604938272,0,0,0.04938271604938272,38.518518518518526,0)" xlink:href="#ct"/></g><path fill="#333" d="M182-182c0 78-84 86-111 141h115V0H12c-6-101 99-100 120-180 1-22-12-31-33-32-23 0-32 14-35 34l-49-3c5-45 32-70 84-70 51 0 83 22 83 69" id="cu"/><path fill="#333" d="M165-50V0h-47v-50H5v-38l105-160h55v161h33v37h-33zm-47-37l2-116L46-87h72" id="cv"/><path fill="#333" d="M186 0v-106H76V0H24v-248h52v99h110v-99h50V0h-50" id="cw"/><g id="as"><use transform="matrix(0.04938271604938272,0,0,0.04938271604938272,0,0)" xlink:href="#cu"/><use transform="matrix(0.04938271604938272,0,0,0.04938271604938272,9.876543209876544,0)" xlink:href="#cv"/><use transform="matrix(0.04938271604938272,0,0,0.04938271604938272,19.75308641975309,0)" xlink:href="#cw"/></g></defs></g></svg>